<svg class="svg-icon affordable-power" version="1.1" id="uptime" xmlns="http://www.w3.org/2000/svg" x="0px" y="0px" viewBox="0 0 60 60" xml:space="preserve">
<style>
  .st0 { fill: #ff7f50; }
    .st1 { fill: #1e3a8a; }
    .st2 { fill: #3B82F6; }
    .st3 { fill: #FBBF24; }
    .st4 { fill: #EF4444; }
</style>
  <path id="Elipsa_610" class="st0" d="M34.8,3.6c11.6,6.6,20.9,22.6,20.9,35.8c0,5.5-1.6,9.6-4.4,12.1c-3.8,3.4-12.9,7.3-13.7,7.3
	c11.8-8,10.8-20.8,0-39c-5.6-9.4-24.4-20.6-30.5-8.9c-0.3-3.9,8.4-6.7,12.1-8.9C23-0.3,29,0.2,34.8,3.6z"></path>
  <path id="Elipsa_610-2" class="st1" d="M25.7,8.2C37.2,14.8,46.6,30.8,46.6,44s-9.4,18.5-20.9,11.9S4.8,33.3,4.8,20.1
	S14.1,1.6,25.7,8.2z"></path>
  <path id="Elipsa_1410" class="st2" d="M22.3,33.4c1.6,1,2.5,2.7,2.6,4.5c0,1.7-1.2,2.3-2.6,1.5c-1.6-1-2.5-2.7-2.6-4.5
	c-0.2-0.9,0.4-1.7,1.3-1.9C21.4,33,21.9,33.1,22.3,33.4z"></path>
  <path id="Prostokąt_1411" class="st3" d="M20.9,34.4l8-5.7l-4.8,8.7L20.9,34.4z"></path>
  <path id="Elipsa_1412" class="st2" d="M37,40.3c0-8.5-5.9-18.1-13.2-22.6c-5.8-3.6-12.9-1.4-12.9,7.1c-0.4,0-0.8,0-1.1-0.1
	c0-8.7,6.5-13.7,15-9c8.6,4.8,16.1,17.4,16,27C40.3,42.5,37,40.3,37,40.3"></path>
</svg>
