<?xml version="1.0" encoding="UTF-8"?>
<svg xmlns="http://www.w3.org/2000/svg" xmlns:xlink="http://www.w3.org/1999/xlink" viewBox="0 0 176.3723 247.68227">
  <defs>
    <style>
      .cls-1, .cls-2 {
        fill: #0f001f;
      }

      .cls-3 {
        fill: url(#linear-gradient-8);
      }

      .cls-4 {
        fill: url(#linear-gradient-7);
      }

      .cls-5 {
        fill: url(#linear-gradient-5);
      }

      .cls-6 {
        fill: url(#linear-gradient-6);
      }

      .cls-7 {
        fill: url(#linear-gradient-9);
      }

      .cls-8 {
        fill: url(#linear-gradient-3);
      }

      .cls-9 {
        fill: url(#linear-gradient-2);
      }

      .cls-10 {
        fill: url(#radial-gradient);
      }

      .cls-10, .cls-11, .cls-12 {
        opacity: .6;
      }

      .cls-10, .cls-12 {
        mix-blend-mode: screen;
      }

      .cls-13 {
        isolation: isolate;
      }

      .cls-14 {
        fill: url(#New_Gradient_Swatch_copy_13);
      }

      .cls-15 {
        fill: url(#New_Gradient_Swatch_copy_10);
      }

      .cls-16 {
        fill: url(#New_Gradient_Swatch_copy_25);
      }

      .cls-17 {
        fill: url(#New_Gradient_Swatch_copy_26);
      }

      .cls-18 {
        fill: url(#linear-gradient);
      }

      .cls-18, .cls-19 {
        opacity: .2;
      }

      .cls-20 {
        fill: url(#linear-gradient-4);
      }

      .cls-20, .cls-21 {
        opacity: .81818;
      }

      .cls-20, .cls-22 {
        mix-blend-mode: multiply;
      }

      .cls-23 {
        fill: url(#New_Gradient_Swatch_copy_25-7);
        opacity: .8;
      }

      .cls-24 {
        fill: #fff;
      }

      .cls-25 {
        fill: url(#linear-gradient-10);
      }

      .cls-26 {
        fill: url(#linear-gradient-11);
      }

      .cls-27 {
        fill: url(#linear-gradient-12);
      }

      .cls-28 {
        fill: url(#linear-gradient-13);
      }

      .cls-29 {
        fill: url(#linear-gradient-14);
      }

      .cls-30 {
        opacity: .9;
      }

      .cls-31 {
        opacity: .90909;
      }

      .cls-32 {
        opacity: .72727;
      }

      .cls-33 {
        opacity: .45454;
      }

      .cls-34 {
        opacity: .36364;
      }

      .cls-35 {
        opacity: .63636;
      }

      .cls-36 {
        opacity: .54546;
      }

      .cls-37 {
        opacity: .18182;
      }

      .cls-38 {
        opacity: .27273;
      }

      .cls-39 {
        opacity: .09091;
      }

      .cls-22 {
        fill: #bcbec0;
      }

      .cls-11, .cls-40 {
        fill: #7c1dc9;
      }

      .cls-41 {
        fill: url(#New_Gradient_Swatch_copy_26-2);
      }

      .cls-42 {
        fill: url(#New_Gradient_Swatch_copy_25-5);
      }

      .cls-43 {
        fill: url(#New_Gradient_Swatch_copy_25-4);
      }

      .cls-44 {
        fill: url(#New_Gradient_Swatch_copy_25-3);
      }

      .cls-45 {
        fill: url(#New_Gradient_Swatch_copy_25-6);
      }

      .cls-46 {
        fill: url(#New_Gradient_Swatch_copy_25-2);
      }

      .cls-47 {
        fill: url(#New_Gradient_Swatch_copy_10-2);
      }

      .cls-48 {
        fill: url(#New_Gradient_Swatch_copy_10-3);
      }

      .cls-49 {
        opacity: 0;
      }

      .cls-2 {
        opacity: .1;
      }

      .cls-12 {
        fill: url(#radial-gradient-2);
      }
    </style>
    <linearGradient id="linear-gradient" x1="-1511.8182" y1="225.69457" x2="-1394.08916" y2="225.69457" gradientTransform="translate(1536.2199)" gradientUnits="userSpaceOnUse">
      <stop offset=".05556" stop-color="#200041"/>
      <stop offset=".25762" stop-color="#210143"/>
      <stop offset=".35719" stop-color="#25084a"/>
      <stop offset=".4341" stop-color="#2c1357"/>
      <stop offset=".4697" stop-color="#311b61"/>
      <stop offset=".48197" stop-color="#351f65"/>
      <stop offset=".49537" stop-color="#422c72"/>
      <stop offset=".50929" stop-color="#574188"/>
      <stop offset=".5235" stop-color="#755fa6"/>
      <stop offset=".5303" stop-color="#8770b8"/>
      <stop offset=".53656" stop-color="#7d66ae"/>
      <stop offset=".56173" stop-color="#5c458c"/>
      <stop offset=".58573" stop-color="#442e74"/>
      <stop offset=".60784" stop-color="#351f66"/>
      <stop offset=".62626" stop-color="#311b61"/>
      <stop offset=".67235" stop-color="#2a1054"/>
      <stop offset=".74906" stop-color="#220446"/>
      <stop offset=".81313" stop-color="#200041"/>
      <stop offset="1" stop-color="#200041"/>
    </linearGradient>
    <linearGradient id="linear-gradient-2" x1="-1511.81829" y1="207.74101" x2="-1394.08882" y2="207.74101" xlink:href="#linear-gradient"/>
    <linearGradient id="linear-gradient-3" x1="-1480.31488" y1="215.31108" x2="-1426.94774" y2="185.78883" gradientTransform="translate(1536.2199)" gradientUnits="userSpaceOnUse">
      <stop offset="0" stop-color="#00006c"/>
      <stop offset=".26773" stop-color="#130052"/>
      <stop offset=".49495" stop-color="#200041"/>
      <stop offset="1" stop-color="#0f001f"/>
    </linearGradient>
    <linearGradient id="linear-gradient-4" x1="-1452.01222" y1="201.35505" x2="-1441.53562" y2="183.7896" gradientTransform="translate(1536.2199)" gradientUnits="userSpaceOnUse">
      <stop offset="0" stop-color="#fff"/>
      <stop offset="1" stop-color="#000"/>
    </linearGradient>
    <radialGradient id="radial-gradient" cx="-1451.66363" cy="225.22507" fx="-1451.66363" fy="225.22507" r="41.88528" gradientTransform="translate(1536.2199)" gradientUnits="userSpaceOnUse">
      <stop offset="0" stop-color="#af8afc"/>
      <stop offset="1" stop-color="#10054d"/>
    </radialGradient>
    <linearGradient id="linear-gradient-5" x1="-1365.61635" y1="236.04537" x2="-1545.77821" y2="-13.25414" gradientTransform="translate(1536.2199)" gradientUnits="userSpaceOnUse">
      <stop offset="0" stop-color="#311b61"/>
      <stop offset=".11015" stop-color="#2b1764"/>
      <stop offset="1" stop-color="#00007f"/>
    </linearGradient>
    <linearGradient id="linear-gradient-6" x1="33.74298" y1="-1.24944" x2="106.82153" y2="165.96982" gradientUnits="userSpaceOnUse">
      <stop offset=".0101" stop-color="#ff8000"/>
      <stop offset=".15044" stop-color="#fb7e01"/>
      <stop offset=".27687" stop-color="#f07806"/>
      <stop offset=".398" stop-color="#de6f0d"/>
      <stop offset=".51591" stop-color="#c46218"/>
      <stop offset=".63149" stop-color="#a25127"/>
      <stop offset=".74526" stop-color="#793d38"/>
      <stop offset=".85768" stop-color="#49244c"/>
      <stop offset=".96621" stop-color="#120964"/>
      <stop offset="1" stop-color="#00006c"/>
    </linearGradient>
    <linearGradient id="linear-gradient-7" x1="-1327.33567" y1="241.4602" x2="-1469.14343" y2="14.87071" gradientTransform="translate(1536.2199)" gradientUnits="userSpaceOnUse">
      <stop offset=".4697" stop-color="#00006c"/>
      <stop offset=".47939" stop-color="#04036e"/>
      <stop offset=".48998" stop-color="#110e75"/>
      <stop offset=".50098" stop-color="#272082"/>
      <stop offset=".51228" stop-color="#453a93"/>
      <stop offset=".52369" stop-color="#6c5aa9"/>
      <stop offset=".5303" stop-color="#8770b8"/>
      <stop offset=".53631" stop-color="#7864af"/>
      <stop offset=".55658" stop-color="#4d4097"/>
      <stop offset=".57623" stop-color="#2b2484"/>
      <stop offset=".59483" stop-color="#131077"/>
      <stop offset=".61198" stop-color="#05046e"/>
      <stop offset=".62626" stop-color="#00006c"/>
    </linearGradient>
    <radialGradient id="radial-gradient-2" cx="-1367.56598" cy="112.42353" fx="-1367.56598" fy="112.42353" r="24.13796" xlink:href="#radial-gradient"/>
    <linearGradient id="New_Gradient_Swatch_copy_26" data-name="New Gradient Swatch copy 26" x1="101.61028" y1="147.41531" x2="60.46113" y2="220.81005" gradientUnits="userSpaceOnUse">
      <stop offset=".0303" stop-color="#7c1dc9"/>
      <stop offset=".21383" stop-color="#6e41d1"/>
      <stop offset=".61836" stop-color="#4c9be8"/>
      <stop offset="1" stop-color="#2af6ff"/>
    </linearGradient>
    <linearGradient id="New_Gradient_Swatch_copy_26-2" data-name="New Gradient Swatch copy 26" x1="95.98646" y1="151.63563" x2="86.6524" y2="168.38904" xlink:href="#New_Gradient_Swatch_copy_26"/>
    <linearGradient id="linear-gradient-8" x1="87.07746" y1="106.51451" x2="101.92065" y2="102.06996" gradientUnits="userSpaceOnUse">
      <stop offset=".03535" stop-color="#9f19ab"/>
      <stop offset=".24376" stop-color="#ae24b0"/>
      <stop offset=".64548" stop-color="#d643bf"/>
      <stop offset="1" stop-color="#ff63ce"/>
    </linearGradient>
    <linearGradient id="linear-gradient-9" x1="-45.71085" y1="108.63941" x2="157.95279" y2="62.98455" xlink:href="#linear-gradient-8"/>
    <linearGradient id="linear-gradient-10" x1="59.10339" y1="66.21938" x2="54.00921" y2="75.92784" xlink:href="#linear-gradient-8"/>
    <linearGradient id="New_Gradient_Swatch_copy_10" data-name="New Gradient Swatch copy 10" x1="66.8668" y1="84.59577" x2="-19.79631" y2="170.56558" gradientTransform="translate(44.1431 -2.98047)" gradientUnits="userSpaceOnUse">
      <stop offset=".03535" stop-color="#9d9eb3"/>
      <stop offset=".58081" stop-color="#d4d1d8"/>
      <stop offset="1" stop-color="#eeebf2"/>
    </linearGradient>
    <linearGradient id="New_Gradient_Swatch_copy_10-2" data-name="New Gradient Swatch copy 10" x1="115.58547" y1="162.17248" x2="131.78937" y2="167.78982" gradientTransform="matrix(1,0,0,1,0,0)" xlink:href="#New_Gradient_Swatch_copy_10"/>
    <linearGradient id="New_Gradient_Swatch_copy_10-3" data-name="New Gradient Swatch copy 10" x1="69.16033" y1="97.30829" x2="60.4239" y2="111.42097" gradientTransform="matrix(1,0,0,1,0,0)" xlink:href="#New_Gradient_Swatch_copy_10"/>
    <linearGradient id="New_Gradient_Swatch_copy_13" data-name="New Gradient Swatch copy 13" x1="38.78722" y1="90.97514" x2="14.61931" y2="146.74723" gradientUnits="userSpaceOnUse">
      <stop offset=".03535" stop-color="#6b24d6"/>
      <stop offset=".29449" stop-color="#7733dc"/>
      <stop offset=".79432" stop-color="#965bec"/>
      <stop offset="1" stop-color="#a56ef4"/>
    </linearGradient>
    <linearGradient id="linear-gradient-11" x1="52.87704" y1="203.91175" x2="224.2649" y2="165.49208" gradientUnits="userSpaceOnUse">
      <stop offset=".03535" stop-color="#00006c"/>
      <stop offset=".20139" stop-color="#0f006c"/>
      <stop offset=".52315" stop-color="#37006c"/>
      <stop offset=".96508" stop-color="#78006c"/>
      <stop offset="1" stop-color="#7e006c"/>
    </linearGradient>
    <linearGradient id="linear-gradient-12" x1="141.08199" y1="164.31562" x2="136.51078" y2="173.0274" xlink:href="#linear-gradient-11"/>
    <linearGradient id="New_Gradient_Swatch_copy_25" data-name="New Gradient Swatch copy 25" x1="116.7626" y1="179.99017" x2="158.28521" y2="179.99017" gradientUnits="userSpaceOnUse">
      <stop offset="0" stop-color="#25054d"/>
      <stop offset="1" stop-color="#45108a"/>
    </linearGradient>
    <linearGradient id="New_Gradient_Swatch_copy_25-2" data-name="New Gradient Swatch copy 25" y1="182.99052" x2="138.6888" y2="182.99052" xlink:href="#New_Gradient_Swatch_copy_25"/>
    <linearGradient id="New_Gradient_Swatch_copy_25-3" data-name="New Gradient Swatch copy 25" y1="184.30237" y2="184.30237" xlink:href="#New_Gradient_Swatch_copy_25"/>
    <linearGradient id="linear-gradient-13" x1="52.87704" y1="178.09405" x2="224.2649" y2="139.67438" gradientUnits="userSpaceOnUse">
      <stop offset=".03535" stop-color="#00006c"/>
      <stop offset=".28328" stop-color="#0f006c"/>
      <stop offset=".76143" stop-color="#37006c"/>
      <stop offset="1" stop-color="#4e006c"/>
    </linearGradient>
    <linearGradient id="linear-gradient-14" x1="141.08188" y1="138.49812" x2="136.51077" y2="147.20972" xlink:href="#linear-gradient-13"/>
    <linearGradient id="New_Gradient_Swatch_copy_25-4" data-name="New Gradient Swatch copy 25" y1="157.17282" x2="138.6888" y2="157.17282" xlink:href="#New_Gradient_Swatch_copy_25"/>
    <linearGradient id="New_Gradient_Swatch_copy_25-5" data-name="New Gradient Swatch copy 25" x1="127.9696" y1="157.39652" y2="157.39652" xlink:href="#New_Gradient_Swatch_copy_25"/>
    <linearGradient id="New_Gradient_Swatch_copy_25-6" data-name="New Gradient Swatch copy 25" x1="127.9696" y1="161.70872" y2="161.70872" xlink:href="#New_Gradient_Swatch_copy_25"/>
    <linearGradient id="New_Gradient_Swatch_copy_25-7" data-name="New Gradient Swatch copy 25" x1="132.76366" y1="164.53668" x2="108.09699" y2="123.03667" xlink:href="#New_Gradient_Swatch_copy_25"/>
  </defs>
  <g class="cls-13">
    <g id="Layer_2" data-name="Layer 2">
      <g id="Layer_1-2" data-name="Layer 1">
        <g>
          <g>
            <path class="cls-18" d="M131.5393,205.66867c-.0002,1.5805-1.1469,3.2466-3.4017,4.5484l-32.5875,31.1006c-4.1223,2.3801-10.3583,2.6386-13.9284.5773l-59.2833-34.4304c-1.726-.9964-2.50419-2.3534-2.3907-3.7577-.0107.0668-.0172.1479-.019.2464-.00049.0413-.00049,4.4375.0002,4.4787.0255,1.2857.8186,2.5098,2.4095,3.4285l59.2833,34.4302c3.5701,2.0613,9.8061,1.8028,13.9284-.5773l32.5875-31.1008c2.2877-1.3207,3.44361-3.0173,3.4093-4.618-.0056-.2708.0398-3.2215-.0076-4.3259Z"/>
            <g class="cls-19">
              <path class="cls-49" d="M87.671,245.72297c-3.253,0-6.2052-.7114-8.5373-2.058l-59.28349-34.4305c-3.113-1.7975-4.89841-4.6418-4.89791-7.803,0-3.4653,2.1498-6.694,5.8985-8.8575l52.0271-20.0136c2.9439-1.6994,6.6255-2.6354,10.3674-2.6354,3.253,0,6.2052.7115,8.5373,2.058l39.8432,23.3431c3.113,1.7975,4.8979,4.6413,4.8979,7.8025,0,3.4649-2.1498,6.6936-5.898,8.858l-32.5873,31.1011c-2.9439,1.6994-6.6255,2.6353-10.3674,2.6353Z"/>
              <path class="cls-39" d="M21.077,192.96567l52.0271-20.0136c2.9314-1.6922,6.6226-2.6009,10.3204-2.5638,1.593.0175,3.1051.2288,4.5003.5765,1.3269.3306,2.8702.973,3.9478,1.5953l38.4768,22.5425c.0359.0207,1.1175.6584,1.1445.6822,3.0472,1.8256,4.4344,4.6775,4.2675,7.7573-.1705,3.1453-2.543,6.6468-5.9505,8.6145l-31.99869,30.5393c-2.87491,1.6595-6.47441,2.5709-10.11791,2.5745-3.1718.0033-6.0618-.685-8.3344-1.9972l-59.2835-34.4304c-2.9906-1.7269-4.6848-4.4396-4.6699-7.4442.01471-3.2839,2.0732-6.3567,5.6705-8.4329Z"/>
              <path class="cls-37" d="M21.3031,193.35747l52.0272-20.0136c2.91891-1.685,6.6196-2.5666,10.2735-2.4923,1.58641.0349,3.0831.2854,4.458.646,1.1905.3121,2.9309,1.0795,3.9008,1.6395l38.26561,22.4188c.07179.0414,1.07979.64,1.13369.6876,2.9815,1.8536,3.9725,4.6855,3.6371,7.7121-.3122,2.8177-2.9361,6.6-6.00279,8.3709l-31.41021,29.9776c-2.8059,1.6197-6.3232,2.5065-9.8684,2.5138-3.0907.0065-5.9183-.6586-8.1316-1.9365l-59.2834-34.4304c-2.8681-1.6562-4.4712-4.2372-4.442-7.0852.02961-3.1026,1.9967-6.0195,5.4425-8.0083Z"/>
              <path class="cls-38" d="M21.5293,193.74917l52.0272-20.0135c2.9065-1.6778,6.6166-2.5323,10.2265-2.4207,1.5798.0522,3.0605.3418,4.4158.7154,1.0547.2907,2.9917,1.1859,3.8538,1.6837l38.0544,22.2951c.1077.0621,1.042.6216,1.123.693,2.9156,1.8817,3.5137,4.6642,3.0066,7.6669-.4196,2.4848-3.3292,6.5532-6.0551,8.1273l-30.8217,29.4159c-2.7368,1.5799-6.172,2.4421-9.6189,2.453-3.0095.0098-5.7749-.6321-7.92869-1.8757l-59.28341-34.4304c-2.7457-1.5854-4.2577-4.0348-4.214-6.7263.0443-2.9211,1.9201-5.6822,5.2145-7.5837Z"/>
              <path class="cls-34" d="M21.7554,194.14097l52.0273-20.0135c2.894-1.6707,6.6137-2.4979,10.17951-2.3492,1.57329.0697,3.03729.3981,4.37359.7848.9195.2662,3.0525,1.2925,3.8068,1.728l37.8432,22.1714c.1435.0828,1.0043.6032,1.1123.6984,2.8498,1.9097,3.7095,4.8403,2.37611,7.6217,0,2.205-3.72221,6.5064-6.10751,7.8837l-30.2331,28.8542c-2.6678,1.5401-6.0209,2.3777-9.3695,2.3923-2.9282.013-5.6314-.6057-7.7257-1.815l-59.2834-34.4304c-2.6232-1.5147-4.0441-3.8325-3.986-6.3674.059-2.7397,1.8434-5.3449,4.9864-7.159Z"/>
              <path class="cls-33" d="M21.9816,194.53277l52.0273-20.0135c2.8815-1.6635,6.6107-2.4636,10.1326-2.2777,1.56671.0871,3.0133.4541,4.3313.8543.7851.2384,3.1132,1.3989,3.7598,1.7722l37.6321,22.0477c.1793.1035.96651.5848,1.10151.7038,2.784,1.9377,3.41229,4.89,1.74559,7.5766,0,1.8899-4.1153,6.4595-6.1598,7.6401l-29.6446,28.2924c-2.5988,1.5002-5.8697,2.3132-9.12,2.3315-2.847.0163-5.4879-.5792-7.5228-1.7542l-59.28339-34.4304c-2.50081-1.444-3.83051-3.6301-3.758-6.0085.07379-2.5582,1.76679-5.0076,4.75839-6.7343Z"/>
              <path class="cls-36" d="M22.2077,194.92447l52.0274-20.0134c2.869-1.6564,6.6078-2.4293,10.0856-2.2062,1.5601.1046,2.9887.51,4.2891.9238.6515.2073,3.174,1.5053,3.7128,1.8165l37.4209,21.9239c.2152.1242.9288.5664,1.0908.7092,2.7182,1.9658,3.1152,4.9398,1.1152,7.5314,0,1.5749-4.5085,6.4126-6.2122,7.3965l-29.05609,27.7307c-2.52971,1.4604-5.71851,2.2488-8.87051,2.2708-2.7659.0194-5.34449-.5529-7.32-1.6934l-59.2833-34.4305c-2.3783-1.3732-3.6169-3.4278-3.53-5.6495.0885-2.3769,1.6902-4.6704,4.5303-6.3098Z"/>
              <path class="cls-35" d="M22.4339,195.31627l52.0274-20.0135c2.8566-1.6491,6.6048-2.3948,10.0386-2.1346,1.5536.122,2.9635.5657,4.2468.9933.519.1729,3.2349,1.6118,3.6659,1.8607l37.2097,21.8002c.2511.145.8911.548,1.08.7146,2.6524,1.9938,2.8182,4.9895.4848,7.4862,0,1.2599-4.9016,6.3658-6.2645,7.1529l-28.4676,27.169c-2.4607,1.4206-5.5673,2.1844-8.621,2.21-2.6847.0227-5.2011-.5264-7.1171-1.6326l-59.2833-34.4304c-2.2559-1.3026-3.4033-3.2255-3.302-5.2907.1033-2.1955,1.61361-4.3331,4.3023-5.8851Z"/>
              <path class="cls-32" d="M22.66,195.70797l52.0275-20.0134c2.8441-1.6419,6.6019-2.3605,9.99171-2.0631,1.54689.1394,2.93739.6211,4.20449,1.0628.3874.135,3.2956,1.7182,3.6189,1.9049l36.9985,21.6765c.287.1657.8534.5296,1.0693.72,2.5866,2.0219,2.521,5.0392-.1457,7.441,0,.945-5.2946,6.319-6.3169,6.9093l-27.879,26.6073c-2.3917,1.3808-5.4162,2.12-8.3715,2.1493-2.6035.0259-5.0576-.5-6.9142-1.5719l-59.2833-34.4304c-2.1335-1.2319-3.1897-3.0231-3.074-4.9318.118-2.014,1.5369-3.9958,4.0742-5.4605Z"/>
              <path class="cls-21" d="M22.88621,196.09977l52.02749-20.0134c2.8316-1.6348,6.5989-2.3261,9.9447-1.9916,1.5404.1569,2.9107.6762,4.1623,1.1322.257.0937,3.3564,1.8248,3.5719,1.9492l36.7873,21.5528c.3229.1864.8157.5112,1.0586.7254,2.5208,2.0499,2.2239,5.089-.7762,7.3958,0,.63-5.6877,6.2722-6.3692,6.6658l-27.2905,26.0455c-2.3226,1.3409-5.265,2.0556-8.122,2.0885-2.5223.0292-4.9142-.4735-6.7113-1.5111l-59.2833-34.4304c-2.011-1.1611-2.9761-2.8208-2.846-4.5729.1328-1.8326,1.4603-3.6585,3.84621-5.0358Z"/>
              <path class="cls-31" d="M23.1123,196.49147l52.0276-20.0133c2.8191-1.6276,6.596-2.2918,9.8977-1.9201,1.5339.1743,2.8832.7311,4.1201,1.2017.1278.0487,3.4172,1.9312,3.5249,1.9934l36.5762,21.4291c.3587.2071.7779.4928,1.0478.7308,2.455,2.078,1.9267,5.1387-1.4067,7.3506,0,.315-6.0808,6.2254-6.4215,6.4222l-26.702,25.4838c-2.2536,1.3011-5.1138,1.9912-7.8725,2.0278-2.4412.0324-4.7708-.4471-6.5085-1.4504l-59.2831-34.4304c-1.8887-1.0904-2.7627-2.6184-2.61809-4.214.14749-1.6511,1.38369-3.3212,3.61809-4.6112Z"/>
              <path d="M81.6216,239.35527l-59.2831-34.4304c-3.5702-2.0612-3.1224-5.6615,1-8.0416l52.0276-20.0133c4.1224-2.3801,10.3585-2.6386,13.9286-.5774l39.8429,23.343c3.5701,2.0612,3.1224,5.6616-1,8.0416l-32.58739,31.1007c-4.12241,2.3801-10.35851,2.6386-13.92861.5774Z"/>
            </g>
            <path class="cls-9" d="M81.6216,239.27237l-59.2831-34.4304c-1.591-.9185-2.384-2.1427-2.4096-3.4283-.0008-.0412-.0009-4.4374-.0001-4.4787.0286-1.5627,1.1831,1.1508,3.4097-.1347l52.0276-20.0133c4.1224-2.38,10.3585-2.6385,13.9286-.5773l39.8429,23.3429c1.1917.6881,2.0561-2.2324,2.3652-1.304.1031.3095.03741,4.4067.0442,4.7277.03421,1.6007-1.12179,3.2973-3.4094,4.618l-32.58739,31.1007c-4.12241,2.3801-10.35851,2.6386-13.92861.5774Z"/>
            <path class="cls-8" d="M81.6216,234.87667l-59.2831-34.4303c-3.5702-2.0613-3.1224-5.6616,1-8.0417l52.0276-20.0133c4.1224-2.3801,10.3585-2.6386,13.9286-.5774l39.8429,23.343c3.5701,2.0612,3.1224,5.6616-1,8.0417l-32.58739,31.1007c-4.12241,2.38-10.35851,2.6385-13.92861.5773Z"/>
            <path class="cls-20" d="M129.1376,195.15687l-39.8429-23.3429c-3.5702-2.0612-9.8062-1.8026-13.9286.5773l-26.2117,10.0829c.246.1961.5099.3861.8139.5616l59.283,34.4304c.82191.4744,1.789.8202,2.8352,1.0512l16.0511-15.3188c4.1223-2.38,4.5701-5.9805,1-8.0417Z"/>
            <path class="cls-10" d="M128.1376,202.45217l-32.58739,31.1007c-4.12241,2.3801-10.35841,2.6386-13.92861.5774l-59.2832-34.4304c-1.481-.8551-2.2601-1.9762-2.3827-3.164-.1854,1.4585.5939,2.8777,2.3827,3.9104l59.2832,34.4304c3.5702,2.0612,9.8062,1.8027,13.92861-.5773l32.58739-31.1007c2.4121-1.3928,3.5557-3.2022,3.3827-4.8776-.1846,1.4523-1.3259,2.9436-3.3827,4.1311Z"/>
          </g>
          <g>
            <path class="cls-5" d="M159.0745,235.06767L13.478,150.93927c-7.4437-4.2976-13.478-15.8272-13.478-25.7521V13.83587C0,3.91097,6.0343-.65083,13.478,3.64677l145.5965,84.1284c7.44371,4.2976,13.478,15.8272,13.478,25.7521v111.3513c0,9.9249-6.03429,14.4867-13.478,10.1891Z"/>
            <path class="cls-6" d="M160.8103,227.31547L17.26521,144.38497c-5.99011-3.8069-9.69511-11.4139-9.69511-19.198V13.10397c0-1.8443,2.0064-2.9898,3.598-2.0579.1854.1085.3322.1941.4224.2461l143.6972,83.0367c7.1312,4.1107,9.6951,11.4146,9.6951,19.1988v111.7297c0,1.978-2.1388,3.2179-3.8573,2.2385-.1359-.0775-.2441-.1394-.3152-.1804Z"/>
            <path class="cls-22" d="M162.5616,226.29907c-.136-.0774-.2442-.1393-.3153-.1802L18.7011,143.18827c-5.98989-3.807-9.695-11.414-9.695-19.1982V11.90727c0-.403.1093-.7639.2754-1.0855-.9525.2861-1.7115,1.1495-1.7115,2.2822v112.0828c0,7.7842,3.7051,15.3912,9.6951,19.1982l143.5452,82.9306c.071.0409.1792.1028.3153.1802,1.31961.7521,2.8778.1896,3.5342-1.005-.6589.2248-1.4097.2007-2.0982-.1917Z"/>
            <path class="cls-4" d="M162.8944,85.74587L17.2978,1.61757C14.3528-.08273,11.6285-.39643,9.41121.46007c-.28211.1091-4.03981,2.1056-4.30491,2.2522-.0073.0038-.0126.008-.0126.008,2.2963-1.1152,5.2092-.9068,8.3843.9264l145.5965,84.1286c7.44371,4.2973,13.478,15.8271,13.478,25.7521v111.3512c0,6.1938-2.3508,10.2978-5.9271,11.4644.2914.0161.65481-.0976,1.18081-.4018.17029-.0983,4.249-2.3994,4.41169-2.5134,2.5602-1.793,4.1544-5.4773,4.1544-10.5786v-111.3512c0-9.925-6.0343-21.4545-13.4779-25.7521Z"/>
            <path class="cls-12" d="M159.7213,87.45177L14.1248,3.32347c-3.0524-1.7626-5.8583-2.0136-8.1179-1.0374,1.92831-.3057,4.1427.1607,6.5009,1.5225l145.5965,84.1283c7.4436,4.2976,13.47791,15.8271,13.47791,25.7523v111.351c0,5.855-2.10931,9.8222-5.36,11.2267,4.15829-.6595,6.977-4.9312,6.977-11.7118v-111.351c0-9.9252-6.03431-21.4546-13.47791-25.7523Z"/>
            <path class="cls-17" d="M7.57,123.59287v1.5939c0,7.7842,3.7051,15.3912,9.6951,19.1982l143.5452,82.9306c.071.0409.1792.1028.3153.1802,1.7184.9796,3.8572-.2604,3.8572-2.2384v-10.7224L7.57,123.59287Z"/>
            <polygon class="cls-41" points="7.57 123.59287 164.9828 214.53497 164.9828 212.43187 9.3038 122.91847 7.57 123.59287"/>
          </g>
          <g>
            <path class="cls-2" d="M26.7558,54.19067l-3.1394-1.811-1.429.8667v22.4238l69.2367,39.8821v.0102l.0093-.0051.0085.0051v-.0095l1.4601-.7771v-22.4238l-4.2214-2.4356M86.934,88.90897L27.9695,54.89107"/>
            <g>
              <g>
                <polygon class="cls-3" points="88.5333 95.16267 88.5333 117.46257 90.01121 116.67597 90.01121 94.25207 88.5333 95.16267"/>
                <polygon class="cls-7" points="88.5511 95.16267 88.5511 117.46257 19.2965 77.57037 19.2965 55.14647 88.5511 95.16267"/>
                <polygon class="cls-25" points="19.2965 55.14647 88.5511 95.16267 90.01121 94.25207 20.7256 54.27977 19.2965 55.14647"/>
              </g>
              <path class="cls-24" d="M84.0715,108.37707l-2.8319-4.8845c-.297-.5123-.7473-.8236-1.0945-.7939l-.8296-1.4308c1.24371-1.1667,1.1211-3.931-.3768-6.5146-1.6368-2.8232-4.2904-4.3552-5.9272-3.4221s-1.6368,3.9783,0,6.8014c1.4979,2.5836,3.8452,4.0796,5.4876,3.6007l.8295,1.4308c-.20039.2827-.1558.8252.1413,1.3375l2.8318,4.8845c.3546.6116.92951.9436,1.2841.7414l.4857-.2768c.3546-.2023.3546-.862,0-1.4736ZM77.9273,99.81017c-1.07809.6148-2.8262-.3944-3.9045-2.2543-1.0782-1.8596-1.0782-3.8656,0-4.4803,1.0783-.6148,2.82641.3945,3.9045,2.2543,1.0782,1.8596,1.0782,3.8656,0,4.4803Z"/>
              <polygon class="cls-24" points="68.5019 100.10577 25.4748 75.24937 25.4748 64.55027 68.5019 89.40667 68.5019 100.10577"/>
            </g>
            <path class="cls-1" d="M22.077,79.91257c-.207,0-.375-.1679-.375-.375v-22.9692l1.8828-1.0762c.1817-.1011.4102-.0405.5117.1397.1036.1797.0411.4087-.1386.5117l-1.5059.8603v22.5337c0,.2071-.168.375-.375.375Z"/>
            <path class="cls-1" d="M85.8143,116.54197c-.207,0-.375-.1679-.375-.375v-22.9697l1.8828-1.0762c.1817-.102.4102-.041.5117.1397.1036.1797.0411.4092-.13859.5117l-1.50591.8603v22.5342c0,.2071-.168.375-.375.375Z"/>
          </g>
          <g>
            <polygon class="cls-15" points="11.2867 84.01497 11.2867 125.42977 108.0891 181.03837 108.0891 139.62397 11.2867 84.01497"/>
            <polygon class="cls-47" points="108.0819 139.62387 108.0819 181.03867 109.6683 180.06097 109.6683 138.65377 108.0819 139.62387"/>
            <polygon class="cls-48" points="109.6683 138.65377 108.0819 139.62387 11.2866 84.01517 12.886 83.03747 109.6683 138.65377"/>
            <polygon class="cls-14" points="40.8908 135.11227 16.3615 120.81317 16.3615 93.73527 40.8908 108.03107 40.8908 135.11227"/>
            <g>
              <polygon class="cls-40" points="45.49021 112.83497 45.49021 115.07387 73.9569 131.19427 73.9569 128.95517 45.49021 112.83497"/>
              <polygon class="cls-11" points="59.1276 141.13157 45.49021 133.36727 45.49021 135.60637 59.1276 143.37047 59.1276 141.13157"/>
              <polygon class="cls-11" points="61.3318 142.40417 61.3318 144.64297 79.09521 154.81327 79.09521 152.57437 61.3318 142.40417"/>
              <polygon class="cls-11" points="77.5968 148.92787 77.5968 146.68877 62.1584 137.79917 62.1584 140.03797 77.5968 148.92787"/>
              <polygon class="cls-11" points="67.9243 135.96547 45.49021 123.12247 45.49021 125.36157 67.9243 138.20457 67.9243 135.96547"/>
              <polygon class="cls-11" points="59.1276 125.88087 45.49021 118.11657 45.49021 120.35567 59.1276 128.11967 59.1276 125.88087"/>
              <polygon class="cls-11" points="61.3318 127.15337 61.3318 129.39227 79.09521 139.56247 79.09521 137.32367 61.3318 127.15337"/>
              <polygon class="cls-11" points="70.1286 137.23807 70.1286 139.47717 80.9718 145.92237 80.9718 143.68347 70.1286 137.23807"/>
              <polygon class="cls-11" points="81.2995 140.83507 101.5454 152.83907 101.5454 150.60017 81.2995 138.59617 81.2995 140.83507"/>
              <polygon class="cls-11" points="83.1761 147.19487 101.5454 157.84527 101.5454 155.60617 83.1761 144.95607 83.1761 147.19487"/>
              <polygon class="cls-11" points="59.9541 136.52657 45.49021 128.28517 45.49021 130.52417 59.9541 138.76547 59.9541 136.52657"/>
              <polygon class="cls-11" points="79.8009 150.20037 101.5085 163.21417 101.5085 160.97517 79.8009 147.96127 79.8009 150.20037"/>
            </g>
          </g>
          <g>
            <g class="cls-30">
              <polygon class="cls-26" points="165.0624 189.00507 165.0624 214.00057 108.389 181.36507 108.389 156.23057 165.0624 189.00507"/>
              <polygon class="cls-27" points="108.389 156.23057 165.0624 189.00507 165.0321 187.10377 109.884 155.30177 108.389 156.23057"/>
            </g>
            <polygon class="cls-16" points="116.7626 166.99277 116.7626 169.06797 158.28521 192.98757 158.28521 190.91217 116.7626 166.99277"/>
            <polygon class="cls-46" points="138.6888 188.28847 116.7626 175.61737 116.7626 177.69247 138.6888 190.36367 138.6888 188.28847"/>
            <polygon class="cls-44" points="116.7626 173.38037 158.28521 197.29977 158.28521 195.22437 116.7626 171.30497 116.7626 173.38037"/>
          </g>
          <g>
            <g class="cls-30">
              <polygon class="cls-28" points="165.0624 163.18737 165.0624 188.18287 108.389 155.54737 108.389 130.41287 165.0624 163.18737"/>
              <polygon class="cls-29" points="108.389 130.41287 165.0624 163.18737 165.0321 161.28607 109.884 129.48417 108.389 130.41287"/>
            </g>
            <polygon class="cls-43" points="138.6888 162.47077 116.7626 149.79967 116.7626 151.87487 138.6888 164.54597 138.6888 162.47077"/>
            <g>
              <polygon class="cls-42" points="127.9696 147.62317 127.9696 149.69837 158.28521 167.16987 158.28521 165.09447 127.9696 147.62317"/>
              <polygon class="cls-45" points="127.9696 154.01077 158.28521 171.48207 158.28521 169.40667 127.9696 151.93537 127.9696 154.01077"/>
            </g>
            <path class="cls-23" d="M124.6906,143.90007l-6.9247-3.998c-.4249-.2453-.7693-.0488-.7693.4388v4.6903c0,.4876.3444,1.0817.7693,1.327l4.328,2.4988,2.1639,3.7325v-2.4831l.4328.2498c.4249.2453.7694.049.7694-.4386v-4.6904c0-.4875-.3445-1.0818-.7694-1.3271ZM119.809,144.77797c-.2253.1285-.5907-.0825-.8161-.4711-.2253-.3887-.2253-.808,0-.9365.2254-.1284.5908.0825.8161.4712s.2253.8079,0,.9364ZM121.6844,145.86077c-.2253.1285-.5907-.0825-.816-.4712-.2254-.3886-.2254-.8079,0-.9364.2253-.1285.5907.0825.816.4712.2254.3886.2254.8079,0,.9364ZM123.5598,146.94357c-.2253.1284-.5907-.0825-.816-.4712-.2254-.3887-.2254-.8079,0-.9364.2253-.1285.5907.0825.816.4711.22541.3887.22541.808,0,.9365Z"/>
          </g>
        </g>
      </g>
    </g>
  </g>
</svg>