<?xml version="1.0" encoding="UTF-8"?>
<svg id="Layer_2" data-name="Layer 2" xmlns="http://www.w3.org/2000/svg" viewBox="0 0 324.8627 324.8628">
  <defs>
    <style>
      .cls-1 {
        fill: #166534;
      }

      .cls-2, .cls-3 {
        fill: #fff;
      }

      .cls-3 {
        font-family: Poppins-Black, Poppins;
        font-size: 80px;
        font-weight: 800;
        letter-spacing: .025em;
      }
    </style>
  </defs>
  <g id="OBJECTS">
    <g>
      <circle class="cls-1" cx="162.43137" cy="162.4314" r="162.43136"/>
      <path class="cls-2" d="M280.3353,112.6206c-6.4453-15.2384-15.671-28.9226-27.4208-40.6724-11.7499-11.7498-25.434-20.9755-40.6724-27.4206-15.7801-6.6747-32.5388-10.0587-49.8108-10.0587s-34.0309,3.384-49.8107,10.0587c-15.2385,6.4451-28.9226,15.6708-40.6725,27.4206-11.7496,11.7498-20.9753,25.434-27.4208,40.6724-6.6743,15.7801-10.0585,32.539-10.0585,49.8108s3.3842,34.0307,10.0585,49.8109c6.4455,15.2384,15.6712,28.9226,27.4208,40.6724,11.7499,11.7497,25.434,20.9754,40.6725,27.4206,15.7798,6.6743,32.5387,10.0586,49.8107,10.0586s34.0307-3.3843,49.8108-10.0586c15.2384-6.4452,28.9225-15.6709,40.6724-27.4206,11.7498-11.7498,20.9755-25.434,27.4208-40.6724,6.6743-15.7802,10.0586-32.5387,10.0586-49.8109s-3.3843-34.0307-10.0586-49.8108ZM100.2359,158.4866c0-10.0197,1.146-19.8286,3.4013-29.3395h52.3551v60.866h-51.9418c-2.5333-10.3581-3.8146-20.9038-3.8146-31.5265ZM194.5643,74.3531c9.242,10.8061,16.5995,22.5761,21.868,34.9825.9713,2.2874,1.8629,4.6008,2.6924,6.9336h-50.2545V50.6251c6.0305,4.3297,15.8557,12.2251,25.6941,23.728ZM155.9923,51.8855v64.3837h-48.5526c.7973-2.2431,1.6529-4.4681,2.5815-6.669,5.2186-12.367,12.5123-24.1068,21.6787-34.8934,9.0198-10.6139,18.1236-18.2287,24.2924-22.8213ZM155.9923,202.891v69.0962c-6.1251-5.3142-14.9606-13.8066-23.7987-25.1867-9.3062-11.9832-16.714-24.71-22.0176-37.8273-.8155-2.0171-1.5807-4.0452-2.2968-6.0822h48.1131ZM168.8702,273.4314v-70.5404h49.8139c-.6879,1.9571-1.4189,3.9062-2.1988,5.8449-5.2606,13.0779-12.6138,25.7728-21.8552,37.7318-9.7408,12.6044-19.5749,21.7492-25.7599,26.9637ZM168.8702,190.0131v-60.866h54.0587c2.2555,9.5106,3.401,19.3195,3.401,29.3395,0,10.6223-1.2798,21.1684-3.8131,31.5265h-53.6466ZM236.1287,129.1471h36.5232c3.2028,10.6571,4.864,21.8428,4.864,33.2843,0,9.4183-1.129,18.6621-3.3129,27.5817h-38.4601c2.3037-10.3716,3.465-20.9113,3.465-31.5265,0-9.9895-1.0385-19.7928-3.0792-29.3395ZM243.8085,81.0544c10.3141,10.314,18.4246,22.2433,24.1056,35.2148h-35.2019c-1.2883-4.0459-2.7582-8.0387-4.4264-11.9672-5.7834-13.6193-13.8362-26.5117-23.935-38.3193-5.2223-6.106-10.434-11.2712-15.1829-15.5233,20.5212,4.8598,39.3536,15.3083,54.6406,30.595ZM81.0544,81.0544c15.8514-15.8515,35.515-26.5022,56.9213-31.1115-4.9018,4.3471-10.3263,9.6858-15.761,16.0398-10.0985,11.8076-18.1514,24.7-23.9349,38.3193-1.6683,3.9285-3.138,7.9213-4.4265,11.9672h-36.9047c5.6808-12.9715,13.7915-24.9008,24.1058-35.2148ZM38.83472,129.1471h51.4881c-2.64518,9.5467-3.99142,19.35-3.99142,29.3395,0,10.6152,1.50529,21.1549,4.4915,31.5265h-53.38037c-2.83093-8.9196-2.97373-18.1634-2.97373-27.5817,0-11.4415,2.11965-23.00311,4.36592-33.2843ZM81.0544,243.8085c-11.8087-11.8086-20.7275-25.7341-26.4181-40.9175h39.67c1.167,3.6642,2.4725,7.3029,3.9307,10.9093,5.7484,14.2178,13.7511,27.9783,23.7856,40.8991,6.5543,8.4396,13.0876,15.3853,18.6941,20.7758-22.4679-4.2674-43.1365-15.1409-59.6623-31.6667ZM243.8085,243.8085c-15.9968,15.9969-35.8758,26.6962-57.5103,31.2356,5.5041-5.3273,11.8661-12.1311,18.2449-20.3447,10.0345-12.9208,18.037-26.6813,23.7854-40.8991,1.4584-3.6064,2.7639-7.2451,3.9309-10.9093h37.967c-5.6907,15.1834-14.6096,29.1089-26.4179,40.9175Z"/>
    </g>
    <rect class="cls-1" x="24.93624" y="129.1471" width="275.54792" height="60.866"/>
    <text class="cls-3" transform="translate(28.87099 188.12995)"><tspan x="0" y="0">WWW</tspan></text>
  </g>
</svg>