<?xml version="1.0" encoding="UTF-8"?>
<svg id="Layer_1" data-name="Layer 1" xmlns="http://www.w3.org/2000/svg" xmlns:xlink="http://www.w3.org/1999/xlink" viewBox="0 0 3446 2584.5">
  <defs>
    <style>
      .cls-1 {
        mask: url(#mask);
      }

      .cls-2 {
        filter: url(#luminosity-noclip);
      }

      .cls-3 {
        fill: #d24a32;
      }

      .cls-4 {
        fill: #e8a36b;
      }

      .cls-5 {
        fill: #d5f5ff;
      }

      .cls-6 {
        fill: #2d133b;
      }

      .cls-7 {
        fill: url(#New_Gradient_Swatch);
      }

      .cls-8 {
        fill: #e29763;
      }

      .cls-9 {
        fill: url(#radial-gradient);
      }

      .cls-10 {
        fill: #6bb9d9;
      }

      .cls-11 {
        fill: #b03321;
      }

      .cls-12 {
        fill: #496087;
      }

      .cls-13 {
        fill: #e7b62c;
      }

      .cls-14 {
        mask: url(#mask-1);
      }

      .cls-15 {
        fill: #e69649;
      }

      .cls-16 {
        fill: url(#_Безымянный_градиент_2);
        mix-blend-mode: multiply;
      }

      .cls-17 {
        fill: #67a6b9;
      }

      .cls-18 {
        fill: #d48b5d;
      }

      .cls-19 {
        fill: #da711d;
      }

      .cls-20 {
        fill: #373c4a;
      }

      .cls-21 {
        fill: #ebaf7d;
      }

      .cls-22 {
        fill: #363b74;
      }

      .cls-23 {
        fill: #538c9f;
      }
    </style>
    <radialGradient id="radial-gradient" cx="-1637.51396" cy="-9748.4814" fx="-1637.51396" fy="-9748.4814" r="3706.18209" gradientTransform="translate(616.08031 -8589.44841) rotate(-180)" gradientUnits="userSpaceOnUse">
      <stop offset="1" stop-color="#1f3594"/>
      <stop offset="1" stop-color="#0b1157"/>
    </radialGradient>
    <filter id="luminosity-noclip" x="679.78673" y="-136.96701" width="6613.44754" height="2592" color-interpolation-filters="sRGB" filterUnits="userSpaceOnUse">
      <feFlood flood-color="#fff" result="bg"/>
      <feBlend in="SourceGraphic" in2="bg"/>
    </filter>
    <filter id="luminosity-noclip-2" x="679.78673" y="-3897.2758" width="6613.44754" height="32766" color-interpolation-filters="sRGB" filterUnits="userSpaceOnUse">
      <feFlood flood-color="#fff" result="bg"/>
      <feBlend in="SourceGraphic" in2="bg"/>
    </filter>
    <mask id="mask-1" x="679.78673" y="-3897.2758" width="6613.44754" height="32766" maskUnits="userSpaceOnUse"/>
    <linearGradient id="_Безымянный_градиент_2" data-name="Безымянный градиент 2" x1="-198.36352" y1="-10559.01379" x2="-6726.9588" y2="-9416.59717" gradientTransform="translate(616.08031 -8589.44841) rotate(-180)" gradientUnits="userSpaceOnUse">
      <stop offset="0" stop-color="#333"/>
      <stop offset=".20582" stop-color="#353535"/>
      <stop offset=".35069" stop-color="#3f3f3f"/>
      <stop offset=".47694" stop-color="#4e4e4e"/>
      <stop offset=".59247" stop-color="#646464"/>
      <stop offset=".70079" stop-color="#818181"/>
      <stop offset=".80361" stop-color="#a3a3a3"/>
      <stop offset=".90176" stop-color="#cdcdcd"/>
      <stop offset=".99473" stop-color="#fcfcfc"/>
      <stop offset="1" stop-color="#fff"/>
    </linearGradient>
    <mask id="mask" x="679.78673" y="-136.96701" width="6613.44754" height="2592" maskUnits="userSpaceOnUse">
      <g class="cls-2">
        <g class="cls-14">
          <path class="cls-16" d="M7293.23427,2455.03299H679.78673s886.97678-210.24,1248.39-1272.96c4.23562-12.4537,8.55288-24.79637,12.94733-37.02931C2217.84454,374.74203,2950.87625-136.96701,3769.32229-136.96701h3523.91198v2592Z"/>
        </g>
      </g>
    </mask>
    <radialGradient id="New_Gradient_Swatch" data-name="New Gradient Swatch" cx="-3370.43019" cy="-9748.4814" fx="-3370.43019" fy="-9748.4814" r="2511.37792" gradientTransform="translate(616.08031 -8589.44841) rotate(-180)" gradientUnits="userSpaceOnUse">
      <stop offset=".00722" stop-color="#1f3594"/>
      <stop offset="1" stop-color="#0b1157"/>
    </radialGradient>
  </defs>
  <g>
    <path class="cls-9" d="M-2786.04573,2378.71299v220.32H7293.23427V-280.96701h-4092.9673c-650.93126,0-1249.15565,363.87562-1542.69202,944.90582-42.29726,83.72246-78.69658,172.0813-106.65,264.69418-303.81898,1006.56-1136.07994,1277.28-1948.18088,1311.84-812.10224,34.56-2388.78981,138.24-2388.78981,138.24Z"/>
    <g class="cls-1">
      <path class="cls-7" d="M7293.23427,2455.03299H679.78673s886.97678-210.24,1248.39-1272.96c4.23562-12.4537,8.55288-24.79637,12.94733-37.02931C2217.84454,374.74203,2950.87625-136.96701,3769.32229-136.96701h3523.91198v2592Z"/>
    </g>
    <path class="cls-20" d="M3461.80165,2204.89919H-27.58895c-2.918,0-5.3047-2.2236-5.3047-4.9414h0c0-2.7178,2.3867-4.9424,5.3047-4.9424h3489.3906c2.917,0,5.3047,2.2246,5.3047,4.9424h0c0,2.7178-2.3877,4.9414-5.3047,4.9414Z"/>
  </g>
  <g>
    <path class="cls-17" d="M1536.61615,1265.57109l-37.8487-.8687c12.1612,15.7608,14.8907,30.2798,7.3203,42.565-7.5693,12.5341-25.6875,22.8339-52.7402,30.6518,20.4766-54.478,30.7754-111.935,30.7754-170.8808,0-66.0201-12.9053-130.0542-38.4697-190.2408-24.57034-58.2016-59.8145-110.5703-104.7383-155.3696-44.9229-44.9233-97.168-80.166-155.3691-104.8618-60.3106-25.44-124.3448-38.3462-190.2403-38.3462-66.0195,0-130.0537,12.9062-190.3642,38.3462-7.1983,3.1025-14.3955,6.3286-21.3448,9.6797-.0215.0102-.0429.021-.0644.0317-21.0235-6.4155-41.501-11.6733-61.2588-15.6777-99.7363-20.2398-170.5147-6.2515-199.2647,39.3887-27.3593,43.4062-12.4658,108.7465,41.8252,184.9521-.0068.0122-.0136.0244-.0205.0361-7.3222,13.5269-13.8984,27.4258-19.9795,41.8208-4.5918,10.7959-8.6865,21.5923-12.4101,32.6372-102.0069,6.0806-156.6104,24.0328-176.4649,56.5469-23.083,37.8501,8.4375,88.647,109.3291,138.0371,13.8985,6.8252,28.7901,13.5269,44.4268,20.2281,5.2119,45.7919,17.001,90.3427,35.1191,133.0317,24.5713,58.2007,59.8145,110.5698,104.7373,155.4936,44.9239,44.7979,97.168,80.043,155.3702,104.7374,60.3105,25.4394,124.3447,38.3457,190.3642,38.3457,65.8955,0,129.9297-12.9063,190.2403-38.3457,58.2011-24.6944,110.4462-59.9395,155.3691-104.7374,43.6826-43.6826,78.30566-94.5625,102.7529-150.9018,49.7627-10.3003,82.5244-26.4326,95.5547-47.7774,9.0596-14.7675,7.9414-31.1489-2.6064-48.5219ZM1419.84073,1345.61399c-33.13378,5.9561-74.45797,9.4307-122.73148,9.9273-74.9062.9136-160.9355-5.002-251.5967-16.9507,7.629-16.6064,15.1075-33.6719,22.4014-51.125,28.1338,9.4126,55.4365,16.8672,81.4746,22.1504,29.8311,6.0561,57.0537,9.0449,81.3516,9.0449,56.9551,0,97.7617-16.4424,117.9131-48.4326,3.3174-5.27,6.0234-10.8564,8.1074-16.7593h-29.0342c-.4805.8838-.9922,1.7569-1.5273,2.6079-14.9698,23.7632-48.4219,36.0386-95.3936,36.0274-22.4648,0-48.04-2.8037-76.1465-8.5103-24.499-4.9697-50.1904-11.9502-76.6806-20.7422,6.9902-17.4907,13.7871-35.3164,20.3506-53.4135,17.6982-48.7984,32.8496-97.1714,45.1054-143.6236,55.8574,8.2344,115.8057,12.3687,179.5117,12.3687,39.6622,0,80.7862-1.5996,123.2657-4.8037,6.3066,30.5786,9.4931,61.874,9.4931,93.6587,0,61.9243-12.0371,121.9873-35.86422,178.5756ZM814.95105,1587.94709c-14.1211-5.1211-21.289-25.3887-24.8154-41.4893-5.5742-25.4443-6.582-61.1826-2.9141-103.3506,1.8545-21.3257,4.835-44.001,8.8487-67.7178,57.8779,15.4258,115.1953,35.2637,171.0068,59.1719-12.5713,21.6768-25.2832,41.7764-37.9932,59.9971-24.2177,34.7148-47.9013,61.498-68.4892,77.4531-13.0283,10.0967-31.5215,21.0566-45.6436,15.9356ZM979.86225,1411.86749c-58.418-25.1739-118.4795-45.9776-179.1426-62.0371,2.1387-11.0088,4.4824-22.2095,7.0293-33.5811,16.8691,3.8354,33.9765,7.5478,51.2978,11.1216,50.6905,10.3677,101.2578,19.1699,150.7578,26.2915-9.8027,20.2842-19.8105,39.728-29.9423,58.2051ZM870.21575,1309.00519c-19.585-4.0298-38.8858-8.2408-57.8555-12.6128,8.9307-37.1582,19.9004-75.897,32.707-115.3687,66.5723,40.9229,134.2745,74.2124,198.378,97.8374-8.042,19.1992-16.3018,37.9204-24.7393,56.0391-48.6904-6.9844-98.5068-15.648-148.4902-25.895ZM707.62195,807.42559c4.2412,8.6894,10.0987,19.4609,17.9961,31.666,33.6553,52.0122,78.1045,89.7148,109.4658,112.1846,18.0088,12.9028,37.2266,24.8613,57.5977,35.8598-18.5918,40.5132-36.2988,83.7505-52.582,128.646-3.0362,8.3706-5.9883,16.7266-8.8731,25.0645-97.2549-63.3057-179.5957-135.9463-233.6094-206.2466-.0078-.0098-.0146-.0195-.0224-.0288,13.5224-23.0699,29.0273-44.8999,46.3926-65.3653,7.1972-8.4389,14.6435-16.6294,22.4619-24.5717,1.1172-1.1167,2.1093-2.1094,3.2265-3.2261,12.0801-12.0796,24.7491-23.4014,37.9463-33.9824ZM1123.47745,737.27319c14.1211,5.1216,21.2891,25.3892,24.8154,41.4893,5.5742,25.4438,6.5821,61.1826,2.9151,103.3506-4.0147,46.1577-13.2579,98.5835-27.0137,154.4048-16.6123-2.858-32.8389-6.0904-48.6406-9.7247-54.5957-12.5556-104.3672-29.729-148.8135-51.3022,26.5215-55.3101,54.5664-104.6348,82.6055-144.8286,24.2177-34.7153,47.9003-61.4986,68.4892-77.4541,10.7432-8.3252,25.2002-17.2363,37.8594-17.2363,2.6933,0,5.3066.4033,7.7832,1.3012ZM1067.97845,1051.62189c16.1748,3.7553,32.789,7.0888,49.7802,10.0488-11.9375,44.9184-26.6425,91.7012-43.7744,138.938-6.6035,18.2075-13.4414,36.1313-20.4746,53.6987-64.3564-23.6294-132.6621-57.4243-199.8164-99.1685,3.4707-10.146,7.0508-20.3247,10.751-30.5273,15.917-43.8862,33.1924-86.124,51.3066-125.6802,45.6446,22.1221,96.5459,39.7627,152.2276,52.6905ZM1320.81245,841.40799c42.3164,42.3164,75.5742,91.584,98.78023,146.4341,8.27637,19.5957,15.14257,39.6216,20.58787,60.0053-106.1357,7.7608-203.3916,5.3238-290.331-7.2592,13.7959-56.3682,23.0839-109.3941,27.1572-156.231,4.498-51.7207,3.9512-112.9844-17.0195-147.46,4.8603,1.8682,9.7011,3.8145,14.5146,5.8536,54.8506,23.206,104.1162,56.3398,146.3106,98.6572ZM995.30555,706.51439c31.8965,0,63.2676,3.21,93.9336,9.5777-36.1719,15.7456-73.1006,59.5688-101.1328,99.7534-28.6904,41.1269-57.3418,91.4614-84.3955,147.8042-18.2549-9.919-35.5234-20.6333-51.7441-32.1416-53.8106-38.1773-86.0479-78.1524-103.6163-104.9649-9.3271-14.2353-15.6171-26.3628-19.622-35.0654,18.8877-13.435,38.748-25.4336,59.5146-35.9092.0059.002.0127.0035.0186.0059,8.4541-4.2671,17.0742-8.2588,25.8232-12.0054.6348-.27,1.2637-.5498,1.9014-.8183.1435-.065.2949-.1216.4404-.1861,1.8672-.789,3.7402-1.5561,5.6182-2.3159.5029-.1987,1.0156-.4023,1.5107-.6006,54.4785-21.9648,112.3076-33.1338,171.75-33.1338ZM545.46375,764.13939c14.9697-23.7632,48.4219-36.0273,95.3926-36.0273,22.4658,0,48.041,2.8042,76.1475,8.5107,10.6709,2.1602,21.5703,4.7022,32.6552,7.6265.0098.0024.0196.0054.0293.0078-36.4726,21.0933-69.9687,46.8989-100.1172,77.1709-6.3281,6.2051-12.4091,12.6582-18.3652,19.3589-7.4463,8.1909-14.5195,16.7534-21.3447,25.4404-10.9209,13.8985-20.9727,28.418-30.2803,43.3096-.0068.0127-.0146.0254-.0225.0371-41.5058-61.6269-53.9834-113.8838-34.0947-145.4346ZM570.89445,987.84209c4.0957-9.4312,8.3144-18.7388,12.9053-27.7974.0039-.0078.0087-.0151.0117-.0234,56.8769,71.0908,140.709,143.7651,238.6582,206.7939-13.8887,42.2705-25.7383,83.8135-35.3008,123.626-71.2607-17.2402-137.3027-36.75-195.1777-57.6318-12.1621-4.3433-23.9502-8.8111-35.2442-13.2784-6.7011-2.6064-13.2783-5.3359-19.7314-8.0659-.9922-9.9282-1.7373-19.98-1.9854-30.0317-.124-4.8404-.248-9.5552-.248-14.395,0-5.585.124-11.2935.248-16.8775,1.6133-41.8208,8.6866-82.6484,21.0967-122.1113,2.1094-6.7012,4.3428-13.2788,6.8252-19.8555,2.4824-6.8257,5.0889-13.6509,7.9424-20.352ZM487.87295,1189.37579c-87.9844-42.9385-128.1914-84.3863-110.1973-113.7969,14.5196-23.8272,67.3848-39.9595,148.2959-45.916-9.9277,33.5063-16.0088,68.1289-18.3672,103.2485-.7441,10.4238-1.1162,20.8482-1.2402,31.396v2.731c0,10.5478.3721,21.0962.9922,31.52-6.7012-2.978-13.1543-6.0806-19.4834-9.1826ZM554.63755,1242.11649c11.9131,4.4673,24.0752,8.9346,36.6094,13.2788,57.6153,19.9648,122.2031,38.5205,191.2891,54.9839-2.5088,11.1938-4.8223,22.2261-6.9473,33.0849-5.6455-1.3696-11.2949-2.7104-16.9482-3.997-95.5127-21.7403-167.1865-26.1626-200.4102-26.9121-8.2304-24.7886-14.2812-50.1426-18.1123-76.023,4.8399,1.8623,9.6797,3.7227,14.5195,5.5845ZM570.89445,1346.23419c-1.0371-2.4639-2.0469-4.9351-3.0401-7.4107,35.4346,1.4258,101.126,6.794,185.0391,25.8941,6.0049,1.3667,12.0049,2.7988,18.002,4.2607-4.3194,25.1895-7.5059,49.2612-9.4737,71.8848-3.7275,42.8662-3.9922,92.289,7.9639,127.583-36.3897-20.4864-69.7617-45.8291-99.71-75.7774-42.3173-42.3174-75.5752-91.584-98.7812-146.4345ZM1174.50185,1591.32599c-56.8359,24.0742-117.0234,36.2353-179.1963,36.2353-47.8945,0-94.6816-7.2246-139.6289-21.5449,34.0635-17.8535,68.2881-58.8584,94.6465-96.6416,13.5947-19.4883,27.1797-41.0537,40.5918-64.332,77.3291,35.0195,151.6836,78.041,221.5293,128.1621-12.3233,6.5859-24.9746,12.6347-37.9424,18.1211ZM1320.81245,1492.66869c-25.4522,25.5264-53.4815,47.7041-83.753,66.3848-73.3691-53.625-151.7617-99.5234-233.4326-136.6787,11.2285-20.5733,22.294-42.3032,33.0977-64.9873,74.7548,9.9067,146.624,15.8511,212.2353,17.3887,17.126.4965,33.7539.4965,49.8867.372,41.8203-.4961,79.0498-2.9785,110.94242-7.4458-22.33692,46.2881-52.24412,88.2329-88.97652,124.9663Z"/>
    <g>
      <path class="cls-22" d="M2471.65225,1204.87189s92.0596,90.5996,96.2715,124.7627c4.2119,34.163-41.7549,87.6059-41.7549,87.6059l-54.5166-212.3686Z"/>
      <path class="cls-22" d="M2438.42565,2145.87769s-2.9853,48.1651-12.3037,48.8545c-1.2392.0918-47.26172.0918-47.26172.0918l-58.749-.3408s.3838-14.1553,17.5566-17.1475c17.1729-2.9931,45.917-15.0625,56.3194-37.7597,10.9443-23.878,44.43842,6.3017,44.43842,6.3017Z"/>
      <path class="cls-22" d="M2569.28115,2145.87769s-2.9863,48.1651-12.3037,48.8545c-1.2402.0918-47.2617.0918-47.2617.0918l-58.75-.3408s.3847-14.1553,17.5576-17.1475c17.1719-2.9931,45.916-15.0625,56.3193-37.7597,10.9434-23.878,44.4385,6.3017,44.4385,6.3017Z"/>
      <path class="cls-23" d="M2373.36223,1628.24199s15.3652,98.2715,72.68452,272.7207c57.3194,174.4502,65.1309,249.9912,65.1309,249.9912l61.4912-1.7236s.5234-190.6524-25.8926-278.376c-26.416-87.7246-5.7011-316.2549-5.7011-316.2549l-167.71292,73.6426Z"/>
      <path class="cls-17" d="M2343.43935,1559.98319s-2.17582,148.0898,23.44628,329.918c25.6221,181.8281,16.9365,259.0126,16.9365,259.0126l61.36822,2.0401s36.6728-181.8965,26.1592-272.9053c-10.5157-91.0098,50.2187-312.2939,50.2187-312.2939l-178.1289-5.7715Z"/>
      <path class="cls-21" d="M2462.23625,1213.43289l-28.9434,21.437-41.83102-8.8057c.5791-3.8154,3.3408-19.625,5.8554-33.9453.1514-.8447.3037-1.6889.4463-2.5146,2.1533-12.1846,4.0137-22.6519,4.0137-22.6519l39.06932-19.4726,14.5664-7.2598c-.038.2559-1.1289,13.5229-1.2812,15.4585-2.7324,34.3906,8.1045,57.7544,8.1045,57.7544Z"/>
      <path class="cls-23" d="M2394.38953,1202.61649c.917-.3862,56.90232-16.9072,62.98442-14.8989,6.082,2.0078,9.6836,13.7753,9.6836,13.7753l-91.5752,20.7037s7.208-14.6548,18.90718-19.5801Z"/>
      <path class="cls-12" d="M2545.14835,1578.26539c-9.4902,43.292-167.42772,48.4258-208.13872,9.1289-4.6308-4.4795-4.8584-25.3193-3.11228-53.418,3.416-54.8974,14.38668-137.4775,14.81348-179.6689.209-20.3745,3.0088-41.2134,6.7373-60.1357,7.9336-40.3316,20.03322-71.98,20.03322-71.98,0,0,77.1416-24.9385,91.5762-20.6968,69.54,20.4312,87.5801,333.4775,78.0908,376.7705Z"/>
      <path class="cls-22" d="M2333.89735,1533.97629c3.416-54.8974,14.38668-137.4775,14.81348-179.6689.209-20.3745,3.0088-41.2134,6.7373-60.1357l46.4053-8.1895s45.37012,185.3145-67.95608,247.9941Z"/>
      <path class="cls-21" d="M2359.02623,1457.45579s3.16312,7.5616-3.4795,12.6387c-6.6425,5.0762-10.9502,13.3008-9.4297,19.3106,1.5215,6.0097,16.0928,15.8154,21.1436,14.2343,5.0518-1.581,15.332-9.498,14.2246-12.6689-1.1064-3.169,6.915-27.8203-5.3994-37.3106-12.31448-9.4892-17.0596,3.7959-17.0596,3.7959Z"/>
      <path class="cls-12" d="M2410.82413,1212.58329s-45.1651,6.9707-81.2256,60.1133c-36.0615,53.1421-59.7861,92.6518-53.1426,111.8046,6.6426,19.1529,67.19342,85.5806,77.6328,85.5806,10.4385,0,27.2842-7.5918,28.2334-24.6728,0,0-42.63178-63.8936-34.2334-73.4629,3.5889-4.0894,55.3457-46.1074,62.7354-27.1284,12.22563,31.4028,0-132.2344,0-132.2344Z"/>
      <path class="cls-4" d="M2451.20015,1156.28539c-8.5792,16.4175-40.54993,30.6143-53.88292,35.8335.1514-.8447.3037-1.6889.4463-2.5146,2.1533-12.1846,4.0137-22.6519,4.0137-22.6519l39.06932-19.4726c8.6348-.1333,13.8926,2.0493,10.3536,8.8056Z"/>
      <path class="cls-21" d="M2382.79183,1164.66529s70.48542,21.9873,83.50202-22.1177c13.0176-44.1054,30.8809-70.9716-13.5723-86.875-44.45212-15.9033-58.20312-1.666-66.12792,11.9991-7.9258,13.6645-21.8018,90.1377-3.8018,96.9936Z"/>
      <path class="cls-6" d="M2397.64735,1065.10529s4.06938,52.9492,14.72457,50.5585c10.65733-2.3911,20.31943-4.1782,18.62993,11.8077-1.6885,15.9853-16.59183,34.5556,16.169,37.1025,32.7597,2.5474,80.6074-84.9463,71.7382-101.3603-25.5947-47.3584-158.34182-55.8331-121.2617,1.8916Z"/>
    </g>
    <g>
      <g>
        <path class="cls-8" d="M2895.03215,1549.05059s-27.0352,6.9423-44.2207,1.7656c-17.1865-5.1777-46.7637,3.3252-51.5274,9.5918-4.7627,6.2676-3.0136,8.7568,5.4864,10.9199,8.499,2.1621,38.6123,15.0059,58.4033,7.5733,19.791-7.4346,45.6045-7.7041,45.6045-7.7041l-13.7461-22.1465Z"/>
        <path class="cls-23" d="M3128.68055,1314.20539s-30.3701,215.851-80.6582,235.185c-24.8135,9.5391-134.4765,31.1631-166.917,33.335,0,0-7.9453-6.4463-6.0097-32.6866,0,0,114.8945-42.1806,131.2168-65.1201,24.2919-34.1406-15.0811-139.4726,15.4013-171.5371,30.4824-32.0639,81.8213-45.8447,106.9668.8238Z"/>
      </g>
      <path class="cls-3" d="M3124.80165,2146.30349v-47.4688h74.0938c1.999,0,3.6347-1.6357,3.6347-3.6357v-7.5391c0-2-1.6357-3.6357-3.6347-3.6357h-74.0938v-267.9014c0-7.5166-6.1504-13.6679-13.667-13.6679h-14.6631c-7.5175,0-13.6679,6.1513-13.6679,13.6679v267.9014h-74.0928c-2,0-3.6357,1.6357-3.6357,3.6357v7.5391c0,2,1.6357,3.6357,3.6357,3.6357h74.0928v47.4688c-53.6123,4.0508-96.5596,23.3623-108.6084,48.2988h259.2148c-12.0488-24.9365-54.9951-44.248-108.6084-48.2988Z"/>
      <path class="cls-22" d="M3118.44615,1768.96169c-8.8593,15.0283-19.1054,29.1104-29.6669,42.4463-32.6416,41.207-68.1729,75.1826-74.3633,107.2988-1.2285,6.4004-3.1836,13.293-5.7373,20.5557-2.585,7.3564-5.7803,15.0908-9.4688,23.0879-13.8506,30.0879-34.5654,63.8008-55.2461,94.4453-35.7519,52.9775-69.3711,97.1816-69.3711,97.1816l-61.6533-2.6269c2.4688-6.1787,29.3584-79.3262,65.3311-168.7168,14.6084-36.2891,30.1406-74.8887,45.1259-112.1114,1.9981-4.9716,3.9942-9.9209,5.9707-14.8291,4.5811-11.3916,9.0899-22.6044,13.4922-33.5234,33.7764-83.9365,60.6807-150.7744,60.6807-150.7744,0,0,134.999-51.1397,149.0185-18.002,11.5606,27.3233,2.1446,54.0899-34.1123,115.5684Z"/>
      <path class="cls-22" d="M2872.66595,2142.76739s-3.0176,51.1201-12.8604,51.8496c-1.3086.0967-112.5967,0-112.5967,0,0,0,.8868-15.46,19.0264-18.6201,18.1397-3.1622,48.502-15.9102,59.4902-39.8848,11.5596-25.2217,46.9405,6.6553,46.9405,6.6553Z"/>
      <path class="cls-22" d="M3015.42865,1997.42559s42.8838,27.5556,38.7226,36.5058c-.5537,1.1905-24.2519,43.6358-24.2519,43.6358l-30.5664,54.0078s-12.8584-7.6436-6.7754-25.0225c6.083-17.3799,9.7529-50.1035-5.8233-71.3857-16.3857-22.3897,28.6944-37.7412,28.6944-37.7412Z"/>
      <path class="cls-12" d="M2958.47745,1646.53589s-170.5195,106.1367-189.4356,177.0703c-18.916,70.9326,225.4083,222.2569,225.4083,222.2569,0,0,26.7978-23.6446,31.5263-40.9844,0,0-110.4385-132.3115-134.3935-161.9707-14.7129-18.2168,217.54-63.0567,245.913-107.1934,28.3741-44.1367,18.2159-81.2705,18.2159-81.2705l-197.2344-7.9082Z"/>
      <rect class="cls-11" x="2917.79095" y="1782.65989" width="372.0234" height="94.5821" rx="12.6113" ry="12.6113"/>
      <path class="cls-8" d="M3117.83685,1273.47629s-67.2901,37.6187-107.8916,27.1192c0,0,9.1787-13.0816,25.8183-23.3897-.8896-3.9492-1.665-7.6689-2.333-11.1308-3.8828-19.8228-4.5801-31.355-4.5801-31.355l31.001-27.7783c8.5772,1.8169,16.5899,3.519,20.8457,4.4175.4014,2.0463.8408,4.0351,1.3389,5.9863,9.6767,38.5747,35.8008,56.1308,35.8008,56.1308Z"/>
      <path class="cls-17" d="M3160.82905,1468.87379c-5.8135,78.2119,1.8369,197.1475-4.7608,217.7461-5.7002,17.7764-70.5615,7.209-96.456,1.2813-9.5821-2.2002-21.1905-5.336-33.1719-9.0459-33.4395-10.3565-69.8828-25.1397-73.793-36.1182-.1445-.4307-.2773-.8506-.3545-1.2627v-.0186c-.0664-.2773-.1142-.5546-.1523-.8222-.1729-1.291-.0674-2.5147.2197-3.7578,1.3008-5.5938,6.3213-11.6465,6.9131-25.503.6601-15.4619.5644-33.6787,1.1475-53.2627.0293-2.208.0585-4.6181.2968-6.8086l.0098-.8027c.0098-.4209.0195-.832.0293-1.2529.5635-21.8399,1.71-44.8096,3.0312-67.5772.8409-14.3056,1.8155-28.4765,2.9356-42.0459,2.915-35.0366,6.8457-66.1904,12.0478-85.8799,8.501-32.1103,27.2442-53.0517,44.3125-68.3999l12.336-10.5854c13.7685,3.0122,30.0537,1.0137,44.7803-5.9663,15.9306-7.564,21.4394-12.9859,24.2109-10.94,36.8066,28.4004,63.2851,115.418,56.418,211.0225Z"/>
      <path class="cls-23" d="M3026.44035,1678.85529c-33.4395-10.3565-69.8828-25.1397-73.793-36.1182-.1445-.4307-.2773-.8506-.3545-1.2627v-.0186c0-.2675-.0566-.5449-.1523-.8222-.1729-1.291-.0674-2.5147.2197-3.7578,1.3008-5.5938,6.3213-11.6465,6.9131-25.503.6601-15.4619.5644-33.6787,1.1475-53.2627.0293-2.208.0585-4.6181.2968-6.8086l.0098-.8027c.0098-.4209.0195-.832.0293-1.2529l126.3184-57.2881s7.2773,101.8008-60.6348,186.8975Z"/>
      <path class="cls-18" d="M3082.03605,1217.34549c-4.5908,11.5986-18.3311,38.9473-48.6055,48.7295-3.8828-19.8228-4.5801-31.355-4.5801-31.355l31.001-27.7783c8.5772,1.8169,16.5899,3.519,20.8457,4.4175.4014,2.0463.8408,4.0351,1.3389,5.9863Z"/>
      <path class="cls-8" d="M3016.58685,1234.41919s66.5244,7.5034,70.5595-33.9966c4.0342-41.499,15.3389-68.4799-26.9648-75.0258-42.3027-6.545-52.1074,8.4873-56.8232,22.0112-4.7168,13.5244-3.9717,83.9902,13.2285,87.0112Z"/>
      <path class="cls-6" d="M3086.86025,1203.28689s-4.2187-55.0864-64.7734-60.792c-41.4776-3.9082-18.3516-39.6069-13.9317-45.3003,0,0,31.7783,4.3565,64.3526,9.7388,68.3672,11.2959,21.0664,87.7778,14.3525,96.3535Z"/>
      <polygon class="cls-19" points="2927.01555 1591.38059 2762.17375 1594.90119 2715.30755 1450.66579 2709.48425 1452.55839 2759.02825 1605.03489 2927.23035 1601.44309 2927.01555 1591.38059"/>
      <g>
        <path class="cls-8" d="M2908.94525,1582.23419s-26.1055,9.8818-43.7578,6.6318c-17.6514-3.252-46.1114,8.4609-50.1543,15.2139-4.044,6.7539-2.0313,9.0351,6.6562,10.248,8.6865,1.2129,40.0313,10.6582,58.8818,1.0889,18.8516-9.5713,44.4776-12.6856,44.4776-12.6856l-16.1035-20.497Z"/>
        <path class="cls-17" d="M3115.27825,1323.06279s-6.3877,217.8833-54.2383,242.643c-23.6113,12.2178-130.2207,45.7998-162.2236,51.5352,0,0-8.6084-5.5313-9.5782-31.8252,0,0,109.545-54.5898,123.2383-79.1895,20.3799-36.6103-30.3652-136.9594-3.6035-172.1894,26.7607-35.2285,76.2676-54.5859,106.4053-10.9741Z"/>
      </g>
    </g>
    <g>
      <g>
        <path class="cls-19" d="M1310.36705,1341.85919l-67.5996,803.7685s-7.083,48.7236,29.1592,48.8096c59.5889.1426,296.5918,0,296.5918,0,0,0-44.8476-10.1426-44.3047-32.9619.6406-26.8994,79.0098-827.2232,79.0098-827.2232l-292.8565,7.607Z"/>
        <path class="cls-15" d="M1587.74795,2179.85529c-11.7197.0341-238.0869.7441-296.1162,0-25.291-.3155-29.7246-22.4864-29.9346-36.836-.1045-6.8789.7686-11.9648.7686-11.9648l1.7568-20.8907,4.4805-53.246,3.958-47.043,5.0859-60.4502,4.2823-51.0225,48.0322-571.1333,292.85839-7.6001s-33.0069,334.9307-56.35349,578.7334c-2.6075,27.1641-5.086,53.211-7.3789,77.5235-.7452,7.7627-1.4541,15.3515-2.1534,22.7412-2.164,23.0674-4.1425,44.25-5.8652,62.9531-.9082,9.8574-1.7461,19.0166-2.502,27.4082-2.9794,32.8789-4.7255,53.874-4.749,57.8662-.0117,2.3281.1856,4.4922.5703,6.5059,4.8067,25.6172,38.8614,26.4551,43.2598,26.4551Z"/>
        <polygon class="cls-13" points="599.14835 904.47779 763.80755 1565.88059 786.35245 1656.46169 863.04185 1964.52419 2287.82603 1964.52419 2005.15814 904.47779 599.14835 904.47779"/>
        <polygon class="cls-15" points="599.14545 904.47679 576.32605 912.08329 832.70495 1987.53489 863.04485 1964.52809 599.14545 904.47679"/>
        <polygon class="cls-19" points="832.70495 1987.53489 2248.71863 1987.53489 2287.82113 1964.52809 863.04485 1964.52809 832.70495 1987.53489"/>
        <rect class="cls-13" x="1329.96675" y="2180.17559" width="306.58779" height="14.5683"/>
        <polygon class="cls-13" points="2218.80163 1769.19409 1987.61314 918.49249 596.86905 918.49249 596.86905 904.47679 2005.15714 904.47679 2235.57313 1767.30349 2218.80163 1769.19409"/>
        <polygon class="cls-19" points="1558.61705 1987.52909 1557.03405 1998.66679 1268.70305 2056.91779 1272.66105 2009.87479 1274.54585 1987.52909 1558.61705 1987.52909"/>
        <path class="cls-19" d="M1587.74795,2179.85529c-11.7197.0341-238.0869.7441-296.1162,0-25.291-.3155-29.7246-22.4864-29.9346-36.836l286.9697-53.9912c-2.9794,32.8789-4.7255,53.874-4.749,57.8662-.0117,2.3281.1856,4.4922.5703,6.5059,4.8067,25.6172,38.8614,26.4551,43.2598,26.4551Z"/>
        <polygon class="cls-19" points="1488.92865 1749.93139 863.04485 1964.52809 786.35245 1656.46169 1488.92865 1749.93139"/>
        <polygon class="cls-3" points="599.14545 904.47679 2005.15714 904.47679 2233.28403 1756.42169 803.99505 1756.42169 599.14545 904.47679"/>
      </g>
      <path class="cls-19" d="M1613.20595,1864.11889c-4.0615-20.8935-24.291-37.832-45.1846-37.832s-34.538,16.9385-30.4775,37.832c4.0615,20.8926,24.291,37.8311,45.1846,37.8311s34.539-16.9385,30.4775-37.8311Z"/>
      <polygon class="cls-5" points="2166.97254 1719.50369 850.51945 1719.50369 701.43345 1125.59549 690.00575 1080.05059 680.25085 1041.20289 657.38755 950.11159 1954.86614 950.11159 1979.97544 1041.20289 1990.68544 1080.05059 2003.24014 1125.59549 2166.97254 1719.50369"/>
      <polygon class="cls-10" points="1979.97544 1041.20289 680.25085 1041.20289 657.38755 950.11159 1954.86614 950.11159 1979.97544 1041.20289"/>
      <g>
        <path class="cls-5" d="M719.61125,979.89139c-6.2891,0-10.1162,5.0976-8.5479,11.3872,1.5674,6.2886,7.9366,11.3872,14.2256,11.3872s10.1162-5.0986,8.5479-11.3872c-1.5674-6.2896-7.9366-11.3872-14.2256-11.3872Z"/>
        <path class="cls-5" d="M757.44615,979.89139c-6.289,0-10.1152,5.0976-8.5478,11.3872,1.5684,6.2886,7.9375,11.3872,14.2266,11.3872s10.1162-5.0986,8.5478-11.3872c-1.5684-6.2896-7.9375-11.3872-14.2266-11.3872Z"/>
        <path class="cls-5" d="M812.41395,991.27859c-1.5683-6.2896-7.9375-11.3872-14.2265-11.3872s-10.1163,5.0976-8.5479,11.3872c1.5684,6.2886,7.9375,11.3872,14.2266,11.3872s10.1152-5.0986,8.5478-11.3872Z"/>
      </g>
      <g>
        <g>
          <path class="cls-12" d="M1754.48135,1307.28049c-9.50391-38.1191-48.27831-69.1318-86.43361-69.1318-18.3975,0-34.0771,7.0986-44.1475,19.9888-10.4892,13.4262-13.6386,31.3589-8.8681,50.4941,9.5049,38.1196,48.2783,69.1323,86.4336,69.1323,18.3984,0,34.0771-7.0991,44.1474-19.9882,10.4893-13.4268,13.6397-31.3594,8.86821-50.4952ZM1741.21185,1354.33719c-8.9893,11.5058-23.10449,17.8418-39.7461,17.8418-35.749,0-72.0928-29.1133-81.0147-64.8985-4.34569-17.4306-1.5576-33.6626,7.8506-45.705,8.9893-11.5054,23.1045-17.8413,39.7461-17.8413,35.75,0,72.0928,29.1128,81.0147,64.8974,4.3457,17.4312,1.5576,33.6631-7.8506,45.7056Z"/>
          <polygon class="cls-12" points="1693.52825 1323.56469 1686.57995 1274.97149 1686.03215 1272.77319 1666.46275 1272.77319 1667.01065 1274.97149 1684.29285 1323.56469 1693.52825 1323.56469"/>
          <polygon class="cls-12" points="1682.14345 1332.13989 1686.52925 1349.72979 1704.33975 1349.72979 1699.95405 1332.13989 1682.14345 1332.13989"/>
        </g>
        <g>
          <path class="cls-12" d="M1796.97935,1472.36789c-9.50481-38.1191-48.27921-69.1323-86.43351-69.1323-18.39849,0-34.0772,7.0991-44.14749,19.9878-10.49021,13.4278-13.63971,31.3604-8.86911,50.4951,9.5048,38.1192,48.2783,69.1319,86.4335,69.1319,18.3985,0,34.0772-7.0977,44.1475-19.9873,10.4902-13.4278,13.6397-31.3594,8.86911-50.4952ZM1783.70885,1519.42459c-8.9882,11.5049-23.10449,17.8418-39.7461,17.8418-35.749,0-72.0918-29.1143-81.0136-64.8985-4.3467-17.4316-1.5586-33.663,7.8506-45.706,8.9882-11.5054,23.1035-17.8408,39.7461-17.8408,35.749,0,72.0918,29.1133,81.0136,64.8974,4.3467,17.4317,1.5586,33.6631-7.8506,45.7061Z"/>
          <polygon class="cls-12" points="1736.02525 1488.65209 1729.07705 1440.05839 1728.52925 1437.86009 1708.95985 1437.86009 1709.50865 1440.05839 1726.79095 1488.65209 1736.02525 1488.65209"/>
          <polygon class="cls-12" points="1724.64155 1497.22629 1729.02625 1514.81719 1746.83685 1514.81719 1742.45105 1497.22629 1724.64155 1497.22629"/>
        </g>
        <g>
          <path class="cls-10" d="M1942.66004,1286.05539c4.3272,0,6.9844-3.54,5.90631-7.8662-1.07911-4.3271-5.501-7.8667-9.82911-7.8667h-140.0977c-4.3271,0-6.9844,3.5396-5.9053,7.8667,1.07911,4.3262,5.501,7.8662,9.8282,7.8662h140.0976Z"/>
          <path class="cls-10" d="M1925.31824,1174.30109c-1.0781-4.3267-5.501-7.8667-9.8271-7.8667h-140.0996c-4.32619,0-6.9834,3.54-5.9053,7.8667,1.07911,4.3266,5.5019,7.8667,9.82811,7.8667h140.09859c4.3262,0,6.98441-3.5401,5.9053-7.8667Z"/>
          <path class="cls-10" d="M1950.13174,1316.02319c4.3281,0,6.9844-3.54,5.9062-7.8667-1.0791-4.3261-5.5019-7.8667-9.8281-7.8667h-140.0986c-4.3262,0-6.9844,3.5406-5.9053,7.8667,1.0791,4.3267,5.501,7.8667,9.8281,7.8667h140.0977Z"/>
          <path class="cls-10" d="M1963.50864,1338.12379c-1.0781-4.3262-5.5009-7.8662-9.8271-7.8662h-140.0986c-4.3262,0-6.9834,3.54-5.9053,7.8662,1.0791,4.3267,5.501,7.8667,9.8281,7.8667h140.09861c4.32619,0,6.98439-3.54,5.90429-7.8667Z"/>
          <path class="cls-10" d="M1985.15814,1451.14239c4.3261,0,6.9843-3.5401,5.90521-7.8672-1.07911-4.3262-5.50191-7.8662-9.82711-7.8662h-140.0996c-4.3262,0-6.9834,3.54-5.90529,7.8662,1.07909,4.3271,5.502,7.8672,9.82809,7.8672h140.0987Z"/>
          <path class="cls-10" d="M1992.62974,1481.10919c4.3262,0,6.9834-3.5391,5.9053-7.8663-1.0791-4.3261-5.501-7.8662-9.8271-7.8662h-140.09959c-4.32621,0-6.98341,3.5401-5.90531,7.8662,1.0791,4.3272,5.5019,7.8663,9.8281,7.8663h140.0986Z"/>
          <path class="cls-10" d="M2006.00674,1503.21069c-1.0791-4.3261-5.501-7.8672-9.8281-7.8672h-140.0987c-4.3261,0-6.9834,3.5411-5.9043,7.8672,1.0782,4.3272,5.501,7.8662,9.8272,7.8662h140.0986c4.3272,0,6.9834-3.539,5.9053-7.8662Z"/>
        </g>
        <path class="cls-10" d="M1919.42084,1141.23029l-9.7793-39.2198c-1.793-7.1924-9.1456-13.0766-16.3379-13.0766H770.39155c-7.1924,0-11.6094,5.8842-9.8165,13.0766l9.7784,39.2198c1.7939,7.1918,9.1455,13.0766,16.3379,13.0766h1122.913c7.19239,0,11.60939-5.8848,9.81649-13.0766Z"/>
        <path class="cls-12" d="M1566.40715,1088.93439l16.2988,65.3725h-796.0146c-7.1924,0-14.544-5.8848-16.3379-13.0766l-9.7784-39.2198c-1.7929-7.1924,2.6241-13.0761,9.8165-13.0761h796.0156Z"/>
        <polygon class="cls-5" points="1709.40125 1109.59939 1710.65325 1114.62189 1723.07705 1114.62189 1716.59565 1136.03299 1723.16595 1136.03299 1729.52525 1113.97979 1728.43255 1109.59939 1709.40125 1109.59939"/>
        <path class="cls-5" d="M1743.30755,1109.14629c-7.0244,0-10.28519,6.0039-8.3741,13.6699,1.9297,7.7412,8.0528,13.6694,15.1153,13.6694,7.0605,0,10.2842-6.0039,8.373-13.6694-1.9306-7.7417-8.1289-13.6699-15.1142-13.6699ZM1748.81535,1131.23659c-3.51271,0-6.711-3.5874-7.91511-8.4204-1.2246-4.9097.16611-8.4209,3.6397-8.4209,3.4746,0,6.7197,3.625,7.915,8.4209,1.2149,4.8711-.1279,8.4204-3.63959,8.4204Z"/>
        <path class="cls-5" d="M1793.06825,1129.57549c-.9414-3.7769-4.25289-6.7593-8.0674-6.7593-3.85149,0-5.7041,3.02-4.7724,6.7593.9414,3.7758,4.25391,6.7592,8.0674,6.7592,3.85151,0,5.6953-3.0585,4.7724-6.7592ZM1787.51455,1132.89869c-1.5107,0-2.8779-1.5483-3.3203-3.3232-.4522-1.8125.0019-3.3238,1.5879-3.3238,1.5107,0,2.8779,1.5489,3.3213,3.3238.4424,1.7749-.002,3.3232-1.5889,3.3232Z"/>
        <polygon class="cls-5" points="1780.95015 1109.59939 1768.24405 1136.03299 1772.73815 1136.03299 1785.44425 1109.59939 1780.95015 1109.59939"/>
        <path class="cls-5" d="M1773.45985,1116.05639c-.9414-3.7759-4.2539-6.7597-8.0674-6.7597-3.8525,0-5.70409,3.0214-4.7715,6.7597.9415,3.7759,4.252,6.7598,8.0665,6.7598,3.8515,0,5.6943-3.0591,4.7724-6.7598ZM1764.58485,1116.05639c-.4512-1.8125.0029-3.3232,1.5889-3.3232,1.5107,0,2.8779,1.5483,3.3213,3.3232.4424,1.7744-.003,3.3233-1.5889,3.3233-1.50979,0-2.8779-1.5489-3.3213-3.3233Z"/>
        <g>
          <path class="cls-10" d="M1513.79975,1437.64629c8.1582,0,13.122-6.6123,11.0879-14.7701h0c-2.0333-8.1577-10.2959-14.7709-18.4532-14.7709h-654.7705c-8.1582,0-13.1221,6.6132-11.0879,14.7709h0c2.0342,8.1578,10.2959,14.7701,18.4541,14.7701h654.7696Z"/>
          <path class="cls-10" d="M1526.02625,1486.68529c8.1582,0,13.1221-6.6132,11.0879-14.7715-2.0332-8.1572-10.2959-14.7705-18.4531-14.7705h-654.7705c-8.1582,0-13.1221,6.6133-11.0879,14.7705,2.0332,8.1583,10.2959,14.7715,18.4541,14.7715h654.7695Z"/>
          <path class="cls-10" d="M1549.88465,1523.13059c-2.0342-8.1562-10.2959-14.7695-18.4541-14.7695h-654.7705c-8.1572,0-13.1221,6.6133-11.0879,14.7695,2.0342,8.1582,10.2959,14.7715,18.4541,14.7715h654.7705c8.1573,0,13.1221-6.6133,11.0879-14.7715Z"/>
          <path class="cls-10" d="M1155.49405,1357.93779c2.5566,10.2534,12.9404,18.5659,23.1934,18.5659h73.0312c10.2529,0,16.4932-8.3125,13.9365-18.5659l-35.3017-141.5845c-2.5567-10.2539-12.9405-18.5654-23.1934-18.5654h-73.0312c-10.253,0-16.4932,8.3115-13.9366,18.5654l35.3018,141.5845Z"/>
          <path class="cls-10" d="M1281.89545,1357.93779c2.5566,10.2534,12.9404,18.5659,23.1943,18.5659h73.0303c10.2539,0,16.4931-8.3125,13.9365-18.5659l-35.3008-141.5845c-2.5566-10.2539-12.9404-18.5654-23.1943-18.5654h-73.0313c-10.2519,0-16.4922,8.3115-13.9355,18.5654l35.3008,141.5845Z"/>
          <path class="cls-10" d="M1405.93645,1357.93779c2.5566,10.2534,12.94138,18.5659,23.1943,18.5659h73.0303c10.2539,0,16.4932-8.3125,13.9365-18.5659l-35.3008-141.5845c-2.5556-10.2539-12.9404-18.5654-23.1943-18.5654h-73.0303c-10.2529,0-16.4931,8.3115-13.9365,18.5654l35.3008,141.5845Z"/>
        </g>
        <g>
          <path class="cls-10" d="M1130.73915,1345.38599l-29.042-116.4805c-4.2851-17.186-21.6904-31.1176-38.876-31.1176h-247.248c-17.1865,0-27.6445,13.9316-23.3594,31.1176l29.042,116.4805c4.2842,17.1856,21.6904,31.1177,38.876,31.1177h247.248c17.1856,0,27.6446-13.9321,23.3594-31.1177Z"/>
          <g>
            <path class="cls-5" d="M1059.70105,1242.46609c3.8965,0,6.2891-3.1875,5.3174-7.083v-.0005c-.9707-3.8955-4.9531-7.083-8.8486-7.083h-231.0235c-3.8955,0-6.288,3.1875-5.3173,7.083v.0005c.9716,3.8955,4.9541,7.083,8.8496,7.083h231.0224Z"/>
            <path class="cls-5" d="M1066.49405,1269.70929c3.8965,0,6.2881-3.1875,5.3174-7.0835h0c-.9717-3.8955-4.9531-7.083-8.8496-7.083h-231.0225c-3.8955,0-6.2891,3.1875-5.3174,7.083h0c.9717,3.896,4.9531,7.0835,8.8496,7.0835h231.0225Z"/>
            <path class="cls-5" d="M1078.60435,1289.86939c-.9716-3.896-4.9541-7.083-8.8496-7.083h-231.0234c-3.8955,0-6.2881,3.187-5.3174,7.083.9717,3.896,4.9541,7.083,8.8496,7.083h231.0235c3.8955,0,6.288-3.187,5.3173-7.083Z"/>
            <path class="cls-5" d="M900.84265,1313.29859h-54.5029c-3.8965,0-6.2891,3.1875-5.3174,7.083.9707,3.8965,4.9531,7.084,8.8496,7.084h54.503c3.8955,0,6.288-3.1875,5.3173-7.084-.9716-3.8955-4.9531-7.083-8.8496-7.083Z"/>
          </g>
        </g>
        <path class="cls-10" d="M2094.04284,1656.38549l-15.2334-61.0976c-2.247-9.0157-11.3769-16.3223-20.3906-16.3223h-129.6904c-9.0147,0-14.5,7.3066-12.252,16.3223l15.2334,61.0976c2.2471,9.0137,11.377,16.3223,20.3916,16.3223h129.6885c9.0156,0,14.501-7.3086,12.2529-16.3223Z"/>
        <g>
          <path class="cls-5" d="M2056.78214,1602.40019c2.0439,0,3.2988-1.6709,2.789-3.7149-.5097-2.0429-2.5976-3.7148-4.6416-3.7148h-121.1787c-2.0439,0-3.2988,1.6719-2.789,3.7148.5088,2.044,2.5976,3.7149,4.6416,3.7149h121.1787Z"/>
          <path class="cls-5" d="M2060.34464,1616.69119c2.0439,0,3.2988-1.6729,2.79-3.7158-.5097-2.043-2.5986-3.7158-4.6426-3.7158h-121.17868c-2.04291,0-3.29781,1.6728-2.789,3.7158.50969,2.0429,2.59859,3.7158,4.64159,3.7158h121.1787Z"/>
          <path class="cls-5" d="M2066.69714,1627.26539c-.5097-2.0439-2.5986-3.7158-4.6426-3.7158h-121.1787c-2.0429,0-3.2978,1.6719-2.7881,3.7158.5088,2.043,2.5977,3.7149,4.6407,3.7149h121.1787c2.0439,0,3.2988-1.6719,2.79-3.7149Z"/>
          <path class="cls-5" d="M1973.45494,1639.55449h-28.5879c-2.0439,0-3.2988,1.6718-2.789,3.7158h0c.5088,2.0439,2.5976,3.7148,4.6416,3.7148h28.5879c2.0439,0,3.29881-1.6709,2.79-3.7148-.5098-2.044-2.5986-3.7158-4.6426-3.7158Z"/>
        </g>
        <g>
          <g>
            <path class="cls-12" d="M1194.74505,1611.67749c3.0771,0,4.9502-2.4941,4.1826-5.5713h0c-.7676-3.0771-3.8838-5.5722-6.9609-5.5722h-246.9747c-3.0771,0-4.9502,2.4951-4.1826,5.5722h0c.7676,3.0772,3.8838,5.5713,6.96,5.5713h246.9756Z"/>
            <path class="cls-12" d="M1199.35735,1630.17359c3.0771,0,4.9492-2.4941,4.1816-5.5713h0c-.7666-3.0771-3.8838-5.5713-6.9599-5.5713h-246.9756c-3.0772,0-4.9492,2.4942-4.1826,5.5713h0c.7675,3.0772,3.8837,5.5713,6.9609,5.5713h246.9756Z"/>
            <path class="cls-12" d="M1201.39545,1638.35039h-246.9756c-3.0772,0-4.9492,2.4941-4.1817,5.5713.7666,3.0761,3.8828,5.5712,6.961,5.5712h246.9746c3.0771,0,4.9492-2.4951,4.1826-5.5712-.7676-3.0772-3.8838-5.5713-6.9609-5.5713Z"/>
            <path class="cls-12" d="M1513.47545,1611.67749c3.0762,0,4.9493-2.4941,4.1827-5.5713h0c-.7676-3.0771-3.8838-5.5722-6.961-5.5722h-246.9756c-3.0761,0-4.9492,2.4951-4.1826,5.5722h0c.7676,3.0772,3.8848,5.5713,6.961,5.5713h246.9755Z"/>
            <path class="cls-12" d="M1518.08685,1630.17359c3.0771,0,4.9502-2.4941,4.1826-5.5713h0c-.7666-3.0771-3.8838-5.5713-6.961-5.5713h-246.9746c-3.0771,0-4.9502,2.4942-4.1826,5.5713h0c.7676,3.0772,3.8838,5.5713,6.961,5.5713h246.9746Z"/>
            <path class="cls-12" d="M1520.12585,1638.35039h-246.9756c-3.0771,0-4.9492,2.4941-4.1816,5.5713.7666,3.0761,3.8828,5.5712,6.96,5.5712h246.9746c3.0771,0,4.9502-2.4951,4.1836-5.5712-.7676-3.0772-3.8848-5.5713-6.961-5.5713Z"/>
            <path class="cls-12" d="M1822.39835,1611.67749c3.07709,0,4.94919-2.4941,4.18259-5.5713h0c-.76759-3.0771-3.8838-5.5722-6.9609-5.5722h-246.97559c-3.0762,0-4.9492,2.4951-4.1817,5.5722h0c.7666,3.0772,3.8838,5.5713,6.961,5.5713h246.9746Z"/>
            <path class="cls-12" d="M1827.01064,1630.17359c3.0762,0,4.9492-2.4941,4.1816-5.5713h0c-.7666-3.0771-3.8828-5.5713-6.95989-5.5713h-246.9756c-3.0772,0-4.9492,2.4942-4.1826,5.5713h0c.7676,3.0772,3.8838,5.5713,6.9609,5.5713h246.97559Z"/>
            <path class="cls-12" d="M1836.00864,1643.92169c-.7666-3.0772-3.8828-5.5713-6.9599-5.5713h-246.97459c-3.0772,0-4.9502,2.4941-4.1826,5.5713.7666,3.0761,3.8837,5.5712,6.9599,5.5712h246.97559c3.0772,0,4.9492-2.4951,4.1816-5.5712Z"/>
          </g>
          <path class="cls-12" d="M1883.78994,1681.15019h-952.42479c-8.4141,0-16.958-6.8145-19.0459-15.1934l-19.0195-76.2812c-1.083-4.3418-.2979-8.6319,2.1552-11.7705,2.4053-3.0782,6.0879-4.7735,10.3701-4.7735h952.42489c8.413,0,16.958,6.8155,19.0468,15.1934l19.01861,76.2812c1.084,4.3418.29689,8.6319-2.15431,11.7705-2.4053,3.0782-6.0879,4.7735-10.3711,4.7735ZM905.82505,1578.71559c-2.5253,0-4.6455.9346-5.9697,2.6279-1.4062,1.8008-1.8095,4.2803-1.1367,6.9815l19.0195,76.2812c1.4805,5.9405,7.7207,10.96,13.627,10.96h952.42479c2.52641,0,4.6465-.9336,5.9697-2.6279,1.4072-1.8008,1.8115-4.2803,1.13671-6.9815l-19.01851-76.2812c-1.48149-5.9405-7.7227-10.96-13.6279-10.96h-952.42489Z"/>
        </g>
      </g>
    </g>
    <g>
      <path class="cls-10" d="M938.80555,790.46659c-.1504-1.0723-1.1396-1.8169-2.2119-1.6699l-21.3574,2.9868c-.7627-6.7832-4.5928-13.1441-10.916-16.8169l-1.292-.751c-6.6045-3.8359-14.4131-3.8535-20.8506-.7642l-8.4385-21.1635c-.4014-1.0059-1.5439-1.4942-2.5469-1.0943-1.0048.4009-1.4951,1.5406-1.0947,2.5464l8.6699,21.7422c-1.3672.9888-2.6435,2.1245-3.7744,3.4331-.8974,1.0259-1.7031,2.1553-2.4101,3.3726l-2.3477,4.041c-11.0801-6.436-19.3398-11.2339-19.6309-11.4028-.9375-.5445-2.1357-.2251-2.6796.7104-.543.936-.2247,2.1357.7109,2.6792.291.1689,8.5518,4.9668,19.6318,11.4023l-1.333,2.2935c-1.2744,2.1943-2.122,4.5215-2.582,6.8877l-26.8408,3.7534c-1.0723.1499-1.8194,1.1406-1.6699,2.2124.1376.98.9765,1.6885,1.9384,1.6885.0908,0,.1817-.0064.2735-.019l25.8925-3.6211c-.0761,7.77,3.8995,15.3833,11.0616,19.5434l1.292.751c6.8798,3.9961,15.0673,3.8623,21.6484.3779l9.2051,23.085c.3056.7671,1.042,1.2344,1.8203,1.2344.2422,0,.4883-.045.7256-.1397,1.0058-.4014,1.4951-1.541,1.0947-2.5469l-9.4961-23.8144c2.1387-1.6836,4.0029-3.7813,5.4473-6.2686l1.333-2.2934c11.2754,6.5493,19.6328,11.4033,19.6328,11.4033.3096.1802.6475.2656.9824.2656.6758,0,1.333-.3496,1.6963-.9756.5439-.936.2256-2.1352-.71-2.6787,0,0-8.3574-4.854-19.6328-11.4038l2.3467-4.0405c.707-1.2183,1.2881-2.478,1.7402-3.7622.6827-1.9365,1.0723-3.9287,1.2012-5.9229l21.8008-3.0483c1.0723-.1499,1.8193-1.1411,1.6699-2.2124Z"/>
      <path class="cls-12" d="M912.39345,805.41239l-5.6484,9.7231c-6.1533,10.5943-19.8506,14.2256-30.4453,8.0723l-1.292-.751c-10.5899-6.1509-14.2266-19.8511-8.0733-30.4453l5.6485-9.7236c.707-1.2173,1.5127-2.3467,2.4101-3.3726l39.1406,22.7349c-.4521,1.2846-1.0332,2.5439-1.7402,3.7622Z"/>
    </g>
    <g>
      <path class="cls-10" d="M491.09655,1046.33079l-24.664-6.9961c-.0303-2.7211-.5567-5.4785-1.6465-8.1396l-1.0059-2.4546,21.0108-8.6064c1.0009-.4102,1.4814-1.5547,1.0703-2.5562-.4102-1.001-1.5528-1.4809-2.5567-1.0708l-21.0097,8.6065-1.7705-4.3243c-.5342-1.3032-1.1778-2.5317-1.9209-3.6738-1.1182-1.7222-2.46-3.2446-3.9619-4.563l10.8779-19.1377c.5351-.9409.206-2.1372-.7354-2.6723-.9414-.5352-2.1367-.2056-2.6718.7353l-10.6563,18.7471c-5.8408-3.5308-13.2178-4.375-19.9844-1.6035l-1.3838.5669c-7.0673,2.895-11.8427,9.0727-13.3203,16.059l-21.9189-6.2172c-1.042-.2979-2.125.309-2.4199,1.3505-.2959,1.0411.3086,2.1246,1.3506,2.42l22.5185,6.3877c-.0508,1.6865.0713,3.3911.419,5.0849.2666,1.3369.6699,2.6641,1.2031,3.9673l1.7715,4.3237-21.0088,8.6055c-1.001.4107-1.4805,1.5552-1.0703,2.5566.3105.7588,1.042,1.2173,1.8144,1.2173.2471,0,.499-.0473.7412-.1469l21.0088-8.6055,1.0059,2.4546c.9609,2.3481,2.289,4.4399,3.8838,6.2466l-13.3936,23.562c-.5342.9409-.2051,2.1372.7354,2.6723.3066.1739.6386.2559.9668.2559.6826,0,1.3447-.356,1.706-.9912l12.919-22.729c6.1113,4.7988,14.5703,6.2915,22.2343,3.1518l1.3838-.5669c7.3633-3.0166,12.249-9.5869,13.5-16.9277l23.9092,6.7817c.1787.0513.3594.0752.5361.0752.8545,0,1.6397-.5629,1.8848-1.4257.2949-1.0411-.3096-2.1246-1.3516-2.42Z"/>
      <path class="cls-12" d="M460.52435,1020.78929l4.2617,10.4058c4.6435,11.3374-.8301,24.4082-12.168,29.0522l-1.3838.5669c-11.332,4.6416-24.4082-.831-29.0517-12.1684l-4.2627-10.4053c-.5332-1.3032-.9375-2.6304-1.2031-3.9673l41.8867-17.1577c.7431,1.1421,1.3867,2.3706,1.9209,3.6738Z"/>
    </g>
    <g>
      <path class="cls-12" d="M738.51945,1750.34939c-.1563.1084-.3311.2519-.5479.4131-8.2158,6.29-64.0654,44.3847-189.5332,27.5127-.8564,4.8222-1.6552,9.6054-2.4043,14.3203-.3759,2.3652-.75,4.7168-1.0947,7.0498-.3535,2.3057-.6924,4.6016-1.0166,6.8877l-.0215.1221c-.3262,2.2978-.6484,4.5712-.9472,6.8505-.3096,2.2764-.6055,4.543-.8897,6.8106-.292,2.2422-.5547,4.4648-.8174,6.6875l-.0195.1094c-.249,2.2119-.5078,4.4101-.7402,6.6015-.2471,2.1992-.4668,4.3926-.6875,6.585-.2178,2.1816-.4336,4.3496-.6231,6.5107-.1992,2.1455-.3877,4.295-.5605,6.4336-.1309,1.5606-.2608,3.1094-.377,4.6592-.1055,1.2773-.1992,2.5576-.2783,3.8291-.083,1.082-.1533,2.167-.2236,3.251-.0401.5674-.0801,1.1338-.1075,1.7021-.1142,1.8125-.2265,3.6133-.3271,5.417-.1094,1.9248-.207,3.8526-.3027,5.7686-.0176.3711-.0323.7304-.0489,1.1015-.0595,1.4356-.1279,2.8584-.1826,4.2696-.041,1.1279-.0918,2.2402-.1182,3.3584-.124,3.5947-.2119,7.1328-.2724,10.6513-.0293,1.6162-.0567,3.2207-.0684,4.8145-.0176,1.8926-.0293,3.7607-.0273,5.6201-.002.1494-.002.2861-.0039.4346.0088,1.8232.0078,3.6308.0322,5.4316.0049,1.4981.0234,2.9854.0566,4.4629.0079,1.2734.042,2.5391.0782,3.793.0088.4385.0146.8887.0234,1.3262.0371,1.3154.0762,2.6201.1162,3.9248.0459,1.4043.0967,2.7861.1475,4.1669.0674,1.4961.1367,2.9805.208,4.4522.0742,1.7344.165,3.4473.2676,5.1611.0097.1514.0185.3145.0283.4668.0957,1.6885.206,3.3545.3183,5.0215.1202,1.7549.2422,3.4981.3819,5.2188.1367,1.7334.2754,3.455.4316,5.1543.1406,1.7089.2959,3.4082.4678,5.0849.1592,1.6123.3223,3.2012.4971,4.791.0156.1905.0429.3819.0586.5713.1699,1.5528.3437,3.0811.5293,4.6104.1953,1.6201.3916,3.2265.6015,4.8359.0049.0381.0108.0762.0137.127.2139,1.5849.415,3.167.6426,4.7431.2158,1.5723.4433,3.1475.6855,4.7129.0059.0381.0108.0762.0147.127.2363,1.5263.4746,3.041.7138,4.5556.0069.0264.0147.0528.0108.0772.2461,1.541.5088,3.0596.7715,4.5791.2607,1.5303.5351,3.0517.8125,4.5605.3388,1.8565.6826,3.6895,1.04,5.5127.2314,1.1387.4512,2.2754.6846,3.4033.292,1.4249.5879,2.8243.8867,4.2129.043.1827.084.3643.1269.5459.2754,1.3096.5752,2.6231.8662,3.9112.3165,1.4287.6495,2.8349.9942,4.2441.6894,2.8936,1.3984,5.7393,2.1406,8.542.3311,1.2822.6777,2.542,1.0244,3.8018.3604,1.3242.7246,2.625,1.1016,3.9267.2637.958.542,1.9063.8203,2.8545.2666.9463.5488,1.8692.8408,2.8076.2168.7373.4473,1.4649.6758,2.2041.3936,1.2813.7881,2.5498,1.1855,3.8057.8184,2.5166,1.6563,5,2.5,7.4473.4161,1.2207.8458,2.4345,1.2784,3.6347s.8652,2.4004,1.3017,3.5762c1.2012,3.2344,2.4268,6.3984,3.6905,9.4951.3691.9268.7529,1.8428,1.1367,2.7608.5469,1.3212,1.0976,2.6298,1.6621,3.9296.4404,1.0137.8808,2.0293,1.3359,3.0332,2.4239,5.4502,4.9239,10.6778,7.4805,15.6651.5078.9892,1.0078,1.9521,1.5205,2.917,1.209,2.2881,2.4268,4.5273,3.6641,6.7334.4209.7744.8691,1.542,1.3046,2.3056.4092.711.8174,1.419,1.2276,2.1172.4766.8213.9541,1.6309,1.4219,2.4258,1.1045,1.832,2.2031,3.627,3.3203,5.3867.375.6172.7646,1.2227,1.1445,1.8145,1.2061,1.8887,2.4209,3.7285,3.6436,5.5332.4316.6523.8642,1.291,1.3007,1.918,2.8653,4.1699,5.7266,8.0898,8.5899,11.7861.5264.6807,1.0644,1.3642,1.5928,2.0332,2.7636,3.4902,5.5009,6.7773,8.2011,9.8574.8594.9776,1.7207,1.9443,2.5743,2.8838.0732.0752.1474.1504.2187.2383.5107.5547,1.0205,1.1191,1.5342,1.6601,3.0586,3.3077,6.0537,6.3418,8.9463,9.1192.4775.4609.956.9209,1.4365,1.3691.9473.9072,1.8877,1.7744,2.8223,2.6153.8886.8095,1.7587,1.5888,2.6084,2.3418.0439.0312.0859.0771.1298.1093.8516.7403,1.6817,1.4629,2.4922,2.1582,1.4073,1.1885,2.7754,2.3213,4.0928,3.3809.3721.291.7314.581,1.1035.8721,2.4004,1.9043,4.6426,3.5791,6.6983,5.0478.6201.4356,1.2275.8701,1.8037,1.2725,1.7197,1.1826,3.2802,2.2119,4.6474,3.0693.4121.2734.8047.5195,1.1866.75.8437.5137,1.5839.9707,2.2392,1.3516.1455.0879.294.165.4307.2383.1455.0898.2802.1757.417.2509,1.5136.8711,2.3398,1.2696,2.3398,1.2696,8.0156-2.6094,15.7793-5.4893,23.293-8.6387,47.4531-19.8643,84.9853-50.0205,114.6885-84.9668.0791-.0986.1572-.1846.2255-.2842,63.9317-75.3623,91.4229-172.8906,103.1641-237.4619,1.2881-7.1514,2.4023-13.8965,3.3438-20.1631-126.1192-28.6982-163.8604-85.8183-167.8096-92.3535Z"/>
      <g>
        <path class="cls-17" d="M884.91685,1872.50559c-10.7031,58.8672-35.7666,147.7793-94.0507,216.4864-.0625.0908-.1328.1679-.2061.2578-27.0791,31.8603-61.2959,59.3525-104.5566,77.4619-6.8506,2.8721-13.9287,5.4971-21.2364,7.875,0,0-.7529-.3623-2.1337-1.1572-.1241-.0684-.2461-.1465-.3799-.2276-.1241-.0683-.2588-.1367-.3926-.2187-.5967-.3467-1.2725-.7627-2.041-1.2315-.3477-.2099-.7061-.4336-1.0811-.6836-1.247-.7812-2.6699-1.7197-4.2373-2.7978-.5254-.3682-1.0801-.7637-1.6445-1.1602-1.874-1.3388-3.919-2.8662-6.1074-4.6025-.3389-.2656-.6661-.5293-1.0049-.7949-1.2022-.9658-2.4483-1.9981-3.7315-3.0821-.7392-.6328-1.4951-1.2929-2.2724-1.9668-.0401-.0292-.0782-.0703-.1182-.1005-.7744-.6856-1.5674-1.3975-2.3789-2.1338-.8506-.7676-1.709-1.5586-2.5723-2.3848-.4375-.4092-.874-.8281-1.3095-1.248-2.6368-2.5323-5.3672-5.2989-8.1563-8.3135-.4678-.4942-.9326-1.0098-1.3984-1.5147-.0654-.08-.1328-.1484-.1992-.2168-.7784-.8564-1.5635-1.7373-2.3467-2.6289-2.4619-2.8076-4.958-5.8047-7.4776-8.9873-.4814-.6093-.9716-1.2324-1.4511-1.8525-2.6104-3.3701-5.2198-6.9434-7.8321-10.7461-.3974-.5723-.792-1.1533-1.1855-1.7481-1.1133-1.6445-2.2217-3.3222-3.3213-5.0429-.3467-.5401-.7012-1.0938-1.0439-1.6543-1.0186-1.6055-2.0196-3.2412-3.0264-4.9121-.4268-.7246-.8623-1.4629-1.2959-2.2119-.375-.6358-.7471-1.2832-1.1191-1.9297-.3985-.6973-.8057-1.3955-1.1905-2.1026-1.1269-2.0097-2.2373-4.0517-3.3398-6.1377-.4678-.8808-.9229-1.7588-1.3858-2.6611-2.331-4.5449-4.6113-9.3115-6.8203-14.2793-.415-.916-.8164-1.8418-1.2187-2.7656-.5137-1.1846-1.0157-2.3779-1.5147-3.583-.3496-.835-.6992-1.6729-1.0371-2.5176-1.1514-2.8213-2.2685-5.7061-3.3642-8.6553-.3975-1.0722-.792-2.166-1.1856-3.2607-.3945-1.0938-.7871-2.1992-1.166-3.3145-.7695-2.2295-1.5322-4.4931-2.2793-6.789-.3623-1.1446-.7227-2.3008-1.0801-3.4678-.209-.6748-.4189-1.3379-.6162-2.0108-.2666-.8544-.5244-1.6972-.7666-2.5595-.2539-.8653-.5078-1.7285-.748-2.6016-.3438-1.1885-.6758-2.373-1.0039-3.5801-.3165-1.1484-.6329-2.2978-.9336-3.4668-.6768-2.5537-1.3243-5.1494-1.9522-7.7871-.3144-1.2841-.6182-2.5674-.9062-3.8701-.2657-1.1728-.5391-2.3711-.7911-3.5644-.038-.1661-.0761-.3321-.1142-.4981-.2725-1.2656-.543-2.542-.8096-3.8408-.2129-1.0273-.4131-2.0645-.623-3.1025-.3262-1.6622-.6397-3.3331-.9483-5.0264-.2529-1.375-.5039-2.7617-.7402-4.1582-.2402-1.3848-.4795-2.7695-.7041-4.1738.0039-.0225-.0029-.0459-.0107-.0704-.2168-1.3808-.4346-2.7607-.6504-4.1533-.003-.0459-.0079-.081-.0127-.1162-.2207-1.4267-.4278-2.8633-.625-4.2959-.2071-1.4365-.3907-2.8799-.586-4.3232-.0029-.0469-.0078-.0821-.0127-.1162-.1904-1.4678-.3701-2.9327-.5478-4.4092-.1699-1.3936-.3281-2.7871-.4824-4.2031-.0147-.1719-.0401-.3467-.0538-.5206-.1601-1.4492-.3085-2.8974-.4531-4.3681-.1562-1.5293-.2988-3.0781-.4277-4.6358-.1406-1.5498-.2676-3.1181-.3926-4.6982-.1269-1.5703-.2383-3.1592-.3476-4.7588-.1026-1.5195-.2041-3.0381-.2901-4.5771-.0097-.1387-.0166-.2871-.0264-.4258-.0937-1.5625-.1757-3.124-.2441-4.7051-.0644-1.3418-.1279-2.6953-.1894-4.0596-.0459-1.2588-.0928-2.5185-.1348-3.7988-.0361-1.1894-.0723-2.3779-.1055-3.5781-.0078-.3994-.0137-.8096-.0215-1.209-.0332-1.1426-.0634-2.2969-.0713-3.458-.0302-1.3467-.0468-2.7031-.0517-4.0684-.0225-1.6416-.0215-3.29-.0293-4.9511.0019-.1358.0019-.2618.0039-.3965-.002-1.6953.0098-3.3985.0244-5.1241.0117-1.4531.0361-2.915.0625-4.3886.0547-3.208.1358-6.4346.2481-9.711.0244-1.0195.0712-2.0341.1074-3.0625.0498-1.2871.1133-2.583.167-3.8916.0156-.3388.0293-.666.0439-1.0039.0879-1.747.1768-3.5049.2764-5.2607.0918-1.6436.1943-3.2852.2988-4.9375.0254-.5176.0615-1.0352.0977-1.5518.0634-.9882.1279-1.9775.2041-2.9648.0713-1.1582.1572-2.3252.2529-3.4902.1074-1.4131.2246-2.8243.3447-4.2471.1573-1.9502.3282-3.9092.5098-5.8662.1738-1.9698.3701-3.9463.5693-5.9346.2002-1.999.4014-3.998.626-6.0039.2119-1.9971.4482-4.001.6748-6.0186l.0176-.0986c.2402-2.0264.4805-4.0527.7451-6.0967.2598-2.0683.5293-4.1347.8115-6.209.2725-2.0781.5664-4.1513.8643-6.247l.0195-.1104c.2959-2.084.6045-4.1767.9258-6.2783.3154-2.1279.6563-4.2715.999-6.4268.6826-4.2998,1.4112-8.6601,2.1914-13.0556,114.3858,15.3808,165.3008-19.3496,172.792-25.084.1963-.1455.3565-.2764.499-.375,3.6006,5.958,38.0079,58.0312,152.9864,84.1953-.8574,5.7119-1.874,11.8623-3.0489,18.3818Z"/>
        <path class="cls-23" d="M735.47455,1769.51639l-72.7412,403.9131c-.752-.4297-1.6973-.9873-2.8135-1.6778-.3477-.2099-.7061-.4336-1.0811-.6836-1.247-.7812-2.6699-1.7197-4.2373-2.7978-.5254-.3682-1.0801-.7637-1.6445-1.1602-1.874-1.3388-3.919-2.8662-6.1074-4.6025-.3389-.2656-.6661-.5293-1.0049-.7949-1.2022-.9658-2.4483-1.9981-3.7315-3.0821-.7392-.6328-1.4951-1.2929-2.2724-1.9668-.0401-.0292-.0782-.0703-.1182-.1005-.7744-.6856-1.5674-1.3975-2.3789-2.1338-.8506-.7676-1.709-1.5586-2.5723-2.3848-.4375-.4092-.874-.8281-1.3095-1.248-2.6368-2.5323-5.3672-5.2989-8.1563-8.3135-.4678-.4942-.9326-1.0098-1.3984-1.5147-.0654-.08-.1328-.1484-.1992-.2168-.7784-.8564-1.5635-1.7373-2.3467-2.6289-2.4619-2.8076-4.958-5.8047-7.4776-8.9873-.4814-.6093-.9716-1.2324-1.4511-1.8525-2.6104-3.3701-5.2198-6.9434-7.8321-10.7461-.3974-.5723-.792-1.1533-1.1855-1.7481-1.1133-1.6445-2.2217-3.3222-3.3213-5.0429-.3467-.5401-.7012-1.0938-1.0439-1.6543-1.0186-1.6055-2.0196-3.2412-3.0264-4.9121-.4268-.7246-.8623-1.4629-1.2959-2.2119-.375-.6358-.7471-1.2832-1.1191-1.9297-.3985-.6973-.8057-1.3955-1.1905-2.1026-1.1269-2.0097-2.2373-4.0517-3.3398-6.1377-.4678-.8808-.9229-1.7588-1.3858-2.6611-2.331-4.5449-4.6113-9.3115-6.8203-14.2793-.415-.916-.8164-1.8418-1.2187-2.7656-.5137-1.1846-1.0157-2.3779-1.5147-3.583-.3496-.835-.6992-1.6729-1.0371-2.5176-1.1514-2.8213-2.2685-5.7061-3.3642-8.6553-.3975-1.0722-.792-2.166-1.1856-3.2607-.3945-1.0938-.7871-2.1992-1.166-3.3145-.7695-2.2295-1.5322-4.4931-2.2793-6.789-.3623-1.1446-.7227-2.3008-1.0801-3.4678-.209-.6748-.4189-1.3379-.6162-2.0108-.2666-.8544-.5244-1.6972-.7666-2.5595-.2539-.8653-.5078-1.7285-.748-2.6016-.3438-1.1885-.6758-2.373-1.0039-3.5801-.3165-1.1484-.6329-2.2978-.9336-3.4668-.6768-2.5537-1.3243-5.1494-1.9522-7.7871-.3144-1.2841-.6182-2.5674-.9062-3.8701-.2657-1.1728-.5391-2.3711-.7911-3.5644-.038-.1661-.0761-.3321-.1142-.4981-.2725-1.2656-.543-2.542-.8096-3.8408-.2129-1.0273-.4131-2.0645-.623-3.1025-.3262-1.6622-.6397-3.3331-.9483-5.0264-.2529-1.375-.5039-2.7617-.7402-4.1582-.2402-1.3848-.4795-2.7695-.7041-4.1738.0039-.0225-.0029-.0459-.0107-.0704-.2168-1.3808-.4346-2.7607-.6504-4.1533-.003-.0459-.0079-.081-.0127-.1162-.2207-1.4267-.4278-2.8633-.625-4.2959-.2071-1.4365-.3907-2.8799-.586-4.3232-.0029-.0469-.0078-.0821-.0127-.1162-.1904-1.4678-.3701-2.9327-.5478-4.4092-.1699-1.3936-.3281-2.7871-.4824-4.2031-.0147-.1719-.0401-.3467-.0538-.5206-.1601-1.4492-.3085-2.8974-.4531-4.3681-.1562-1.5293-.2988-3.0781-.4277-4.6358-.1406-1.5498-.2676-3.1181-.3926-4.6982-.1269-1.5703-.2383-3.1592-.3476-4.7588-.1026-1.5195-.2041-3.0381-.2901-4.5771-.0097-.1387-.0166-.2871-.0264-.4258-.0937-1.5625-.1757-3.124-.2441-4.7051-.0644-1.3418-.1279-2.6953-.1894-4.0596-.0459-1.2588-.0928-2.5185-.1348-3.7988-.0361-1.1894-.0723-2.3779-.1055-3.5781-.0078-.3994-.0137-.8096-.0215-1.209-.0332-1.1426-.0634-2.2969-.0713-3.458-.0302-1.3467-.0468-2.7031-.0517-4.0684-.0225-1.6416-.0215-3.29-.0293-4.9511.0019-.1358.0019-.2618.0039-.3965-.002-1.6953.0098-3.3985.0244-5.1241.0117-1.4531.0361-2.915.0625-4.3886.0547-3.208.1358-6.4346.2481-9.711.0244-1.0195.0712-2.0341.1074-3.0625.0498-1.2871.1133-2.583.167-3.8916.0156-.3388.0293-.666.0439-1.0039.0879-1.747.1768-3.5049.2764-5.2607.0918-1.6436.1943-3.2852.2988-4.9375.0254-.5176.0615-1.0352.0977-1.5518.0634-.9882.1279-1.9775.2041-2.9648.0713-1.1582.1572-2.3252.2529-3.4902.1074-1.4131.2246-2.8243.3447-4.2471.1573-1.9502.3282-3.9092.5098-5.8662.1738-1.9698.3701-3.9463.5693-5.9346.2002-1.999.4014-3.998.626-6.0039.2119-1.9971.4482-4.001.6748-6.0186l.0176-.0986c.2402-2.0264.4805-4.0527.7451-6.0967.2598-2.0683.5293-4.1347.8115-6.209.2725-2.0781.5664-4.1513.8643-6.247l.0195-.1104c.2959-2.084.6045-4.1767.9258-6.2783.3154-2.1279.6563-4.2715.999-6.4268.6826-4.2998,1.4112-8.6601,2.1914-13.0556,124.4756,16.7431,173.7862-25.8711,173.7862-25.8711Z"/>
      </g>
    </g>
  </g>
</svg>