<?xml version="1.0" encoding="UTF-8"?>
<svg xmlns="http://www.w3.org/2000/svg" xmlns:xlink="http://www.w3.org/1999/xlink" viewBox="0 0 1919.65541 1127.75573">
  <defs>
    <style>
      .cls-1 {
        fill: none;
      }

      .cls-2 {
        fill: #a41f23;
      }

      .cls-3 {
        fill: #c6262a;
      }

      .cls-4 {
        fill: #ff5c60;
      }

      .cls-5 {
        fill: #b82328;
      }

      .cls-6 {
        fill: url(#radial-gradient);
        opacity: .4;
      }

      .cls-6, .cls-7, .cls-8 {
        mix-blend-mode: multiply;
      }

      .cls-9 {
        fill: url(#radial-gradient-3);
      }

      .cls-10 {
        fill: #bc2427;
      }

      .cls-11 {
        fill: #fc3035;
      }

      .cls-12 {
        fill: url(#linear-gradient-2);
      }

      .cls-13 {
        fill: url(#linear-gradient);
      }

      .cls-14 {
        isolation: isolate;
      }

      .cls-15 {
        fill: #df2b2f;
      }

      .cls-16 {
        fill: #fff;
        font-size: 140px;
      }

      .cls-16, .cls-17 {
        font-family: Poppins-Black, Poppins;
        font-weight: 800;
      }

      .cls-18 {
        fill: #f52f34;
      }

      .cls-19 {
        clip-path: url(#clippath-1);
      }

      .cls-20 {
        clip-path: url(#clippath-3);
      }

      .cls-21 {
        clip-path: url(#clippath-2);
      }

      .cls-22 {
        fill: #f12e33;
      }

      .cls-23 {
        fill: #ff3136;
      }

      .cls-24 {
        fill: #ff4a4e;
      }

      .cls-25 {
        fill: #ee2d33;
      }

      .cls-26 {
        fill: #ae2125;
      }

      .cls-27 {
        fill: #ff5458;
      }

      .cls-28 {
        fill: #e62c30;
      }

      .cls-29 {
        fill: #e92d32;
      }

      .cls-30 {
        fill: #b32225;
      }

      .cls-31 {
        fill: #dc2a2e;
      }

      .cls-32 {
        fill: #d1282c;
      }

      .cls-33 {
        fill: #b82326;
      }

      .cls-8 {
        fill: url(#radial-gradient-2);
      }

      .cls-34 {
        fill: #ca262b;
      }

      .cls-35 {
        fill: #a92024;
      }

      .cls-36 {
        fill: #d8292e;
      }

      .cls-37 {
        fill: #f83035;
      }

      .cls-38 {
        fill: #d5292d;
      }

      .cls-39 {
        fill: #c3252a;
      }

      .cls-17 {
        fill: #166534;
        font-size: 160px;
      }

      .cls-40 {
        clip-path: url(#clippath);
      }

      .cls-41 {
        fill: #e32b30;
      }

      .cls-42 {
        fill: #ce272c;
      }
    </style>
    <radialGradient id="radial-gradient" cx="-708.06019" cy="16068.59173" fx="-708.06019" fy="16068.59173" r="574.55374" gradientTransform="translate(2142.71306 -1613.37248) scale(1.6706 .1647)" gradientUnits="userSpaceOnUse">
      <stop offset=".06731" stop-color="#ff5458"/>
      <stop offset=".2222" stop-color="#ff8083"/>
      <stop offset=".40147" stop-color="#ffadaf"/>
      <stop offset=".57401" stop-color="#ffd1d2"/>
      <stop offset=".73569" stop-color="#ffeaea"/>
      <stop offset=".88216" stop-color="#fff9f9"/>
      <stop offset="1" stop-color="#fff"/>
    </radialGradient>
    <clipPath id="clippath">
      <path class="cls-1" d="M1624.13001,749.03283c-39.7189,7.799-86.006-20.8697-124.3974-84.31222-51.6617-85.373-73.0407-207.371-56.7227-299.55927l-200.0108,39.2702c-16.318,92.1883,5.061,214.18629,56.7227,299.55929,38.3914,63.4425,84.6786,92.1112,124.3974,84.3122l200.0108-39.2702"/>
    </clipPath>
    <clipPath id="clippath-1">
      <path class="cls-1" d="M273.85119,40.52312c39.7189-7.7983,86.0061,20.8697,124.3974,84.3122,51.6618,85.3729,73.0408,207.371,56.7227,299.55992l200.01079-39.2702c16.31742-92.18892-5.0609-214.18702-56.7227-299.55992C559.86798,22.12262,513.58091-6.54548,473.86199,1.25282l-200.01079,39.2703"/>
    </clipPath>
    <linearGradient id="linear-gradient" x1="879.37428" y1="434.75819" x2="835.45378" y2="180.01909" gradientUnits="userSpaceOnUse">
      <stop offset="0" stop-color="#ff8000"/>
      <stop offset=".00797" stop-color="#ff8200"/>
      <stop offset=".14004" stop-color="#ffa200"/>
      <stop offset=".27635" stop-color="#ffbc00"/>
      <stop offset=".4169" stop-color="#ffce00"/>
      <stop offset=".56442" stop-color="#ffd900"/>
      <stop offset=".7302" stop-color="#fd0"/>
    </linearGradient>
    <linearGradient id="linear-gradient-2" x1="976.89481" y1="367.01474" x2="1013.69171" y2="609.26189" gradientTransform="translate(-241.04581 .8904) rotate(-1.14914) scale(1.13144 1.09388)" gradientUnits="userSpaceOnUse">
      <stop offset="0" stop-color="#003373"/>
      <stop offset=".53218" stop-color="#0055bf"/>
    </linearGradient>
    <radialGradient id="radial-gradient-2" cx="2461.09114" cy="-1576.97231" fx="2461.09114" fy="-1576.97231" r="179.11748" gradientTransform="translate(-1454.97746 -1579.34534) rotate(89.99605) scale(.74531 1.16041)" gradientUnits="userSpaceOnUse">
      <stop offset=".27523" stop-color="#ff5458"/>
      <stop offset=".39559" stop-color="#ff8083"/>
      <stop offset=".5349" stop-color="#ffadaf"/>
      <stop offset=".66898" stop-color="#ffd1d2"/>
      <stop offset=".79461" stop-color="#ffeaea"/>
      <stop offset=".90843" stop-color="#fff9f9"/>
      <stop offset="1" stop-color="#fff"/>
    </radialGradient>
    <radialGradient id="radial-gradient-3" cx="4006.61315" cy="-1460.00662" fx="4006.61315" fy="-1460.00662" r="179.11547" gradientTransform="translate(-6.16903 -2442.0367) rotate(90.00186) scale(.7359 1.04624)" gradientUnits="userSpaceOnUse">
      <stop offset=".27523" stop-color="#0055bf"/>
      <stop offset=".28907" stop-color="#085ac1"/>
      <stop offset=".4064" stop-color="#4885d1"/>
      <stop offset=".52212" stop-color="#80aadf"/>
      <stop offset=".6333" stop-color="#adc8ea"/>
      <stop offset=".73908" stop-color="#d1e0f3"/>
      <stop offset=".83814" stop-color="#eaf1f9"/>
      <stop offset=".92785" stop-color="#f9fbfd"/>
      <stop offset="1" stop-color="#fff"/>
    </radialGradient>
    <clipPath id="clippath-2">
      <path class="cls-1" d="M78.1207,215.18882l109.378-21.4751c2.5733-33.9214,9.527-65.2378,21.1655-91.2258,16.2969-36.3926,39.3525-56.8927,65.187-61.9648L473.86199,1.25282c-25.8345,5.0722-48.89008,25.5717-65.18708,61.9649-11.63852,25.988-18.59222,57.3044-21.16612,91.2258l109.3772-21.4752c-27.5704,37.334-100.8068,136.5063-149.1066,305.51422-70.9161-39.51792-158.411-96.95012-269.65799-223.29372"/>
    </clipPath>
    <clipPath id="clippath-3">
      <path class="cls-1" d="M1819.86051,574.36704l-109.3779,21.4752c-2.5733,33.92138-9.527,65.2378-21.1655,91.22638-16.297,36.39262-39.3526,56.892-65.1871,61.96422l-200.0108,39.2702c25.8345-5.0721,48.8902-25.5716,65.1871-61.9641,11.6385-25.9887,18.5922-57.3051,21.1662-91.2265l-109.3773,21.47518c27.5705-37.334,100.8068-136.50628,149.1067-305.5136,70.916,39.51732,158.411,96.94952,269.6579,223.29302"/>
    </clipPath>
  </defs>
  <g class="cls-14">
    <g id="Layer_2" data-name="Layer 2">
      <g id="Layer_1-2" data-name="Layer 1">
        <g>
          <ellipse class="cls-6" cx="959.8277" cy="1033.1246" rx="959.8277" ry="94.63113"/>
          <g class="cls-14">
            <g class="cls-40">
              <g>
                <path class="cls-11" d="M1667.13301,314.90152l-655.0816,128.61972c-.975,4.88438-1.84,9.86038-2.5964,14.9167l655.0817-128.61972c.7563-5.0563,1.6213-10.0316,2.5963-14.9167"/>
                <path class="cls-23" d="M1664.53671,329.81822l-655.0817,128.61972c-.7589,5.0729-1.4085,10.22668-1.9494,15.4511l655.0817-128.61982c.5408-5.2243,1.1904-10.3782,1.9494-15.451"/>
                <path class="cls-24" d="M1662.58731,345.26922l-655.0817,128.61982c-.5362,5.17158-.9658,10.4131-1.2912,15.7132l655.0816-128.6197c.3248-5.30013.755-10.54103,1.2913-15.71333"/>
                <path class="cls-27" d="M1661.29601,360.98254l-655.0816,128.6197c-.3591,5.8495-.5897,11.7709-.6951,17.7509l655.0817-128.6197c.1047-5.9794.3359-11.9014.695-17.7509"/>
                <path class="cls-4" d="M1660.60101,378.73344l-655.0817,128.6197c-.2793,15.9016.334,32.215,1.8104,48.6846l655.0817-128.6197c-1.4764-16.4689-2.0898-32.783-1.8104-48.6846"/>
                <path class="cls-27" d="M1662.41141,427.41804l-655.0817,128.6197c.4362,4.8653.9481,9.7451,1.5344,14.6308l655.0816-128.6197c-.5863-4.8857-1.0982-9.7649-1.5343-14.6308"/>
                <path class="cls-24" d="M1663.94571,442.04884l-655.0816,128.6197c.4078,3.39808.8512,6.8002,1.3314,10.2029l655.081-128.6197c-.4796-3.4027-.923-6.80412-1.3308-10.2029"/>
                <path class="cls-23" d="M1665.27651,452.25174l-655.081,128.6197c.4368,3.0997.9033,6.2007,1.4,9.3004l655.081-128.6197c-.4961-3.0997-.9625-6.2007-1.4-9.3004"/>
                <path class="cls-11" d="M1666.67651,461.55214l-655.081,128.6197c.4473,2.7947.9184,5.5894,1.4138,8.382l655.0816-128.6197c-.4954-2.7927-.9664-5.5867-1.4144-8.382"/>
                <path class="cls-37" d="M1668.09091,469.93414l-655.0816,128.6197c.4928,2.7756,1.0086,5.5492,1.5482,8.3201l655.0816-128.619c-.5395-2.771-1.0554-5.5452-1.5482-8.3208"/>
                <path class="cls-18" d="M1669.63911,478.25494l-655.0816,128.619c.5251,2.6965,1.0719,5.3904,1.6411,8.0803l655.0816-128.6197c-.5692-2.68992-1.116-5.3831-1.6411-8.0796"/>
                <path class="cls-22" d="M1671.28021,486.33454l-655.0816,128.6197c.5699,2.6899,1.1608,5.3752,1.7742,8.0559l655.0816-128.619c-.6134-2.6807-1.2043-5.3667-1.7742-8.0566"/>
                <path class="cls-25" d="M1673.05441,494.39114l-655.0816,128.619c.641,2.8006,1.3057,5.5953,1.9942,8.3827l655.0816-128.6191c-.6884-2.788-1.3532-5.5827-1.9942-8.3826"/>
                <path class="cls-29" d="M1675.04861,502.77374l-655.0816,128.6191c.6963,2.8197,1.4177,5.6321,2.1622,8.4367l655.0816-128.6197c-.7451-2.8046-1.4658-5.617-2.1622-8.4361"/>
                <path class="cls-28" d="M1677.21081,511.20984l-655.0816,128.6197c.7741,2.9119,1.5739,5.8153,2.4,8.70808l655.0817-128.61968c-.8262-2.8928-1.626-5.7962-2.4001-8.7081"/>
                <path class="cls-41" d="M1679.61091,519.91794l-655.0817,128.61968c.8532,2.98972,1.7347,5.96882,2.6438,8.93472l655.0816-128.61972c-.9091-2.96588-1.7906-5.94438-2.6437-8.93468"/>
                <path class="cls-15" d="M1682.25461,528.85262l-655.0816,128.61972c.927,3.026,1.8829,6.038,2.8672,9.0349l655.0816-128.619c-.9843-2.99762-1.9402-6.0097-2.8672-9.03562"/>
                <path class="cls-31" d="M1685.12181,537.88824l-655.0816,128.619c1.0119,3.0806,2.0535,6.14538,3.1253,9.19238l655.0817-128.61968c-1.0719-3.047-2.1135-6.1111-3.1254-9.1917"/>
                <path class="cls-36" d="M1688.24721,547.07994l-655.0817,128.61968c1.0811,3.074,2.1925,6.12952,3.3349,9.166l655.081-128.61968c-1.1417-3.0358-2.2531-6.092-3.3342-9.166"/>
                <path class="cls-38" d="M1691.58141,556.24594l-655.081,128.61968c1.1569,3.076,2.3447,6.13082,3.5629,9.164l655.0816-128.61968c-1.2182-3.0325-2.4066-6.0881-3.5635-9.164"/>
                <path class="cls-32" d="M1695.14491,565.40994l-655.0816,128.61968c1.228,3.05492,2.487,6.08742,3.7762,9.09482l655.0817-128.6197c-1.29-3.0068-2.5483-6.0393-3.7763-9.0948"/>
                <path class="cls-42" d="M1698.92121,574.50474l-655.0817,128.6197c1.3025,3.0365,2.6366,6.04718,4.0016,9.0303l655.0817-128.619c-1.3651-2.9838-2.6992-5.9945-4.0016-9.031"/>
                <path class="cls-34" d="M1702.92281,583.53574l-655.0817,128.619c1.3895,3.0371,2.8118,6.0452,4.2665,9.0231l655.081-128.6198c-1.454-2.9771-2.8764-5.9859-4.2658-9.0223"/>
                <path class="cls-3" d="M1707.18861,592.55804l-655.081,128.6198c1.4803,3.0311,2.9943,6.03,4.5411,8.9953l655.0817-128.6197c-1.5469-2.9646-3.0608-5.9642-4.5418-8.9954"/>
                <path class="cls-39" d="M1711.73041,601.55344l-655.0817,128.6197c1.6082,3.0819,3.2519,6.1276,4.9319,9.1331l655.0816-128.6197c-1.68-3.0055-3.3237-6.0505-4.9318-9.1331"/>
                <path class="cls-5" d="M1716.66221,610.68654l-655.0816,128.6197c1.7175,3.0733,3.4719,6.1058,5.2632,9.0941l655.0816-128.61972c-1.7913-2.98828-3.5457-6.02018-5.2632-9.09408"/>
                <path class="cls-10" d="M1721.92541,619.78062l-655.0816,128.61972c.2358.3927.4717.784.7082,1.1754,1.7267,2.85388,3.47,5.6367,5.2277,8.3497l655.0809-128.6191c-1.757-2.7129-3.5002-5.4964-5.227-8.3504-.2365-.3906-.4723-.7826-.7082-1.17532"/>
                <path class="cls-33" d="M1727.86061,629.30634l-655.0809,128.6191c2.1075,3.2545,4.2367,6.4069,6.3851,9.4578l655.0816-128.6197c-2.1483-3.05092-4.2776-6.2033-6.3858-9.4572"/>
                <path class="cls-30" d="M1734.24641,638.76354l-655.0816,128.6197c2.375,3.3738,4.7737,6.623,7.1922,9.7478l655.0817-128.6198c-2.4185-3.1247-4.8173-6.3739-7.1923-9.7477"/>
                <path class="cls-26" d="M1741.43871,648.51124l-655.0817,128.6198c2.8863,3.7295,5.8008,7.2811,8.7391,10.6542l655.0816-128.6197c-2.9382-3.3731-5.8528-6.9247-8.739-10.6543"/>
                <path class="cls-35" d="M1750.17771,659.16554l-655.0816,128.6197c3.7078,4.2572,7.4524,8.2305,11.2241,11.9185l655.0816-128.61911c-3.7716-3.688-7.5163-7.66188-11.2241-11.91908"/>
                <path class="cls-2" d="M1761.40181,671.08462l-655.0816,128.61911c28.5468,27.917,58.6076,39.4896,85.6292,34.1842l655.0817-128.6197c-27.0217,5.30538-57.0824-6.26662-85.6293-34.18362"/>
              </g>
            </g>
          </g>
          <g class="cls-14">
            <g class="cls-19">
              <g>
                <path class="cls-11" d="M230.84819,474.65444l655.08161-128.61972c.9751-4.8844,1.8401-9.8604,2.5964-14.9168L233.44459,459.73762c-.7563,5.05642-1.6214,10.03242-2.5964,14.91682"/>
                <path class="cls-23" d="M233.44459,459.73762l655.08161-128.6197c.7589-5.0721,1.4085-10.226,1.9494-15.451L235.39399,444.28662c-.5409,5.22442-1.1905,10.37822-1.9494,15.451"/>
                <path class="cls-24" d="M235.39399,444.28662l655.08161-128.6197c.5363-5.1716.9658-10.4131,1.2913-15.7132L236.68519,428.57344c-.3247,5.3001-.7549,10.5416-1.2912,15.71318"/>
                <path class="cls-27" d="M236.68519,428.57344l655.08171-128.61972c.359-5.8496.5896-11.7709.695-17.7509L237.38029,410.82254c-.1048,5.98-.336,11.9013-.6951,17.7509"/>
                <path class="cls-4" d="M237.38029,410.82254l655.08161-128.61972c.2794-15.901-.334-32.2151-1.8104-48.6846L235.56991,362.13792c1.47639,16.46952,2.08969,32.78292,1.81039,48.68462"/>
                <path class="cls-27" d="M235.56991,362.13792l655.0816-128.6197c-.4361-4.8653-.948-9.7444-1.5343-14.6308L234.03549,347.50712c.58641,4.8857,1.0983,9.7655,1.53441,14.6308"/>
                <path class="cls-24" d="M234.03549,347.50712l655.08171-128.6197c-.4078-3.3981-.8512-6.7996-1.3315-10.203L232.70469,337.30412c.4796,3.4028.923,6.8049,1.3308,10.203"/>
                <path class="cls-23" d="M232.70469,337.30412l655.08101-128.6197c-.4368-3.0997-.9032-6.2-1.4-9.3004L231.30479,328.00372c.496,3.0997.9625,6.2007,1.3999,9.3004"/>
                <path class="cls-11" d="M231.30479,328.00372l655.08091-128.6197c-.4473-2.7946-.9183-5.5893-1.4138-8.3813L229.89029,319.62242c.4954,2.792.9665,5.5867,1.4145,8.3813"/>
                <path class="cls-37" d="M229.89029,319.62242l655.08161-128.6197c-.4928-2.7756-1.0086-5.5498-1.5482-8.3208L228.34209,311.30172c.5396,2.7709,1.0554,5.5445,1.5482,8.3207"/>
                <path class="cls-18" d="M228.34209,311.30172l655.08161-128.6198c-.525-2.6965-1.0718-5.3903-1.6411-8.0802L226.70099,303.22142c.5692,2.6899,1.116,5.3838,1.6411,8.0803"/>
                <path class="cls-22" d="M226.70099,303.22142l655.08161-128.6197c-.5698-2.6893-1.1608-5.3753-1.7741-8.0559L224.92679,295.16552c.6134,2.6807,1.2043,5.366,1.7742,8.0559"/>
                <path class="cls-25" d="M224.92679,295.16552l655.08171-128.6197c-.641-2.8-1.3058-5.5946-1.9942-8.3827L222.93259,286.78282c.6885,2.7874,1.3532,5.5821,1.9942,8.3827"/>
                <path class="cls-29" d="M222.93259,286.78282l655.08171-128.6197c-.6964-2.8197-1.4178-5.6322-2.1622-8.436L220.77039,278.34612c.7451,2.8046,1.4659,5.617,2.1622,8.4367"/>
                <path class="cls-28" d="M220.77039,278.34612l655.08171-128.619c-.7741-2.9126-1.5739-5.8153-2.4001-8.7088L218.37039,269.63802c.8261,2.8928,1.6259,5.7962,2.4,8.7081"/>
                <path class="cls-41" d="M218.37039,269.63802l655.08161-128.6197c-.8531-2.9897-1.7346-5.9688-2.6438-8.9348L215.72659,260.70322c.9091,2.966,1.7906,5.9451,2.6438,8.9348"/>
                <path class="cls-15" d="M215.72659,260.70322l655.08161-128.6197c-.9269-3.0252-1.8828-6.038-2.8671-9.0349L212.85949,251.66832c.9842,2.997,1.9402,6.009,2.8671,9.0349"/>
                <path class="cls-31" d="M212.85949,251.66832L867.94111,123.04862c-1.0119-3.0806-2.0535-6.1453-3.1254-9.1917L209.73409,242.47602c1.0719,3.047,2.1134,6.1118,3.1254,9.1923"/>
                <path class="cls-36" d="M209.73409,242.47602L864.81571,113.85692c-1.0811-3.0746-2.1925-6.1302-3.3349-9.166L206.39991,233.31002c1.14169,3.0364,2.25309,6.092,3.33419,9.166"/>
                <path class="cls-38" d="M206.39991,233.31002L861.48081,104.69092c-1.1568-3.0759-2.3447-6.1315-3.5628-9.1646L202.83639,224.14602c1.2181,3.0331,2.4066,6.088,3.56351,9.164"/>
                <path class="cls-32" d="M202.83639,224.14602L857.91801,95.52632c-1.228-3.0549-2.487-6.0874-3.7763-9.0949L199.06009,215.05112c1.2899,3.0075,2.5482,6.04,3.7763,9.0949"/>
                <path class="cls-42" d="M199.06009,215.05112L854.14171,86.43142c-1.3025-3.0358-2.6365-6.0472-4.0016-9.0302L195.05849,206.02092c1.365,2.983,2.6991,5.9938,4.0016,9.0302"/>
                <path class="cls-34" d="M195.05849,206.02092L850.14011,77.40122c-1.3894-3.0372-2.8118-6.0453-4.2664-9.0231L190.79269,196.99782c1.454,2.9778,2.8763,5.986,4.2658,9.0231"/>
                <path class="cls-3" d="M190.79269,196.99782L845.87371,68.37812c-1.4804-3.0312-2.9943-6.0301-4.5412-8.9953L186.25091,188.00252c1.54689,2.9653,3.06079,5.9642,4.54179,8.9953"/>
                <path class="cls-39" d="M186.25091,188.00252L841.33251,59.38282c-1.6081-3.0819-3.2519-6.127-4.9318-9.1331L181.31899,178.86942c1.68,3.0055,3.3237,6.0512,4.93191,9.1331"/>
                <path class="cls-5" d="M181.31899,178.86942L836.40071,50.24972c-1.7175-3.0733-3.472-6.1058-5.2632-9.0935L176.05579,169.77522c1.7913,2.9884,3.5457,6.0209,5.2632,9.0942"/>
                <path class="cls-10" d="M176.05579,169.77522L831.13751,41.15622c-.2359-.3927-.4718-.7847-.7083-1.1753-1.7267-2.854-3.4699-5.6375-5.2276-8.3504L170.12059,160.25022c1.7571,2.713,3.50031,5.4964,5.227,8.3497.2365.3914.4724.7827.7082,1.1753"/>
                <path class="cls-33" d="M170.12059,160.25022L825.20161,31.63052c-2.1075-3.2539-4.2368-6.4063-6.3852-9.4572L163.73479,150.79232c2.1484,3.051,4.2776,6.2034,6.3858,9.4579"/>
                <path class="cls-30" d="M163.73479,150.79232L818.81641,22.17332c-2.375-3.3738-4.7737-6.6237-7.1922-9.7484L156.54259,141.04462c2.4185,3.1247,4.8172,6.374,7.1922,9.7477"/>
                <path class="cls-26" d="M156.54259,141.04462L811.62421,12.42492c-2.8862-3.7288-5.8008-7.2805-8.7391-10.6542L147.80349,130.39042c2.9383,3.3731,5.8529,6.9247,8.7391,10.6542"/>
                <path class="cls-35" d="M147.80349,130.39042L802.88511,1.77072c-3.7077-4.2572-7.4524-8.2305-11.2241-11.9185L136.57939,118.47192c3.7717,3.688,7.5163,7.6613,11.2241,11.9185"/>
                <path class="cls-2" d="M136.57939,118.47192L791.66101-10.14778c-28.5468-27.917-58.6075-39.4896-85.6292-34.1842L50.9502,84.28772c27.02171-5.3054,57.0824,6.2672,85.6292,34.1842"/>
              </g>
            </g>
          </g>
          <polygon class="cls-13" points="1311.81811 1.57432 379.02791 177.12292 379.02791 474.10694 1311.81811 298.55832 1311.81811 1.57432"/>
          <polygon class="cls-12" points="1745.89457 584.97749 71.28701 900.64775 64.17439 546.06278 1738.78197 230.39334 1745.89457 584.97749"/>
          <ellipse class="cls-8" cx="375.08464" cy="254.97033" rx="207.85024" ry="133.49708" transform="translate(-14.88085 486.54163) rotate(-64.9095)"/>
          <g class="cls-7">
            <ellipse class="cls-9" cx="1521.25601" cy="506.44383" rx="187.403" ry="131.80734" transform="translate(476.08775 1722.30917) rotate(-67.73056)"/>
          </g>
          <g class="cls-14">
            <g class="cls-21">
              <g>
                <path class="cls-33" d="M50.9502,84.28772L706.03181-44.33198c-1.5712.3089-3.1326.6746-4.6828,1.0975L46.2674,85.38462c1.5502-.4223,3.11151-.788,4.6828-1.0969"/>
                <path class="cls-10" d="M46.2674,85.38462L701.34901-43.23448c-2.0831.5679-4.1465,1.2399-6.1875,2.0147L40.07991,87.39992c2.04089-.7754,4.10429-1.4468,6.18749-2.0153"/>
                <path class="cls-5" d="M40.07991,87.39992L695.16151-41.21978c-1.9132.7266-3.8066,1.5449-5.6783,2.4534L34.4016,89.85332c1.87231-.9092,3.7651-1.7268,5.67831-2.4534"/>
                <path class="cls-39" d="M34.4016,89.85332L689.48321-38.76638c-1.7689.859-3.5187,1.7992-5.2474,2.821L29.1542,92.67432c1.72871-1.0218,3.4785-1.9626,5.2474-2.821"/>
                <path class="cls-3" d="M29.1542,92.67432L684.23581-35.94538c-1.6951,1.002-3.3698,2.0818-5.0234,3.24L24.1308,95.91432c1.6536-1.1582,3.3289-2.2386,5.0234-3.24"/>
                <path class="cls-34" d="M24.1308,95.91432L679.21241-32.70538c-1.5752,1.1042-3.132,2.2795-4.6676,3.5266L19.4631,99.44022c1.5364-1.2464,3.0925-2.4217,4.6677-3.5259"/>
                <path class="cls-42" d="M19.4631,99.44022L674.54481-29.17878c-1.5291,1.2418-3.0385,2.5542-4.5261,3.9377L14.9371,103.37862c1.4876-1.3835,2.9969-2.6965,4.526-3.9384"/>
                <path class="cls-32" d="M14.9371,103.37862L670.01871-25.24108c-1.4533,1.3525-2.8862,2.7723-4.29803,4.2605L10.6391,107.63912c1.41181-1.4882,2.8447-2.9086,4.298-4.2605"/>
                <path class="cls-38" d="M10.6391,107.63912L665.72068-20.98058c-1.4112,1.4882-2.8013,3.0443-4.1683,4.669L6.4714,112.30812c1.3664-1.6246,2.75651-3.1807,4.1677-4.669"/>
                <path class="cls-36" d="M6.4714,112.30812L661.55238-16.31158c-1.3683,1.6259-2.7136,3.321-4.03447,5.084L2.4362,117.39142c1.3209-1.7629,2.6662-3.4574,4.0352-5.0833"/>
                <path class="cls-31" d="M2.4362,117.39142L657.51791-11.22758c-1.33083,1.7748-2.63662,3.6188-3.91662,5.5327L-1.4804,122.92482c1.2801-1.9139,2.5858-3.7585,3.9166-5.5334"/>
                <path class="cls-15" d="M-1.4804,122.92482L653.60128-5.69488c-1.3098,1.9579-2.5931,3.9884-3.8481,6.092L-5.3285,129.01612c1.2551-2.1036,2.53841-4.134,3.8481-6.0913"/>
                <path class="cls-41" d="M-5.3285,129.01612L649.75318.39712c-1.2827,2.1503-2.5371,4.3771-3.7599,6.6803L-9.0883,135.69712c1.2228-2.3032,2.4771-4.53,3.7598-6.681"/>
                <path class="cls-28" d="M-9.0883,135.69712L645.99328,7.07742c-1.2721,2.3947-2.5107,4.8712-3.7143,7.4313L-12.8026,143.12782c1.2036-2.5595,2.4422-5.0366,3.7143-7.4307"/>
                <path class="cls-29" d="M-12.8026,143.12782L642.27898,14.50872c-.4842,1.0278-.9619,2.0693-1.4342,3.1241-.7735,1.7267-1.5258,3.4772-2.2578,5.25L-16.4946,151.50252c.7319-1.7728,1.4843-3.5233,2.2577-5.25.4724-1.0548.9507-2.0963,1.4343-3.1247"/>
                <path class="cls-25" d="M-16.4946,151.50252L638.58698,22.88282c-1.2234,2.9633-2.3895,5.9906-3.4982,9.0764L-19.9929,160.57892c1.10881-3.0865,2.2749-6.113,3.4983-9.0764"/>
                <path class="cls-22" d="M-19.9929,160.57892L635.08878,31.95922c-1.2557,3.495-2.4376,7.0664-3.5477,10.7083L-23.5399,171.28722c1.1094-3.6426,2.2913-7.2133,3.547-10.7083"/>
                <path class="cls-18" d="M-23.5399,171.28722L631.54108,42.66752c-1.1991,3.9383-2.3144,7.959-3.3448,12.0562L-26.8853,183.34342c1.031-4.0971,2.1457-8.1185,3.3454-12.0562"/>
                <path class="cls-37" d="M-26.8853,183.34342L628.19628,54.72372c-1.1187,4.4469-2.1385,8.9841-3.0595,13.6017L-29.9448,196.94512c.921-4.6182,1.9408-9.1548,3.0595-13.6017"/>
                <path class="cls-11" d="M-29.9448,196.94512L625.13678,68.32542c-.9757,4.889-1.8414,9.8683-2.5983,14.9286L-32.5432,211.87372c.757-5.0603,1.6227-10.0402,2.5984-14.9286"/>
                <path class="cls-23" d="M-32.5432,211.87372L622.53848,83.25402c-.761,5.0867-1.4119,10.255-1.9541,15.4938L-34.4972,227.36762c.5422-5.2389,1.19311-10.4072,1.954-15.4939"/>
                <path class="cls-24" d="M-34.4972,227.36762L620.58438,98.74782c-.5336,5.1559-.9618,10.3802-1.286,15.6639L-35.7832,243.03072c.3242-5.283.7524-10.5073,1.286-15.6631"/>
                <path class="cls-27" d="M-35.7832,243.03072L619.29838,114.41172c-.359,5.8475-.5902,11.7676-.6957,17.7456L-36.4789,260.77702c.1054-5.978.3367-11.898.6957-17.7463"/>
                <path class="cls-4" d="M-36.4789,260.77702l655.08158-128.6197c-.2793,15.9056.3334,32.2236,1.8104,48.6964L-34.6685,309.47352c-1.477-16.4735-2.0897-32.7909-1.8104-48.6965"/>
                <path class="cls-27" d="M-34.6685,309.47352l655.08158-128.6198c.4362,4.866.9474,9.7445,1.53382,14.6309L-33.1348,324.10432c-.58629-4.8864-1.0975-9.7655-1.5337-14.6308"/>
                <path class="cls-24" d="M-33.1348,324.10432l655.08171-128.6197c.40778,3.3981.85178,6.7995,1.33138,10.2022L-31.8033,334.30662c-.4796-3.4028-.9237-6.8042-1.3315-10.2023"/>
                <path class="cls-23" d="M-31.8033,334.30662l655.08158-128.6198c.4368,3.1004.9039,6.2007,1.4,9.3011L-30.4034,343.60762c-.496-3.1003-.9631-6.2013-1.3999-9.301"/>
                <path class="cls-11" d="M-30.4034,343.60762l655.08168-128.6197c.4473,2.7947.919,5.5893,1.4144,8.3814L-28.9889,351.98902c-.4954-2.7927-.9671-5.5867-1.4145-8.3814"/>
                <path class="cls-37" d="M-28.9889,351.98902l655.08158-128.6197c.49222,2.7762,1.008,5.5497,1.5476,8.3207L-27.4414,360.30972c-.5395-2.7709-1.0554-5.5445-1.5475-8.3207"/>
                <path class="cls-18" d="M-27.4414,360.30972l655.08168-128.6197c.525,2.6972,1.0725,5.3904,1.6417,8.0803L-25.7996,368.39004c-.5692-2.68993-1.1167-5.38383-1.6418-8.08033"/>
                <path class="cls-22" d="M-25.7996,368.39004l655.08158-128.61973c.5692,2.6899,1.1608,5.3758,1.7742,8.0565L-24.0254,376.44594c-.6134-2.6807-1.205-5.366-1.7742-8.0559"/>
                <path class="cls-25" d="M-24.0254,376.44594l655.08158-128.61913c.641,2.8,1.30572,5.5946,1.9942,8.3827L-22.0312,384.82862c-.6885-2.78748-1.3532-5.58208-1.9942-8.38267"/>
                <path class="cls-29" d="M-22.0312,384.82862l655.08158-128.6191c.6964,2.819,1.4178,5.6322,2.1629,8.436L-19.8684,393.26534c-.7451-2.8046-1.4665-5.617-2.1628-8.43672"/>
                <path class="cls-28" d="M-19.8684,393.26534l655.08168-128.61982c.7734,2.9126,1.5732,5.8153,2.3993,8.7082L-17.469,401.97344c-.82609-2.89282-1.6259-5.7962-2.3994-8.7081"/>
                <path class="cls-41" d="M-17.469,401.97344l655.08158-128.61972c.8539,2.9903,1.73532,5.9694,2.6438,8.936L-14.8245,410.90944c-.9092-2.9666-1.7907-5.9457-2.6445-8.936"/>
                <path class="cls-15" d="M-14.8245,410.90944l655.08088-128.61972c.9276,3.0259,1.8836,6.0387,2.8678,9.0362L-11.9574,419.94504c-.9843-2.9976-1.9402-6.0096-2.8671-9.0356"/>
                <path class="cls-31" d="M-11.9574,419.94504l655.08158-128.61912c1.012,3.0806,2.0542,6.1461,3.1261,9.1937L-8.8314,429.13934c-1.0718-3.0476-2.1141-6.1131-3.126-9.1943"/>
                <path class="cls-36" d="M-8.8314,429.13934l655.08168-128.61972c1.0811,3.0747,2.1931,6.1315,3.3355,9.168L-5.4958,438.30734c-1.1424-3.0371-2.2538-6.0933-3.3356-9.168"/>
                <path class="cls-38" d="M-5.4958,438.30734l655.08158-128.61972c1.1569,3.0773,2.3454,6.1335,3.5648,9.1673L-1.931,447.47462c-1.2195-3.03378-2.4073-6.09068-3.5648-9.16728"/>
                <path class="cls-32" d="M-1.931,447.47462l655.08158-128.6197c1.228,3.0569,2.487,6.09,3.7776,9.0988L1.8466,456.57344c-1.2906-3.00882-2.5496-6.0426-3.7776-9.09882"/>
                <path class="cls-42" d="M1.8466,456.57344l655.08158-128.61972c1.3025,3.0377,2.6372,6.0498,4.0029,9.0349L5.8495,465.60762c-1.3657-2.98438-2.6998-5.99708-4.0029-9.03418"/>
                <path class="cls-34" d="M5.8495,465.60762l655.08158-128.619c1.39083,3.0384,2.81383,6.0478,4.2685,9.0276L10.1186,474.63534c-1.4553-2.9792-2.8783-5.9893-4.2691-9.02772"/>
                <path class="cls-3" d="M10.1186,474.63534l655.08098-128.61912c1.48163,3.0325,2.99693,6.034,4.54443,9.0013L14.6631,483.63662c-1.54819-2.96668-3.0635-5.96818-4.5445-9.00128"/>
                <path class="cls-39" d="M14.6631,483.63662l655.08091-128.6191c1.6095,3.0839,3.2545,6.1309,4.9352,9.139L19.5975,492.77624c-1.68059-3.0081-3.32559-6.0551-4.9344-9.13962"/>
                <path class="cls-5" d="M19.5975,492.77624l655.08171-128.61972c1.7188,3.076,3.4752,6.11043,5.2678,9.10083L24.8654,501.87704c-1.7927-2.99042-3.549-6.0255-5.2679-9.1008"/>
                <path class="cls-10" d="M24.8654,501.87704l655.08161-128.6197c.2352.3926.4717.78527.7082,1.1766L25.5736,503.05294c-.2365-.39132-.4724-.78332-.7082-1.1759"/>
              </g>
            </g>
          </g>
          <text class="cls-16" transform="translate(232.22209 734.0468) rotate(-10.70646)"><tspan x="0" y="0">BACK GUARANTEE</tspan></text>
          <g class="cls-14">
            <g class="cls-20">
              <g>
                <path class="cls-33" d="M1847.03111,705.26824l-655.0817,128.6197c1.5713-.309,3.1327-.6746,4.6828-1.0969l655.0817-128.6197c-1.5502.4229-3.1116.7886-4.6828,1.0969"/>
                <path class="cls-10" d="M1851.71391,704.17134l-655.0817,128.6197c2.0832-.5686,4.1466-1.2399,6.1876-2.0153l655.0816-128.6197c-2.041.7754-4.1044,1.4467-6.1875,2.0153"/>
                <path class="cls-5" d="M1857.90141,702.15604l-655.0816,128.6197c1.9131-.7267,3.8065-1.5442,5.6782-2.4534l655.0817-128.61971c-1.8724.90912-3.7651,1.72672-5.6783,2.45342"/>
                <path class="cls-39" d="M1863.57971,699.70262l-655.0817,128.61971c1.7689-.8584,3.5187-1.7992,5.2474-2.821l655.0817-128.61971c-1.7288,1.02242-3.4786,1.96262-5.2474,2.821"/>
                <path class="cls-3" d="M1868.82711,696.88162l-655.0817,128.61971c1.6951-1.0014,3.3698-2.0818,5.0234-3.24l655.0817-128.61971c-1.6536,1.15882-3.329,2.23862-5.0234,3.24"/>
                <path class="cls-34" d="M1873.85051,693.64162l-655.0817,128.61971c1.5752-1.1042,3.132-2.2795,4.6677-3.526l655.0816-128.61971c-1.5363,1.24652-3.0924,2.42182-4.6676,3.526"/>
                <path class="cls-42" d="M1878.51811,690.11562l-655.0816,128.61971c1.5291-1.2418,3.0384-2.5548,4.526-3.9383l655.0816-128.6197c-1.4876,1.3841-2.9969,2.6965-4.526,3.93828"/>
                <path class="cls-32" d="M1883.04411,686.17734l-655.0816,128.6197c1.4533-1.3519,2.8862-2.7723,4.2981-4.2605l655.0816-128.6191c-1.4118,1.4876-2.8447,2.908-4.2981,4.2599"/>
                <path class="cls-38" d="M1887.34221,681.91744l-655.0816,128.6191c1.4111-1.4883,2.8012-3.0444,4.1682-4.669l655.081-128.6191c-1.3664,1.624-2.7564,3.1808-4.1676,4.669"/>
                <path class="cls-36" d="M1891.50981,677.24844l-655.081,128.6191c1.3684-1.62591,2.7137-3.3204,4.0346-5.0834l655.0816-128.6197c-1.3209,1.763-2.6662,3.4574-4.0352,5.084"/>
                <path class="cls-31" d="M1895.54501,672.16444l-655.0816,128.6197c1.3308-1.7748,2.6365-3.61951,3.9166-5.5333l655.0816-128.619c-1.28,1.91378-2.5858,3.75778-3.9166,5.5326"/>
                <path class="cls-15" d="M1899.46161,666.63184l-655.0816,128.619c1.3097-1.9573,2.5931-3.9878,3.8481-6.0913l655.0816-128.6197c-1.255,2.1035-2.5384,4.134-3.8481,6.092"/>
                <path class="cls-41" d="M1903.30971,660.53984l-655.0816,128.6197c1.2827-2.151,2.5371-4.3778,3.7598-6.681l655.0816-128.6191c-1.2234,2.3026-2.4771,4.53-3.7598,6.6804"/>
                <path class="cls-28" d="M1907.06951,653.85944l-655.0816,128.6191c1.2722-2.3941,2.5107-4.8712,3.7144-7.4307l655.0816-128.6197c-1.2037,2.55948-2.4422,5.0366-3.7144,7.4313"/>
                <path class="cls-29" d="M1910.78391,646.42814l-655.0816,128.6197c.4842-1.0284.9618-2.07,1.4342-3.1247.7734-1.7268,1.5258-3.4772,2.2577-5.2501l655.0817-128.6197c-.732,1.7735-1.4843,3.52328-2.2578,5.2507-.4723,1.0548-.9506,2.0957-1.4342,3.1241"/>
                <path class="cls-25" d="M1914.47591,638.05334l-655.0817,128.6197c1.2234-2.9633,2.3895-5.9898,3.4983-9.07641l655.0816-128.61968c-1.1088,3.0865-2.2748,6.1131-3.4982,9.0764"/>
                <path class="cls-22" d="M1917.97411,628.97694l-655.0816,128.61968c1.2557-3.49488,2.4376-7.06568,3.5477-10.70818l655.0809-128.6197c-1.1094,3.6425-2.2913,7.21388-3.547,10.7082"/>
                <path class="cls-18" d="M1921.52111,618.26874l-655.0809,128.6197c1.199-3.9377,2.3144-7.9591,3.3447-12.0562l655.0817-128.6197c-1.0311,4.0978-2.1458,8.1185-3.3455,12.0562"/>
                <path class="cls-37" d="M1924.86661,606.21254l-655.0817,128.6197c1.1187-4.447,2.1385-8.9835,3.0595-13.6017l655.0817-128.6198c-.921,4.6183-1.9409,9.1548-3.0595,13.6018"/>
                <path class="cls-11" d="M1927.92611,592.61074l-655.0817,128.6198c.9757-4.8884,1.8414-9.8683,2.5984-14.9286l655.0816-128.6191c-.757,5.0597-1.6226,10.0396-2.5983,14.9279"/>
                <path class="cls-23" d="M1930.52441,577.68284l-655.0816,128.6191c.7609-5.0867,1.4118-10.255,1.954-15.4939l655.0816-128.6197c-.5422,5.2395-1.1931,10.4079-1.954,15.4945"/>
                <path class="cls-24" d="M1932.47841,562.18834l-655.0816,128.6197c.5336-5.1558.9619-10.3801,1.286-15.6631l655.0816-128.6197c-.3241,5.2829-.7523,10.5073-1.286,15.6631"/>
                <path class="cls-27" d="M1933.76441,546.52524l-655.0816,128.6197c.359-5.84832.5903-11.76832.6957-17.74632l655.0816-128.61978c-.1054,5.9781-.3366,11.8981-.6957,17.7464"/>
                <path class="cls-4" d="M1934.46011,528.77884l-655.0816,128.61978c.2793-15.90558-.3334-32.223-1.8104-48.69648l655.0816-128.6197c1.4771,16.4735,2.0898,32.7909,1.8104,48.6964"/>
                <path class="cls-27" d="M1932.64971,480.08244l-655.0816,128.6197c-.4361-4.8653-.9474-9.7444-1.5337-14.6308l655.0816-128.619c.5864,4.8857,1.0976,9.7648,1.5337,14.6301"/>
                <path class="cls-24" d="M1931.11601,465.45234l-655.0816,128.619c-.4078-3.3981-.8518-6.7995-1.3315-10.2023l655.0817-128.6197c.4796,3.4027.9236,6.8048,1.3314,10.203"/>
                <path class="cls-23" d="M1929.78461,455.24934l-655.0817,128.6197c-.4367-3.0997-.9038-6.2007-1.3999-9.301l655.0816-128.6191c.4961,3.09968.9632,6.20068,1.4,9.3004"/>
                <path class="cls-11" d="M1928.38461,445.94894l-655.0816,128.6191c-.4474-2.7947-.9191-5.5887-1.4145-8.38142l655.0816-128.61968c.4955,2.79268.9672,5.58668,1.4145,8.382"/>
                <path class="cls-37" d="M1926.97011,437.56694l-655.0816,128.61968c-.4921-2.77548-1.008-5.54978-1.5475-8.32068l655.0816-128.6197c.5396,2.7709,1.0554,5.5451,1.5475,8.3207"/>
                <path class="cls-18" d="M1925.42261,429.24624l-655.0816,128.6197c-.5251-2.6965-1.0726-5.3904-1.6418-8.08032l655.0817-128.61968c.5692,2.6899,1.1166,5.3838,1.6417,8.0803"/>
                <path class="cls-22" d="M1923.78091,421.16594l-655.0817,128.61968c-.5692-2.68988-1.1608-5.37518-1.7741-8.05588l655.0816-128.6197c.6133,2.6807,1.2049,5.36658,1.7742,8.0559"/>
                <path class="cls-25" d="M1922.00671,413.11004l-655.0816,128.6197c-.6411-2.8006-1.3058-5.5953-1.9943-8.3827l655.0817-128.6197c.6884,2.7881,1.3532,5.5827,1.9942,8.3827"/>
                <path class="cls-29" d="M1920.01251,404.72734l-655.0817,128.6197c-.6963-2.8197-1.4177-5.6321-2.1628-8.4367l655.0816-128.61972c.7451,2.80462,1.4665,5.617,2.1629,8.43672"/>
                <path class="cls-28" d="M1917.84961,396.29062l-655.0816,128.61972c-.7735-2.9119-1.5733-5.8153-2.3994-8.7081l655.0816-128.6197c.8262,2.8928,1.626,5.7962,2.3994,8.70808"/>
                <path class="cls-41" d="M1915.45021,387.58254l-655.0816,128.6197c-.8538-2.9903-1.7353-5.9695-2.6438-8.9361l655.081-128.6197c.9091,2.9666,1.7906,5.9458,2.6444,8.9361"/>
                <path class="cls-15" d="M1912.80581,378.64644l-655.081,128.6197c-.9276-3.0259-1.8835-6.0379-2.8678-9.03552l655.0816-128.61968c.9843,2.9975,1.9402,6.0103,2.8672,9.0355"/>
                <path class="cls-31" d="M1909.93861,369.61094l-655.0816,128.61968c-1.0119-3.08128-2.0542-6.14668-3.126-9.19428l655.0816-128.6191c1.0719,3.0477,2.1141,6.11237,3.126,9.1937"/>
                <path class="cls-36" d="M1906.81261,360.41724l-655.0816,128.6191c-1.0811-3.07472-2.1932-6.1309-3.3356-9.168l655.0817-128.61972c1.1423,3.0371,2.2537,6.094,3.3355,9.16863"/>
                <path class="cls-38" d="M1903.47711,351.24862l-655.0817,128.61972c-1.1568-3.0766-2.3453-6.1335-3.5648-9.1673l655.0816-128.61972c1.2195,3.0338,2.4073,6.0906,3.5649,9.1673"/>
                <path class="cls-32" d="M1899.91221,342.08132l-655.0816,128.61972c-1.228-3.0562-2.487-6.09-3.7776-9.0982l655.0816-128.61972c1.2906,3.0088,2.5496,6.042,3.7776,9.0982"/>
                <path class="cls-42" d="M1896.13461,332.98312l-655.0816,128.61972c-1.3025-3.0377-2.6372-6.0504-4.0029-9.0348l655.0816-128.61982c1.3657,2.9851,2.6998,5.9972,4.0029,9.0349"/>
                <path class="cls-34" d="M1892.13171,323.94822l-655.0816,128.61982c-1.3907-3.0385-2.8138-6.0486-4.2684-9.0277l655.0809-128.61972c1.4554,2.9791,2.8784,5.9892,4.2691,9.0276"/>
                <path class="cls-3" d="M1887.86261,314.92062l-655.0809,128.61972c-1.4817-3.0331-2.9969-6.03472-4.5445-9.0013l655.081-128.61972c1.5482,2.9673,3.0634,5.9681,4.5444,9.0013"/>
                <path class="cls-39" d="M1883.31821,305.91932l-655.081,128.61972c-1.6094-3.0845-3.2545-6.1315-4.9351-9.139l655.0816-128.61972c1.6806,3.0075,3.3257,6.0551,4.9345,9.139"/>
                <path class="cls-5" d="M1878.38371,296.78032l-655.0816,128.61972c-1.7188-3.0759-3.4752-6.1111-5.2678-9.10142l655.0816-128.6197c1.7926,2.991,3.549,6.0255,5.2678,9.1014"/>
                <path class="cls-10" d="M1873.11591,287.67892l-655.0816,128.6197c-.2352-.39258-.4717-.78458-.7083-1.176l655.0817-128.6197c.2365.3914.4723.7833.7082,1.176"/>
              </g>
            </g>
          </g>
          <text class="cls-17" transform="translate(566.92082 365.16155) rotate(-10.70646)"><tspan x="0" y="0">MONEY</tspan></text>
        </g>
      </g>
    </g>
  </g>
</svg>