<?xml version="1.0" encoding="UTF-8"?>
<svg id="Layer_2" data-name="Layer 2" xmlns="http://www.w3.org/2000/svg" viewBox="0 0 147.88761 170.92708">
  <defs>
    <style>
      .cls-1 {
        fill: #166534;
      }

      .cls-2, .cls-3 {
        fill: #0f1e36;
      }

      .cls-4 {
        fill: #fff;
      }

      .cls-3 {
        font-family: FredokaOne-Regular, 'FredokaOne Regular';
        font-size: 37.7324px;
      }
    </style>
  </defs>
  <g id="OBJECTS">
    <g>
      <g>
        <path class="cls-1" d="M73.92461,170.92603c-21.69551-2.3529-41.543-13.0977-55.43651-30.2119C6.3094,125.71213,0,106.78983,0,87.46673v-53.5325c0-5.0083,3.6157-9.2685,8.5514-10.1178,21.178-3.644,41.5963-11.2274,60.0261-22.3224,3.3092-1.9922,7.42211-1.992,10.7312.0004,18.4256,11.0941,38.8464,18.6778,60.0274,22.3221,4.9358.8492,8.55151,5.1094,8.55151,10.1177v53.5332c0,19.3204-6.30761,38.2403-18.48341,53.2412-13.8938,17.1174-33.7447,27.8642-55.4423,30.2174-.0124.0014-.0249.0014-.03729,0Z"/>
        <path class="cls-4" d="M73.9649,158.36773c-.0149.002-.03.002-.0449,0-16.3247-2.1681-31.3752-10.0015-42.5381-22.1755-11.9226-13.0017-18.4892-29.8768-18.4892-47.5173v-52.3425c0-.0728.0514-.1352.12291-.1491,21.36029-4.1714,42.04829-11.9381,60.85139-22.8583.0468-.0272.1041-.0272.1509,0,18.8006,10.9207,39.487,18.6869,60.85271,22.8583.07159.0139.12289.0763.12289.1491v52.3425c0,17.6405-6.5663,34.5156-18.48889,47.5173-11.16291,12.174-26.21371,20.0074-42.53971,22.1755Z"/>
      </g>
      <text class="cls-3" transform="translate(40.70703 126.15396)"><tspan x="0" y="0">SSL</tspan></text>
      <path class="cls-2" d="M89.0522,59.86893h-5.1584l-.0611-7.3288c-.0157-2.6064-1.0718-5.2022-2.89809-7.1223-1.91151-2.0096-4.42871-3.1083-7.08781-3.0926-2.6586.0159-5.1625,1.1446-7.0501,3.1777-1.8029,1.942-2.8279,4.5505-2.8122,7.1566l.06,7.2094h-5.209c-.7998,0-1.4481.6483-1.4481,1.4481v14.75c0,7.0269,5.6963,12.7232,12.72321,12.7232h7.66639c7.0268,0,12.7232-5.6963,12.7232-12.7232v-14.75c0-.7998-.6483-1.4481-1.448-1.4481ZM68.74861,52.63093c-.00851-1.4069.55259-2.8235,1.53949-3.8865.9834-1.0594,2.25751-1.6471,3.5873-1.6551,1.3305-.0082,2.6117.5647,3.6071,1.6117.9995,1.051,1.5775,2.4608,1.586,3.8677l.0609,7.3002h-10.3205l-.06029-7.238ZM76.0694,74.80673v4.3113c0,1.1739-.9516,2.1256-2.1255,2.1256-1.1741,0-2.1256-.9517-2.1256-2.1256v-4.3113c-1.294-.7395-2.168-2.1302-2.168-3.7272,0-2.3713,1.92231-4.2935,4.2936-4.2935,2.3711,0,4.2934,1.9222,4.2934,4.2935,0,1.597-.874,2.9877-2.1679,3.7272Z"/>
    </g>
  </g>
</svg>