<?xml version="1.0" encoding="UTF-8"?>
<svg id="Layer_2" data-name="Layer 2" xmlns="http://www.w3.org/2000/svg" xmlns:xlink="http://www.w3.org/1999/xlink" viewBox="0 0 117.96383 117.84">
  <defs>
    <style>
      .cls-1 {
        fill: url(#linear-gradient-8);
      }

      .cls-2 {
        fill: url(#linear-gradient-7);
      }

      .cls-3 {
        fill: url(#linear-gradient-5);
      }

      .cls-4 {
        fill: url(#linear-gradient-6);
      }

      .cls-5 {
        fill: url(#linear-gradient-9);
      }

      .cls-6 {
        fill: url(#linear-gradient-4);
      }

      .cls-7 {
        fill: url(#linear-gradient-3);
      }

      .cls-8 {
        fill: url(#linear-gradient-2);
      }

      .cls-9 {
        fill: url(#linear-gradient);
      }
    </style>
    <linearGradient id="linear-gradient" x1="2.9673" y1="114.97974" x2="117.86417" y2=".08287" gradientUnits="userSpaceOnUse">
      <stop offset="0" stop-color="#ebff29"/>
      <stop offset="1" stop-color="#ff4800"/>
    </linearGradient>
    <linearGradient id="linear-gradient-2" x1="-7.46443" y1="104.54791" x2="107.43289" y2="-10.34941" xlink:href="#linear-gradient"/>
    <linearGradient id="linear-gradient-3" x1="-3.12614" y1="108.88593" x2="111.77097" y2="-6.01118" xlink:href="#linear-gradient"/>
    <linearGradient id="linear-gradient-4" x1="-8.49173" y1="103.5206" x2="106.40559" y2="-11.37672" xlink:href="#linear-gradient"/>
    <linearGradient id="linear-gradient-5" x1="-16.17939" y1="95.83306" x2="98.71789" y2="-19.06422" xlink:href="#linear-gradient"/>
    <linearGradient id="linear-gradient-6" x1="11.69091" y1="123.70331" x2="126.58811" y2="8.80611" xlink:href="#linear-gradient"/>
    <linearGradient id="linear-gradient-7" x1="16.7915" y1="128.80397" x2="131.68856" y2="13.90691" xlink:href="#linear-gradient"/>
    <linearGradient id="linear-gradient-8" x1="-21.27997" y1="90.73239" x2="93.61723" y2="-24.16482" xlink:href="#linear-gradient"/>
    <linearGradient id="linear-gradient-9" x1=".04303" y1="72.3888" x2="65.96608" y2="6.46576" gradientUnits="userSpaceOnUse">
      <stop offset="0" stop-color="#ebb829"/>
      <stop offset="1" stop-color="red"/>
    </linearGradient>
  </defs>
  <g id="OBJECTS">
    <g>
      <path class="cls-9" d="M76.39654,0c-17.64,0-35.90011,8.48-50.15011,21.77l3.27011,4.13c10.06-7.7,21.96-12.42,33.51-12.42,24,0,37.44,20.34,30.01989,45.44-7.42,25.1-32.88989,45.44-56.88,45.44-24,0-37.43989-20.34-30.01989-45.44,2.8-9.46,8.15989-18.25,15.05-25.53l-2.49-3.71c-7.27011,8.62-12.91011,18.6-16.06,29.24-9.62,32.54,7.81,58.92,38.91989,58.92s64.13011-26.38,73.75-58.92C124.93643,26.38,107.51654,0,76.39654,0ZM97.76654,58.56c-1.48,5.16-3.74,10.12-6.35011,14.54-2.58989,4.44-5.62,8.41-8.83989,11.83-3.21011,3.43-6.49,6.44-9.81,8.83-.41011.31-.81.62-1.21011.92-.40989.28-.82.55-1.22989.82-.81.55-1.61,1.07-2.38,1.59-1.63011.91-3.12,1.85-4.61,2.58-2.94,1.51-5.61,2.61-7.84011,3.4-1.12.37-2.12.71-3,.99-.88.24-1.64989.41-2.26.57-1.07989.26-1.70989.42-1.84989.45.14-.05.76-.26,1.81-.61.59-.2,1.33-.44,2.19-.75.84-.34,1.81-.74,2.9-1.19,2.14989-.93,4.70989-2.18,7.50989-3.84,1.42011-.8,2.82-1.82,4.35011-2.81.74-.54,1.49-1.1,2.25-1.67.39-.28.77989-.57,1.16989-.86.37-.31.75-.63,1.14011-.95.76-.64,1.55-1.28,2.33-1.96.75989-.71,1.52989-1.44,2.31-2.17.8-.72,1.51989-1.54,2.29-2.34.77-.8,1.54989-1.6,2.27-2.49,3.00989-3.42,5.79-7.36,8.23-11.66,2.45-4.33,4.39-8.98,5.84-14.01,1.39989-4.97,2.06-10.22,1.75989-15.4-.27989-5.17-1.64989-10.28-4.13-14.69-2.48-4.41-6.04-8.09-10.19-10.58-4.13989-2.5-8.74-3.9-13.18989-4.49-1.11011-.11-2.17011-.25-3.31011-.27-.55-.02-1.15989-.07-1.63989-.05h-1.61011c-2.12989.06-4.18.25-6.14989.55-7.86,1.26-14.12,3.89-18.27011,6.05-2.08,1.08-3.68,1.99-4.76,2.65-.81.5-1.32989.83-1.53989.95.2-.16.7-.53,1.45-1.08,1.01989-.74,2.53989-1.82,4.57-3.03,2.02989-1.22,4.57-2.58,7.62-3.89,3.03989-1.3,6.59989-2.53,10.63-3.34,2.01989-.4,4.13989-.69,6.36-.86.56-.02,1.12-.05,1.68-.07.63-.03,1.13,0,1.71,0,1.11-.02,2.32.09,3.51.17,4.72.48,9.73,1.78,14.29,4.45,4.54989,2.63,8.62,6.57,11.34989,11.41,2.76,4.82,4.28011,10.38,4.61011,15.94.3,5.58-.45,11.15-1.96,16.37Z"/>
      <path class="cls-8" d="M38.57564,89.567s-1.0976-.0276-3.0186-.0758c-.478-.0658-1.0073-.1385-1.58349-.2178-.57341-.0968-1.21561-.1218-1.85891-.3265-.6536-.1712-1.349-.3533-2.0822-.5452-.70689-.2794-1.4502-.5732-2.2258-.8797-.7707-.3228-1.50409-.8038-2.3049-1.2258-.78319-.4527-1.4973-1.0684-2.2871-1.6255-.7209-.6369-1.43909-1.3311-2.1454-2.0617-.3186-.3974-.64069-.799-.9659-1.2046-.334-.4011-.6584-.8157-.9145-1.2812-.2768-.4535-.5559-.9106-.837-1.3712-.3002-.4526-.4687-.9736-.7116-1.4641-.2151-.5021-.4758-.994-.6566-1.5162-.1668-.528-.3344-1.0587-.5027-1.5915l-.2521-.8034c-.0671-.2719-.1111-.5493-.1677-.8248l-.3215-1.6644c-.1795-1.117-.2124-2.2548-.3207-3.3895.03561-1.1314.0209-2.2735.1041-3.4012.1508-1.1171.2356-2.2489.4452-3.345.247-1.0942.4501-2.1635.7332-3.2558.2736-1.0003.6113-2.0565.9763-3.0719,1.4413-4.0123,3.4264-7.4966,5.3594-10.3035,1.9456-2.8061,3.8476-4.9419,5.241-6.3702.7007-.7112,1.2601-1.2628,1.65641-1.6232.39059-.3668.599-.5624.599-.5624l2.60839,3.0324s-.2017.1691-.5799.4861c-.3843.3106-.9274.7894-1.6122,1.4087-1.3614,1.2446-3.2339,3.1201-5.1907,5.6239-1.9435,2.5047-3.9799,5.6442-5.5371,9.3097-.3828.9017-.7399,1.8198-1.0851,2.8453-.3001.9427-.5578,1.9695-.8463,2.9682-.2547,1.0122-.38809,2.0551-.5932,3.094-.1367,1.045-.1802,2.1033-.2785,3.1618.0455,1.053.0114,2.1205.1195,3.1682l.2113,1.5642c.0379.2599.063.5227.1109.7797l.1934.758c.1281.5062.2558,1.0103.3828,1.512.1403.4978.359.9648.53271,1.4465.201.4691.32859.9735.58629,1.4086.2388.446.4759.8888.7111,1.328.2147.4541.49761.8589.7905,1.2524.2847.4005.5666.7972.8455,1.1896.6278.7252,1.2708,1.4225,1.9229,2.0706.7211.5683,1.3713,1.2018,2.0985,1.6782.745.4459,1.428.955,2.1563,1.3093.7376.3413,1.4445.6683,2.1167.9794.7073.2287,1.3781.4456,2.0085.6495.6249.2392,1.2459.2963,1.8064.4246.5656.1113,1.085.2135,1.5542.3058,1.915.1574,3.0092.2474,3.0092.2474Z"/>
      <path class="cls-7" d="M58.98273,78.7549s-.2487.1849-.7151.5315c-.4663.345-1.1605.8446-2.0784,1.4252-1.8236,1.171-4.5601,2.7075-8.1298,3.8628-1.7835.5671-3.7732,1.0459-5.9243,1.2479-1.0541.1246-2.2184.1426-3.3237.0848-1.1093.0143-2.2762-.1837-3.46589-.3655-2.33081-.487-4.68111-1.3544-6.80191-2.7491-2.1152-1.3981-3.9047-3.3501-5.2184-5.5712-1.2995-2.2277-2.1843-4.7183-2.5131-7.2398-.1319-.6248-.1174-1.2595-.18159-1.8858l-.06711-.9399c-.008-.3122.0138-.6228.0195-.9332.0224-.621.0447-1.2382.0668-1.851.0792-.6066.1579-1.2088.2359-1.806l.1232-.8921.1969-.8675c.1317-.5762.2621-1.147.3911-1.7117.1593-.5987.3073-1.0772.48-1.6261.1896-.539.36-1.0912.567-1.5964.7858-2.0584,1.7164-3.929,2.68971-5.5857,1.95519-3.3141,4.04419-5.776,5.58839-7.4005.7698-.8175,1.4084-1.4287,1.8509-1.8367.4429-.4083.6791-.6261.6791-.6261l1.9562,2.2745s-.2269.194-.6524.5578c-.4256.3633-1.041.9091-1.7864,1.6433-1.4955,1.458-3.53279,3.6824-5.4775,6.7101-.9679,1.5135-1.90329,3.2282-2.7099,5.1222-.2156.4732-.3789.9493-.5729,1.4335-.1747.4866-.3739,1.0601-.5181,1.5369-.1395.521-.2806,1.0477-.423,1.5794l-.2161.8024-.1438.8223c-.094.5519-.1888,1.1084-.2843,1.669-.0413.5654-.0829,1.1349-.1248,1.7078-.0163.2868-.0491.5752-.0526.8636l.031.8665c.0389.577-.0021,1.1691.10021,1.7441.21279,2.3344.941,4.6367,2.052,6.7243,1.12639,2.0791,2.69649,3.9382,4.61139,5.3107,1.91761,1.3673,4.104,2.2736,6.2974,2.821,1.1017.2079,2.1821.447,3.3179.4764,1.1256.1001,2.1552.121,3.2232.0401,2.1006-.1168,4.0687-.5114,5.8454-1.0033,3.5576-1.0038,6.33771-2.426,8.197-3.5237.93671-.5441,1.6462-1.0149,2.1263-1.3427.4791-.3288.7346-.5041.7346-.5041Z"/>
      <path class="cls-6" d="M32.94064,76.2552s-.111-.0739-.31909-.2126c-.20281-.1469-.52721-.3211-.88321-.6291-.3786-.2823-.801-.6668-1.2652-1.1334-.451-.4786-.9268-1.0519-1.3859-1.7271-.2202-.342-.43369-.7105-.65369-1.093-.18241-.3995-.41261-.7994-.57421-1.2403-.3549-.8702-.6471-1.8263-.8361-2.8396-.1163-.5041-.1498-1.0274-.2293-1.5546-.0233-.5286-.0828-1.068-.0709-1.6098.00151-1.0845.0754-2.1919.2627-3.2796.1686-1.0861.43081-2.1809.7399-3.1996.323-1.0648.701-2.0535,1.1301-3.0055.8473-1.8992,1.85681-3.5735,2.8269-4.9314.9673-1.3622,1.8852-2.4181,2.55091-3.1343.66449-.7186,1.07179-1.1046,1.07179-1.1046l2.0043,2.2322s-.3973.3149-1.0555.9121c-.65959.5949-1.5778,1.4795-2.571,2.6455-.9958,1.1618-2.057,2.6148-2.992,4.2953-.4695.8331-.911,1.7452-1.28,2.662-.3858.9603-.7063,1.923-.9554,2.9266-.2644.9963-.42219,2.0167-.5133,3.0273-.0568.5056-.0433,1.0087-.06689,1.5079.03249.4947.01849.9923.08669,1.4716.0931.9656.2885,1.889.5517,2.7427.116.4329.3012.8274.4415,1.2265.1773.3813.3504.7524.5328,1.0999.3834.6858.7942,1.2816,1.1926,1.7867.4123.4942.7924.9075,1.1384,1.2162.32331.3344.6339.5388.8222.7022.19511.1564.2992.2398.2992.2398Z"/>
      <g>
        <path class="cls-3" d="M59.00313,23.0058h0c-.7615,0-1.2135-.6173-1.0094-1.3789l.9852-3.6769c.2041-.7615.9868-1.3788,1.7483-1.3788h0c.7615,0,1.2135.6173,1.0094,1.3788l-.9852,3.6769c-.2041.7616-.9868,1.3789-1.7483,1.3789Z"/>
        <path class="cls-4" d="M38.60064,99.1488h0c-.7615,0-1.2134-.6173-1.0094-1.3788l.9852-3.6769c.20411-.7616.9868-1.3789,1.7483-1.3789h.0001c.7615,0,1.2134.6173,1.0093,1.3789l-.9852,3.6769c-.204.7615-.9868,1.3788-1.7483,1.3788Z"/>
        <path class="cls-2" d="M84.51813,57.86h0c.2041-.7615.9868-1.3788,1.7483-1.3788h3.677c.7615,0,1.2134.6173,1.0093,1.3788h0c-.204.7615-.9867,1.3788-1.7483,1.3788h-3.67689c-.76151,0-1.21341-.6173-1.00941-1.3788Z"/>
        <path class="cls-1" d="M8.37514,57.86h0c.204-.7615.9868-1.3788,1.7483-1.3788h3.6769c.7615,0,1.2134.6173,1.0094,1.3788h0c-.2041.7615-.9868,1.3788-1.7483,1.3788h-3.67689c-.76161,0-1.21351-.6173-1.00941-1.3788Z"/>
      </g>
      <path class="cls-5" d="M74.96683,35.76l2.06,1.65-25.06,17.05c-.56-.3-1.2-.46-1.92-.46-.35,0-.71.04-1.06.11L18.38684,15.21l3.47-1.78-10.26-2.93-.08,11.06,2.59-2.99,28.61,42.59c-.46,3.07,1.19,5.44,3.95,5.44,2.99,0,6.16-2.77,7.12-6.21l25.2-19.96.71,2.64,5.44-9.39-10.17,2.08ZM51.51684,60.05c-.63,2.33-2.77,4.22-4.79,4.22s-3.15-1.89-2.53-4.22c.63-2.33,2.77-4.22,4.79-4.22s3.15,1.89,2.53,4.22Z"/>
    </g>
  </g>
</svg>