<?xml version="1.0" encoding="UTF-8"?>
<svg id="Layer_2" data-name="Layer 2" xmlns="http://www.w3.org/2000/svg" viewBox="0 0 189.62722 222.3205">
  <defs>
    <style>
      .cls-1 {
        stroke-width: .62271px;
      }

      .cls-1, .cls-2 {
        fill: none;
        stroke: #153e5f;
        stroke-linecap: round;
        stroke-linejoin: round;
      }

      .cls-2 {
        stroke-width: .75px;
      }

      .cls-3 {
        fill: #f2a941;
      }

      .cls-4 {
        fill: #fdc563;
      }

      .cls-5 {
        fill: #153e5f;
      }
    </style>
  </defs>
  <g id="OBJECTS">
    <g>
      <path class="cls-3" d="M180.78382,46.3082l8.8434,8.8434-5.4291,51.1303c-3.3299,31.4407-21.8372,61.325-50.6357,81.7747l-48.2227,34.2639-9.9534-8.3247-.1689-.1448L180.78382,46.3082Z"/>
      <g>
        <g>
          <path class="cls-4" d="M98.29272,0L5.96962,46.3063.54322,97.438c-3.3374,31.4477,8.8189,61.3243,33.2767,81.7843l41.7467,34.923,49.1591-34.923c28.8004-20.46,47.2979-50.3366,50.6353-81.7843l5.4263-51.1317L98.29272,0Z"/>
          <path class="cls-1" d="M75.56662,214.1453l49.1591-34.923c28.8004-20.46,47.2979-50.3366,50.6353-81.7843"/>
        </g>
        <path class="cls-2" d="M75.56662,214.1453l49.1591-34.923c28.8004-20.46,47.2979-50.3366,50.6353-81.7843"/>
      </g>
      <g>
        <path class="cls-3" d="M43.88382,167.7145c-21.18-17.7188-31.6881-43.3328-28.8287-70.2763l4.4993-42.3962L96.54972,16.4227l68.7984,38.6193-4.4993,42.3962c-2.8594,26.9435-18.8028,52.5588-43.7435,70.2763l-39.5967,28.1302-33.6248-28.1302Z"/>
        <polyline class="cls-2" points="15.05512 97.4382 19.55442 55.042 96.54972 16.4227 165.34812 55.042 160.84882 97.4382"/>
      </g>
      <path class="cls-5" d="M109.91752,81.5642c1.1887-11.2008-6.9277-20.2808-18.1285-20.2808s-21.2444,9.08-22.433,20.2808c-.8411,7.9248,2.9884,14.77,9.2603,18.1067l-3.551,33.4605c-.5333,5.0252,3.1081,9.0989,8.1332,9.0989s9.5313-4.0737,10.0646-9.0989l3.551-33.4605c6.98-3.3367,12.2624-10.1819,13.1034-18.1067Z"/>
    </g>
  </g>
</svg>