<?xml version="1.0" encoding="UTF-8"?>
<svg xmlns="http://www.w3.org/2000/svg" xmlns:xlink="http://www.w3.org/1999/xlink" viewBox="0 0 3446 2584.5">
  <defs>
    <style>
      .cls-1 {
        mask: url(#mask);
      }

      .cls-2 {
        fill: #c54c64;
      }

      .cls-2, .cls-3, .cls-4, .cls-5, .cls-6, .cls-7, .cls-8, .cls-9, .cls-10, .cls-11, .cls-12, .cls-13, .cls-14, .cls-15, .cls-16, .cls-17, .cls-18, .cls-19, .cls-20, .cls-21, .cls-22 {
        stroke: #829be5;
        stroke-width: .75189px;
      }

      .cls-2, .cls-3, .cls-4, .cls-6, .cls-7, .cls-9, .cls-10, .cls-11, .cls-12, .cls-17, .cls-18, .cls-20, .cls-21 {
        stroke-linejoin: round;
      }

      .cls-23 {
        filter: url(#luminosity-noclip);
      }

      .cls-3 {
        fill: #70a5e7;
      }

      .cls-3, .cls-4, .cls-7, .cls-10, .cls-11, .cls-20 {
        stroke-linecap: round;
      }

      .cls-24, .cls-5 {
        fill: #dae3f8;
      }

      .cls-4, .cls-13 {
        fill: #9f6bee;
      }

      .cls-5, .cls-8, .cls-13, .cls-14, .cls-15, .cls-16, .cls-19, .cls-22 {
        stroke-miterlimit: 10;
      }

      .cls-25 {
        fill: url(#New_Gradient_Swatch);
      }

      .cls-26 {
        fill: url(#radial-gradient);
      }

      .cls-6, .cls-27, .cls-15 {
        fill: #de7c8a;
      }

      .cls-7 {
        fill: #8465dc;
      }

      .cls-8, .cls-28, .cls-17 {
        fill: #829be5;
      }

      .cls-9, .cls-14, .cls-20 {
        fill: #fff;
      }

      .cls-10, .cls-22 {
        fill: #80c1f7;
      }

      .cls-11 {
        fill: #e8ecf6;
      }

      .cls-29 {
        isolation: isolate;
      }

      .cls-30 {
        mask: url(#mask-1);
      }

      .cls-31, .cls-32 {
        mix-blend-mode: multiply;
      }

      .cls-12 {
        fill: #e16e7e;
      }

      .cls-32 {
        fill: url(#_Безымянный_градиент_2);
      }

      .cls-16, .cls-21 {
        fill: #efcb5d;
      }

      .cls-33 {
        opacity: .52;
      }

      .cls-18, .cls-19, .cls-34 {
        fill: #dfb354;
      }
    </style>
    <radialGradient id="radial-gradient" cx="-1874.69405" cy="4242.58237" fx="-1874.69405" fy="4242.58237" r="3706.18209" gradientTransform="translate(616.08031 5448.85316) rotate(-180)" gradientUnits="userSpaceOnUse">
      <stop offset="1" stop-color="#1f3594"/>
      <stop offset="1" stop-color="#0b1157"/>
    </radialGradient>
    <filter id="luminosity-noclip" x="916.96683" y="-89.7292" width="6613.44754" height="2592" color-interpolation-filters="sRGB" filterUnits="userSpaceOnUse">
      <feFlood flood-color="#fff" result="bg"/>
      <feBlend in="SourceGraphic" in2="bg"/>
    </filter>
    <filter id="luminosity-noclip-2" x="916.96683" y="-10916.42658" width="6613.44754" height="32766" color-interpolation-filters="sRGB" filterUnits="userSpaceOnUse">
      <feFlood flood-color="#fff" result="bg"/>
      <feBlend in="SourceGraphic" in2="bg"/>
    </filter>
    <mask id="mask-1" x="916.96683" y="-10916.42658" width="6613.44754" height="32766" maskUnits="userSpaceOnUse"/>
    <linearGradient id="_Безымянный_градиент_2" data-name="Безымянный градиент 2" x1="-435.54362" y1="3432.04997" x2="-6964.13889" y2="4574.4666" gradientTransform="translate(616.08031 5448.85316) rotate(-180)" gradientUnits="userSpaceOnUse">
      <stop offset="0" stop-color="#333"/>
      <stop offset=".20582" stop-color="#353535"/>
      <stop offset=".35069" stop-color="#3f3f3f"/>
      <stop offset=".47694" stop-color="#4e4e4e"/>
      <stop offset=".59247" stop-color="#646464"/>
      <stop offset=".70079" stop-color="#818181"/>
      <stop offset=".80361" stop-color="#a3a3a3"/>
      <stop offset=".90176" stop-color="#cdcdcd"/>
      <stop offset=".99473" stop-color="#fcfcfc"/>
      <stop offset="1" stop-color="#fff"/>
    </linearGradient>
    <mask id="mask" x="916.96683" y="-89.7292" width="6613.44754" height="2592" maskUnits="userSpaceOnUse">
      <g class="cls-23">
        <g class="cls-30">
          <path class="cls-32" d="M7530.41437,2502.2708H916.96683s886.97678-210.24,1248.39-1272.96c4.23562-12.4537,8.55288-24.79637,12.94733-37.02931C2455.02464,421.97984,3188.05635-89.7292,4006.50238-89.7292h3523.91198v2592Z"/>
        </g>
      </g>
    </mask>
    <radialGradient id="New_Gradient_Swatch" data-name="New Gradient Swatch" cx="-3607.61029" cy="4242.58237" fx="-3607.61029" fy="4242.58237" r="2511.37792" gradientTransform="translate(616.08031 5448.85316) rotate(-180)" gradientUnits="userSpaceOnUse">
      <stop offset=".00722" stop-color="#1f3594"/>
      <stop offset="1" stop-color="#0b1157"/>
    </radialGradient>
  </defs>
  <g class="cls-29">
    <g id="Layer_1" data-name="Layer 1">
      <path class="cls-26" d="M-2548.86563,2425.9508v220.32H7530.41437V-233.7292h-4092.9673c-650.93126,0-1249.15565,363.87562-1542.69202,944.90582-42.29726,83.72246-78.69658,172.0813-106.65,264.69418-303.81898,1006.56-1136.07994,1277.28-1948.18088,1311.84-812.10224,34.56-2388.78981,138.24-2388.78981,138.24Z"/>
      <g class="cls-1">
        <path class="cls-25" d="M7530.41437,2502.2708H916.96683s886.97678-210.24,1248.39-1272.96c4.23562-12.4537,8.55288-24.79637,12.94733-37.02931C2455.02464,421.97984,3188.05635-89.7292,4006.50238-89.7292h3523.91198v2592Z"/>
      </g>
    </g>
    <g id="Layer_3" data-name="Layer 3">
      <g>
        <g>
          <g class="cls-31">
            <path class="cls-24" d="M2592.35774,1736.71858c77.1979,44.57021,77.6048,116.84776.90868,161.41898l-655.93245,381.18616c-76.69613,44.57071-201.43829,44.54866-278.63612-.02155l-660.18413-381.15759c-77.19783-44.57021-77.6439-116.82521-.94777-161.39642l655.93245-381.18616c76.69613-44.57071,201.47738-44.57121,278.67521-.001l660.18413,381.15759Z"/>
          </g>
          <g class="cls-29">
            <path class="cls-28" d="M2673.05144,1653.64518l-721.5265,419.30542c-84.36544,49.02789-221.58202,49.00333-306.49983-.02356l-726.2042-419.27385c-42.74233-24.67758-64.09496-57.07014-64.00324-89.41157l-.18645,45.10098c-.09172,32.34093,21.2609,64.73399,64.00324,89.41107l726.2037,419.27435c84.91781,49.02738,222.13434,49.05144,306.50033.02306l721.526-419.30542c41.91185-24.35632,62.89258-56.23464,62.9828-88.16058l.18695-45.10148c-.09072,31.92644-21.07095,63.80476-62.9828,88.16158Z"/>
            <path class="cls-14" d="M2672.05205,1476.08406c84.91788,49.02738,85.36538,128.53324.99939,177.56113l-721.5265,419.30542c-84.36599,49.02789-221.58252,49.00383-306.50033-.02356l-726.2032-419.27385c-84.91781-49.02738-85.40799-128.50818-1.0425-177.53607l721.5265-419.30542c84.36599-49.02789,221.62512-49.02889,306.54293-.0015l726.2037,419.27385Z"/>
          </g>
        </g>
        <g>
          <g>
            <g class="cls-29">
              <polygon class="cls-3" points="1961.41212 575.1139 1990.30229 558.32471 1986.50169 581.35735 1957.61152 598.14655 1961.41212 575.1139"/>
              <polygon class="cls-10" points="1814.75649 351.35417 1843.64666 334.56497 1865.51301 342.52102 1836.62284 359.30971 1814.75649 351.35417"/>
              <path class="cls-3" d="M1891.07822,371.73847l28.89017-16.7892c-11.05747,6.42589-17.91339,20.0906-17.96852,39.5121-.11077,39.05701,27.37705,86.66801,61.3995,106.31104l-28.89017,16.7887c-34.02246-19.64253-61.51027-67.25402-61.3995-106.31053.05513-19.422,6.91105-33.08622,17.96852-39.5121Z"/>
              <path class="cls-3" d="M2007.20325,505.05366l-28.89017,16.7892c-11.19631,6.50658-26.69942,5.59339-43.80388-4.28175l28.89017-16.7887c17.10445,9.87514,32.60757,10.78833,43.80388,4.28125Z"/>
              <path class="cls-3" d="M2050.69237,581.42401l-28.89017,16.7892c5.20346-3.02424,9.8997-7.72449,14.00002-14.37642l28.89022-16.7892c-4.10037,6.65193-8.79712,11.35268-14.00007,14.37642Z"/>
              <path class="cls-10" d="M1847.56905,295.33705l28.89017-16.7887c5.66206-3.29038,11.92455-4.58999,18.67226-4.24767l-28.89022,16.7892c-6.74766-.34232-13.0101.95679-18.67221,4.24717Z"/>
              <polygon class="cls-10" points="2023.00508 555.58866 2051.89525 538.79996 2064.69245 567.04759 2035.80222 583.83679 2023.00508 555.58866"/>
              <polygon class="cls-3" points="1866.24126 291.08988 1895.13148 274.30068 1913.44327 299.33161 1884.5531 316.12031 1866.24126 291.08988"/>
              <path class="cls-10" d="M2032.76445,534.2646l28.89017-16.7892c-2.28397,8.20715-5.58136,15.34023-9.75937,21.32456l-28.89017,16.7892c4.178-5.98433,7.47545-13.11741,9.75937-21.32456Z"/>
              <path class="cls-10" d="M1884.5531,316.12031l28.88967-16.7887c7.27642-.58089,15.1388.15537,23.3895,2.32106l-28.88967,16.7892c-8.25126-2.16569-16.11358-2.90245-23.3895-2.32156Z"/>
              <path class="cls-10" d="M2023.20206,439.80845l28.89022-16.7887c4.16341,10.80036,7.40919,21.71048,9.6726,32.50583l-28.89017,16.7892c-2.26342-10.79535-5.50869-21.70547-9.67266-32.50633Z"/>
              <path class="cls-10" d="M1961.8226,349.47417l28.88967-16.7892c8.2698,7.33456,16.11007,15.6645,23.39201,24.61243l-28.89017,16.7892c-7.28143-8.94842-15.12221-17.27787-23.3915-24.61243Z"/>
              <path class="cls-10" d="M2054.78066,489.29243l28.89017-16.7892c5.4711,23.41556,4.83307,40.40524-.14986,52.92772l-28.89017,16.7892c4.98343-12.52298,5.62146-29.51216.14986-52.92772Z"/>
              <polygon class="cls-3" points="2032.87471 472.31478 2061.76488 455.52558 2083.67083 472.50323 2054.78066 489.29243 2032.87471 472.31478"/>
              <path class="cls-10" d="M1911.77578,295.42777l28.89017-16.7892c8.55002,1.83038,16.50752,4.99446,23.95987,9.29726,7.90443,4.56393,15.23999,10.40842,22.10142,17.29641l-28.89017,16.7892c-6.86143-6.88799-14.19699-12.73299-22.10142-17.29641-7.45234-4.3028-15.40989-7.46688-23.95987-9.29726Z"/>
              <polygon class="cls-3" points="1957.83706 322.02144 1986.72723 305.23224 1990.71277 332.68497 1961.8226 349.47417 1957.83706 322.02144"/>
              <polygon class="cls-3" points="2035.85685 426.02946 2064.74652 409.24026 2052.09228 423.01975 2023.20206 439.80845 2035.85685 426.02946"/>
              <polygon class="cls-3" points="1985.2141 374.08659 2014.10427 357.2974 2032.26982 352.98808 2003.3796 369.77728 1985.2141 374.08659"/>
              <path class="cls-11" d="M2054.6308,542.22015l-21.86635-7.95555c-2.28391,8.20715-5.58136,15.34023-9.75937,21.32406l12.79714,28.24813c-8.55849,13.88474-19.7147,19.26663-32.65619,18.64765l-18.31134-25.06852c-7.27642.61898-15.13824-.15537-23.42258-2.30201l-3.8006,23.03265c-8.563-1.85143-16.53108-5.02253-23.99345-9.33084-7.89139-4.55591-15.21588-10.38436-22.06784-17.26283l-3.98554-27.45273c-8.2693-7.37215-16.10957-15.6645-23.3915-24.65002l-18.19807,4.29077c-16.3291-19.2551-26.5651-37.92931-32.44418-56.23364l12.62172-13.79804c-4.13089-10.78181-7.40974-21.67339-9.63958-32.48728l-21.90645-16.94006c-5.47105-23.41556-4.83307-40.44233.14986-52.92772l21.86635,7.95555c2.28447-8.20715,5.58136-15.34023,9.75987-21.32406l-12.79764-28.28572c8.55899-13.88474,19.7152-19.26663,32.65619-18.61006l18.31184,25.03043c7.27592-.58089,15.13824.15587,23.3895,2.32156l3.83318-23.0141c8.54997,1.83038,16.50752,4.99446,23.95987,9.29726,7.90443,4.56343,15.23999,10.40842,22.10142,17.29641l3.98554,27.45273c8.2693,7.33456,16.11007,15.664,23.3915,24.61243l18.16549-4.30932c16.36217,19.27365,26.5651,37.9664,32.47726,56.25218l-12.6548,13.77899c4.16397,10.80086,7.40924,21.71098,9.67266,32.50633l21.90595,16.97765c5.4716,23.41556,4.83357,40.40474-.14986,52.92772ZM1934.5092,517.56111c33.98988,19.62449,61.65762,3.85724,61.76839-35.19978.11077-39.0941-27.37705-86.7056-61.36693-106.32958-34.02246-19.64303-61.6902-3.87578-61.80097,35.21882-.11077,39.05651,27.37705,86.66801,61.3995,106.31053"/>
              <path class="cls-10" d="M2003.3796,369.77728l28.89022-16.7892c16.36212,19.27365,26.56505,37.9664,32.4767,56.25218l-28.88967,16.7892c-5.91216-18.28578-16.11508-36.97854-32.47726-56.25218Z"/>
            </g>
            <g class="cls-29">
              <polygon class="cls-7" points="2179.48924 446.96959 2197.11845 436.72457 2194.7994 450.77972 2177.16969 461.02475 2179.48924 446.96959"/>
              <polygon class="cls-4" points="2089.99648 310.42618 2107.62619 300.18115 2120.96913 305.03577 2103.33998 315.2813 2089.99648 310.42618"/>
              <path class="cls-7" d="M2180.70165,401.60448c-20.76115-11.9867-37.53487-41.03976-37.46721-64.87332.03358-11.85138,4.2171-20.18984,10.96475-24.11073l-17.62921,10.24503c-6.74766,3.92089-10.93117,12.25935-10.96475,24.11073-.06766,23.83356,16.706,52.88713,37.46721,64.87332,10.43749,6.02593,19.89764,6.58326,26.73,2.61326l17.62971-10.24553c-6.83236,3.97051-16.29301,3.41317-26.7305-2.61276Z"/>
              <path class="cls-7" d="M2233.96968,450.82031l-17.62915,10.24503c3.17504-1.84542,6.04091-4.71379,8.5434-8.773l17.62927-10.24503c-2.50205,4.05922-5.36841,6.92759-8.54351,8.773Z"/>
              <path class="cls-4" d="M2110.01942,276.24333l17.62921-10.24503c3.45527-2.00781,7.27698-2.80071,11.39478-2.59171l-17.62971,10.24503c-4.11736-.209-7.93901.5839-11.39428,2.59171Z"/>
              <polygon class="cls-4" points="2217.07423 435.05507 2234.70394 424.81004 2242.5132 442.04731 2224.88393 452.29234 2217.07423 435.05507"/>
              <polygon class="cls-7" points="2121.4137 273.65163 2139.04341 263.4066 2150.21722 278.68067 2132.58795 288.9262 2121.4137 273.65163"/>
              <path class="cls-4" d="M2223.02999,422.04241l17.62921-10.24503c-1.39378,5.00799-3.40565,9.36091-5.95526,13.01266l-17.62971,10.24503c2.55011-3.65174,4.56192-8.00467,5.95576-13.01266Z"/>
              <path class="cls-4" d="M2132.58795,288.9262l17.62926-10.24503c4.44007-.35485,9.23756.09473,14.27262,1.41639l-17.62921,10.24503c-5.03506-1.32166-9.83254-1.77124-14.27267-1.41639Z"/>
              <path class="cls-4" d="M2217.19452,364.40341l17.62971-10.24503c2.54058,6.59028,4.52138,13.24822,5.90213,19.83549l-17.62921,10.24503c-1.38081-6.58727-3.36155-13.24521-5.90263-19.83549Z"/>
              <path class="cls-4" d="M2179.73934,309.27893l17.62971-10.24503c5.04608,4.47572,9.83054,9.55889,14.27418,15.01946l-17.62971,10.24503c-4.44314-5.46057-9.22809-10.54374-14.27418-15.01946Z"/>
              <path class="cls-4" d="M2236.46466,394.59921l17.62971-10.24503c3.33849,14.28871,2.94906,24.65603-.09172,32.29783l-17.62915,10.24503c3.04072-7.6418,3.43015-18.00912.09116-32.29783Z"/>
              <polygon class="cls-7" points="2223.09715 384.2389 2240.72636 373.99387 2254.09436 384.35418 2236.46466 394.59921 2223.09715 384.2389"/>
              <path class="cls-4" d="M2149.19978,276.29897l17.62965-10.24503c5.21749,1.11667,10.07312,3.0473,14.6205,5.67308,4.82361,2.78517,9.29977,6.35171,13.48679,10.55477l-17.62921,10.24503c-4.18702-4.20306-8.66324-7.7696-13.48679-10.55477-4.54739-2.62579-9.40346-4.55641-14.62095-5.67308Z"/>
              <polygon class="cls-7" points="2177.30752 292.52682 2194.93673 282.28179 2197.36905 299.0339 2179.73934 309.27893 2177.30752 292.52682"/>
              <polygon class="cls-7" points="2224.91701 355.99478 2242.54622 345.74975 2234.82423 354.15838 2217.19452 364.40341 2224.91701 355.99478"/>
              <polygon class="cls-7" points="2194.01352 324.29839 2211.64323 314.05336 2222.72827 311.42356 2205.09862 321.66859 2194.01352 324.29839"/>
              <path class="cls-20" d="M2236.3735,426.89704l-13.34351-4.85462c-1.39384,5.00799-3.40565,9.36091-5.95576,13.01266l7.8097,17.23727c-5.22301,8.47279-12.0308,11.75715-19.92771,11.37924l-11.17425-15.29713c-4.44013.3774-9.23756-.09473-14.29272-1.40486l-2.31955,14.05515c-5.22501-1.1297-10.08765-3.06484-14.64105-5.69413-4.81553-2.78016-9.28523-6.33667-13.46624-10.53422l-2.43232-16.75211c-5.04608-4.49877-9.83054-9.55889-14.27367-15.04201l-11.10509,2.61827c-9.96436-11.74963-16.21081-23.14491-19.7984-34.31516l7.70244-8.41966c-2.52104-6.57925-4.52183-13.22567-5.88258-19.82446l-13.3675-10.33725c-3.33899-14.28871-2.94951-24.67909.09122-32.29783l13.3435,4.85512c1.39378-5.00849,3.4056-9.36141,5.9557-13.01266l-7.8097-17.26083c5.22301-8.47279,12.0308-11.75665,19.92771-11.35619l11.17425,15.27457c4.44013-.35485,9.23762.09473,14.27267,1.41639l2.33916-14.04362c5.21749,1.11667,10.07356,3.0473,14.62095,5.67308,4.82355,2.78517,9.29977,6.35171,13.48679,10.55477l2.43182,16.75211c5.04608,4.47572,9.83104,9.55889,14.27418,15.01946l11.0851-2.6298c9.98435,11.76116,16.21075,23.16797,19.81839,34.32619l-7.72249,8.40863c2.54108,6.59028,4.52183,13.24822,5.90263,19.83549l13.3675,10.36031c3.33899,14.28871,2.94956,24.65603-.09116,32.29783ZM2163.07244,411.84951c20.74116,11.97517,37.62508,2.35364,37.69224-21.47943.06766-23.85662-16.706-52.90968-37.44716-64.88485-20.76171-11.9867-37.64513-2.36516-37.71279,21.49095-.06716,23.83356,16.7065,52.88713,37.46771,64.87332"/>
              <path class="cls-4" d="M2205.09862,321.66859l17.62965-10.24503c9.9844,11.76116,16.21031,23.16797,19.81795,34.32619l-17.62921,10.24503c-3.60764-11.15822-9.83404-22.56503-19.81839-34.32619Z"/>
            </g>
            <g>
              <g class="cls-29">
                <path class="cls-28" d="M2438.08237,633.19998l11.59576-6.73863c3.10393-1.80382,7.39922-1.55021,12.14809,1.19135l-11.59626,6.73863c-4.74837-2.74156-9.04415-2.99467-12.14758-1.19135Z"/>
                <path class="cls-28" d="M2726.71994,988.01951l-11.59576,6.73863c3.06384-1.78076,4.96338-5.56432,4.97842-10.95122l11.59576-6.73863c-.01504,5.3869-1.91458,9.17046-4.97842,10.95122Z"/>
                <polygon class="cls-28" points="2720.59477 810.19375 2732.19061 803.45461 2731.69836 977.06829 2720.1026 983.80692 2720.59477 810.19375"/>
                <polygon class="cls-28" points="2450.22996 634.39133 2461.82622 627.6527 2715.12418 773.89434 2703.52841 780.63297 2450.22996 634.39133"/>
                <path class="cls-28" d="M2703.52841,780.63297l11.59576-6.73863c9.45414,5.45857,17.09744,18.69727,17.06643,29.56027l-11.59583,6.73914c.03107-10.86351-7.61223-24.10221-17.06636-29.56078Z"/>
                <path class="cls-14" d="M2703.52841,780.63297c9.45414,5.45857,17.09744,18.69727,17.06636,29.56078l-.49218,173.61317c-.03057,10.86351-7.72399,15.20741-17.17763,9.74884l-253.29845-146.24164c-9.45414-5.45807-17.06235-18.63662-17.03178-29.49963l.49218-173.61368c.03107-10.86351,7.68941-15.26755,17.14304-9.80949l253.29845,146.24164Z"/>
              </g>
              <g>
                <polygon class="cls-6" points="2496.82051 761.44002 2496.63055 828.43141 2476.28684 816.68579 2476.4768 749.6949 2496.82051 761.44002"/>
                <polygon class="cls-16" points="2535.74871 749.65981 2535.46202 850.85059 2515.11832 839.10547 2515.405 737.91469 2535.74871 749.65981"/>
                <polygon class="cls-6" points="2573.57778 791.69145 2573.34823 872.72446 2553.03961 860.99889 2553.26916 779.96587 2573.57778 791.69145"/>
                <polygon class="cls-16" points="2611.64893 760.67619 2611.26952 894.61788 2590.92582 882.87276 2591.30522 748.93057 2611.64893 760.67619"/>
                <polygon class="cls-16" points="2688.85686 805.25241 2688.47738 939.19411 2668.13367 927.44848 2668.51358 793.50679 2688.85686 805.25241"/>
                <polygon class="cls-6" points="2650.42226 803.6155 2650.101 917.03756 2629.75729 905.29193 2630.07856 791.86987 2650.42226 803.6155"/>
                <polygon class="cls-28" points="2535.89205 699.20551 2535.87251 706.08548 2473.02052 669.7981 2473.04014 662.91813 2535.89205 699.20551"/>
                <polygon class="cls-28" points="2691.41842 953.38508 2691.40038 959.7423 2476.23322 835.51587 2476.25126 829.15865 2691.41842 953.38508"/>
              </g>
            </g>
            <g class="cls-29">
              <polygon class="cls-8" points="2531.11919 1161.88729 2549.50715 1151.20171 2605.75983 1259.74308 2587.37181 1270.42866 2531.11919 1161.88729"/>
              <path class="cls-18" d="M2612.75358,1256.48929l-18.38796,10.68609c15.33866-8.91384,25.07146-27.49734,25.91147-53.81284l18.38752-10.68558c-.83951,26.31551-10.57281,44.899-25.91104,53.81234Z"/>
              <path class="cls-21" d="M2620.27709,1213.36253c-.9613,30.12012-13.573,50.11048-32.90528,57.06613l-56.25262-108.54138,89.1579,51.47524Z"/>
              <polygon class="cls-18" points="2531.11919 1161.88729 2549.50715 1151.20171 2638.66461 1202.67695 2620.27709 1213.36253 2531.11919 1161.88729"/>
              <path class="cls-9" d="M2531.41991,1055.84941l-.30072,106.03788,56.25262,108.54138c-15.40739,5.62747-35.17071,2.89243-56.53329-9.44161-49.30561-28.46666-89.11142-97.46034-88.95053-154.06838.16038-56.65565,40.22631-79.53593,89.53193-51.06927Z"/>
              <path class="cls-8" d="M2467.93334,1049.63102l18.38803-10.68609c16.22234-9.42757,38.68562-8.09989,63.486,6.21889l-18.38746,10.68558c-24.80095-14.31878-47.26373-15.64596-63.48657-6.21839Z"/>
              <polygon class="cls-8" points="2531.41991 1055.84941 2549.80737 1045.16382 2549.50715 1151.20171 2531.11919 1161.88729 2531.41991 1055.84941"/>
              <path class="cls-6" d="M2554.43645,1029.30836c53.88602,31.11149,97.46886,106.59973,97.29344,168.51898-.00401,1.29209-.00752,2.58419-.09423,3.73244l-97.528-56.30782.32879-115.9436Z"/>
              <path class="cls-2" d="M2554.43645,1029.30836l18.38759-10.68558c53.88595,31.11099,97.4688,106.59973,97.29338,168.51898-.00351,1.29209-.00752,2.58369-.09423,3.73194l-18.38752,10.68609c.08671-1.14825.09022-2.44034.09423-3.73244.17542-61.91925-43.40743-137.40749-97.29344-168.51898Z"/>
            </g>
            <g>
              <g class="cls-29">
                <path class="cls-28" d="M1401.76068,547.31284l-11.59576-6.73914c-3.10343-1.80332-7.39922-1.55021-12.14758,1.19135l11.59576,6.73914c4.74837-2.74156,9.04415-2.99517,12.14758-1.19135Z"/>
                <path class="cls-28" d="M1130.2381,932.14172l11.59626,6.73914c-3.0638-1.78076-4.96335-5.56432-4.97839-10.95122l-11.59579-6.73863c.01504,5.3864,1.91408,9.17046,4.97792,10.95072Z"/>
                <polygon class="cls-28" points="1136.36376 714.42495 1124.7675 707.68582 1125.26018 921.191 1136.85597 927.92964 1136.36376 714.42495"/>
                <polygon class="cls-28" points="1389.6131 548.50419 1378.01734 541.76506 1141.83436 678.12554 1153.43012 684.86417 1389.6131 548.50419"/>
                <path class="cls-28" d="M1153.43012,684.86417l-11.59576-6.73863c-9.4541,5.45807-17.0974,18.69727-17.06686,29.56027l11.59626,6.73914c-.03107-10.86351,7.61223-24.10221,17.06636-29.56078Z"/>
                <path class="cls-14" d="M1153.43012,684.86417c-9.45414,5.45857-17.09744,18.69727-17.06636,29.56078l.49221,213.50468c.03054,10.86351,7.72349,15.20741,17.1776,9.74884l236.18298-136.35998c9.45414-5.45857,17.06235-18.63662,17.03182-29.50013l-.49222-213.50468c-.03107-10.86351-7.68891-15.26806-17.14304-9.80949l-236.18298,136.35998Z"/>
              </g>
              <g>
                <path class="cls-17" d="M1205.62409,682.61679c.3779-.21852.75481-.42903,1.13121-.63201l-.31375,14.04563c-.23607.12781-.47213.26012-.7087.39645-1.0871.6275-2.18072,1.35073-3.27534,2.1707-.55433.41499-1.10865.85455-1.66298,1.31966-.79841.6701-1.59632,1.39233-2.39072,2.16769-11.76363,11.45793-17.99709,29.85097-13.88725,41.05179.35485.97233.77586,1.85845,1.25654,2.65887,3.64319,6.06452,10.70911,7.19372,18.3925,3.44926.57989-.28268,1.16278-.59242,1.74919-.93073.1519-.08821.30523-.17843.45763-.27015,1.67999-1.00892,3.37505-2.24487,5.05958-3.70838.23105-.20048.46161-.40697.69216-.61597.38091-.34583.76032-.70068,1.13923-1.06956,6.55419-6.39782,11.36621-14.88865,13.66873-23.13038l11.28602-1.52014c-3.51993,12.64327-10.93117,25.69402-20.98073,35.48446-.3764.36688-.75431.72524-1.13221,1.07708-.13933.12981-.27967.26012-.419.38793-3.11893,2.85634-6.27252,5.20095-9.38697,7.03585-.11725.06917-.23406.13933-.35134.207-.22454.12981-.44908.25661-.67308.38091-13.50587,7.49344-26.08699,5.3057-31.46236-6.63689-.24459-.5438-.47564-1.10565-.68962-1.69005-1.2801-3.49286-1.9061-7.43981-1.93964-11.65891-.13235-16.55263,8.85417-37.30231,23.26317-51.34594,3.69084-3.60714,7.46738-6.48202,11.17776-8.62415Z"/>
                <path class="cls-28" d="M1205.83509,713.92425c4.03767-2.33108,7.32905-.45559,7.34208,4.20306.01303,4.64011-3.2568,10.30367-7.29446,12.63475-4.05471,2.34111-7.34609.46561-7.35909-4.17399-.01306-4.65916,3.25677-10.32322,7.31147-12.66382Z"/>
                <path class="cls-15" d="M1238.56145,690.45957c2.80171,7.63829,2.49297,17.44026-.34332,27.53944l-11.28602,1.52064c1.83489-6.5587,2.05292-12.95853.23556-17.95048-3.1761-8.66174-11.60679-10.49413-20.72612-5.53876l.31375-14.04563c13.98198-7.60771,26.93198-4.84109,31.80615,8.47479Z"/>
                <path class="cls-27" d="M1206.37241,748.04394c1.67902-1.00892,3.37605-2.24538,5.05958-3.70838-1.68453,1.4635-3.37959,2.69946-5.05958,3.70838Z"/>
                <path class="cls-28" d="M1295.94083,791.94606c4.32536-2.59471,8.66124-6.62286,12.43828-11.84386-3.77754,5.222-8.11189,9.24914-12.43828,11.84386Z"/>
                <path class="cls-28" d="M1295.37551,758.6779c4.05471-2.34111,7.34605-.46511,7.35908,4.19354.01303,4.63961-3.2568,10.30367-7.31151,12.64427-4.03767,2.33158-7.32905.45559-7.34208-4.18402-.01353-4.65865,3.2568-10.32272,7.2945-12.6538Z"/>
                <path class="cls-13" d="M1297.18531,725.41176c9.86061-5.07315,19.41498-5.14833,25.83586.92321,11.55717,10.92867,8.54947,37.66368-6.70606,59.71648-.7663,1.10765-1.54771,2.18022-2.34461,3.22121-5.47661,7.15563-11.62684,12.71845-17.76052,16.39826-.22654.13633-.45308.26965-.67963.40046-.16389.09473-.32929.18845-.49268.28017-9.16294,5.14181-18.19456,6.03896-24.81842,1.74768-.41496-.26864-.82093-.55884-1.21641-.86858-.16339-.12831-.32528-.25962-.48516-.39444-.24706-.2085-.48967-.42402-.72821-.64956-2.60226-2.46741-4.48176-5.71969-5.62199-9.59247l11.56419-10.54926c.74829,2.49197,1.96771,4.6346,3.6743,6.24395.40998.38793.83901.73676,1.28658,1.04851.08871.06165.17893.12229.26868.18093,4.08525,2.66588,9.59644,2.28497,15.25298-.61197.42702-.21902.85558-.45208,1.28357-.69968.14785-.0852.29571-.17191.44306-.26062,4.32639-2.59471,8.66074-6.62185,12.43828-11.84386.21953-.30373.43755-.61046.65356-.92221,5.89912-8.53393,8.98501-18.14645,8.94492-26.03934-.02706-5.40043-1.51813-9.99543-4.57295-12.88836-4.19003-3.95146-10.42496-3.89533-16.83628-.60044l.61694-14.24009Z"/>
                <g class="cls-29">
                  <path class="cls-28" d="M1297.0585,823.27106c1.42992-.82548,2.57767-.15186,2.58222,1.49107.00448,1.62389-1.13575,3.61816-2.56568,4.44414l-102.84423,59.37716c-1.42992.82548-2.59471.16189-2.59922-1.462-.00448-1.64293,1.15226-3.64723,2.58218-4.47271l102.84473-59.37767Z"/>
                  <path class="cls-28" d="M1206.10775,810.2163c4.03767-2.33108,7.32905-.45559,7.34258,4.20356.01303,4.63961-3.2568,10.30367-7.29446,12.63475-4.05471,2.3406-7.34609.46511-7.35912-4.17449-.01353-4.65916,3.2568-10.32272,7.311-12.66382Z"/>
                  <path class="cls-27" d="M1209.81566,759.70536c-1.17535.83149-2.34866,1.59131-3.51645,2.27946,1.1678-.68815,2.34111-1.44797,3.51645-2.27946Z"/>
                  <path class="cls-17" d="M1226.52713,838.33562c-5.57234,7.8102-12.89838,15.00793-20.2971,19.30171-4.29325,2.4659-8.44973,3.9274-12.24031,4.47572-13.10835,1.91809-22.4713-7.26239-22.51691-24.29818-.04611-9.7744,3.01422-20.46149,8.08385-30.32711,6.30309-12.33203,15.84844-23.33938,26.44485-29.50514l.04558,13.88474c-6.94209,4.01912-13.10788,11.18979-17.26433,19.22854-3.24276,6.39431-5.25258,13.38254-5.25258,19.73074.04611,11.09857,6.12015,17.0819,14.6611,15.89456,2.51255-.36537,5.20697-1.32467,7.99314-2.9235,4.93281-2.87739,9.49974-7.35311,13.24521-12.60568l3.96352,3.93793s-.04564,0,0,0l3.13397,3.20568Z"/>
                  <path class="cls-28" d="M1206.05612,791.87037c.12082-.06967.24208-.13883.36237-.20599"/>
                </g>
                <path class="cls-27" d="M1215.68618,754.94898c-1.94917,1.78527-3.91237,3.37057-5.87052,4.75639,1.95816-1.38582,3.92136-2.97161,5.87052-4.75639Z"/>
                <path class="cls-28" d="M1313.97049,789.27266c-5.47761,7.15714-11.62583,12.71845-17.76052,16.39826,6.13369-3.67981,12.28391-9.24263,17.76052-16.39826Z"/>
                <g class="cls-29">
                  <path class="cls-17" d="M1296.56836,739.65185c-.42154.21652-.84406.44657-1.26707.69065-4.72181,2.72603-9.47365,7.16315-13.53992,13.04774-7.6864,11.09857-10.59884,24.06913-8.02972,32.65468l-11.56419,10.54926c-3.96349-13.14447.47968-33.02056,12.31148-50.11449,6.19784-8.97248,13.4903-15.81286,20.72713-19.99086.66008-.38091,1.32066-.74027,1.97924-1.07708l-.61694,14.24009Z"/>
                  <path class="cls-28" d="M1295.10232,662.38535c4.05471-2.3406,7.34609-.46511,7.35912,4.19404.01303,4.63961-3.25676,10.30317-7.31147,12.64427-4.0377,2.33108-7.32908.45559-7.34211-4.18402-.01303-4.65916,3.2568-10.32322,7.29446-12.6543Z"/>
                  <path class="cls-17" d="M1277.79989,664.0734c.09172-.13733.18294-.31977.27419-.45659-.09125.13683-.18247.31926-.27419.45659-3.28837,6.43992-5.25207,13.38204-5.25207,19.77635.04561,11.09857,6.12015,17.0819,14.6611,15.84895l-4.20206,15.43746c.27416-.04561.54831-.09122.82197-.13683-.27366.04561-.54781.09122-.82197.13683-13.10838,1.87248-22.4713-7.26189-22.51691-24.29818-.04561-9.7744,2.96861-20.5076,8.08436-30.37272l9.22559,3.60814h0Z"/>
                </g>
                <path class="cls-16" d="M1295.03015,631.00021c19.14584-11.05397,34.69106-2.17571,34.75321,19.82396.06265,21.98063-15.38183,48.73117-34.52717,59.78464-4.32385,2.49648-8.44823,3.98705-12.27188,4.5098l4.2196-15.4099c2.493-.35485,5.18642-1.30964,8.01268-2.94154,12.46685-7.19723,22.54498-24.65353,22.50438-38.97832-.0406-14.34434-10.18488-20.12518-22.6512-12.92795-6.9316,4.00208-13.11243,11.17225-17.25234,19.21651l-9.26114-3.59912c6.33463-12.35157,15.84139-23.33938,26.47385-29.47808Z"/>
                <path class="cls-28" d="M1369.15215,598.5846c5.38335-3.10794,9.77186-.60745,9.7894,5.57886.01754,6.20586-4.3424,13.73789-9.72579,16.84633-5.38389,3.10794-9.7724.6265-9.78994-5.57886-.01754-6.18631,4.3424-13.73789,9.72632-16.84633Z"/>
                <path class="cls-28" d="M1369.26638,638.87256c5.38339-3.10844,9.7719-.60745,9.78948,5.57886.01751,6.20536-4.34243,13.73789-9.72582,16.84583-5.38389,3.10844-9.7724.627-9.78994-5.57836-.01754-6.18631,4.3424-13.73839,9.72629-16.84633Z"/>
                <path class="cls-28" d="M1369.38066,679.16002c5.38339-3.10794,9.7719-.60745,9.78944,5.57886.01754,6.18631-4.3424,13.73789-9.72629,16.84633-5.38339,3.10844-9.7719.60745-9.7894-5.57886-.01758-6.18631,4.34236-13.73789,9.72625-16.84633Z"/>
                <path class="cls-28" d="M1369.49493,719.44798c5.38339-3.10844,9.7719-.60745,9.78944,5.57886.01754,6.18631-4.3424,13.73789-9.72625,16.84633-5.38343,3.10794-9.77193.60695-9.78947-5.57886-.01754-6.18631,4.3424-13.73839,9.72629-16.84633Z"/>
                <path class="cls-22" d="M1206.01656,777.99014c19.14584-11.05397,34.69103-2.15616,34.75321,19.82396.03756,13.2813-5.5819,28.29875-14.24263,40.52152l-7.09749-7.15212c5.6395-7.96156,9.30177-17.76353,9.27721-26.40472-.0406-14.3253-10.18438-20.10564-22.65073-12.90841l-.03956-13.88023Z"/>
              </g>
            </g>
            <g>
              <g class="cls-29">
                <path class="cls-28" d="M1402.66786,872.4488l-9.67864-5.62447c-2.59024-1.5056-6.17532-1.2941-10.13881.99438l9.67817,5.62447c3.96349-2.28848,7.54907-2.49999,10.13928-.99438Z"/>
                <path class="cls-28" d="M1176.03825,1134.08422l9.67867,5.62447c-2.55712-1.48606-4.14242-4.64412-4.15545-9.14038l-9.67867-5.62447c.01303,4.49627,1.59833,7.65433,4.15545,9.14038Z"/>
                <polygon class="cls-28" points="1181.15049 1011.93126 1171.47232 1006.30679 1171.8828 1124.94384 1181.56148 1130.5683 1181.15049 1011.93126"/>
                <polygon class="cls-28" points="1392.52858 873.44318 1382.85041 867.81871 1185.71693 981.63372 1195.3956 987.25818 1392.52858 873.44318"/>
                <path class="cls-28" d="M1195.3956,987.25818l-9.67867-5.62447c-7.89089,4.55591-14.27067,15.60536-14.2446,24.67307l9.67817,5.62447c-.02556-9.06721,6.35421-20.11717,14.24511-24.67307Z"/>
                <path class="cls-14" d="M1195.3956,987.25818c-7.89089,4.55591-14.27067,15.60586-14.24511,24.67307l.41098,118.63705c.02556,9.06721,6.44697,12.69289,14.33783,8.13698l197.13348-113.815c7.89089-4.55541,14.2411-15.55474,14.21557-24.62245l-.41098-118.63705c-.0256-9.06721-6.4179-12.74351-14.3088-8.1876l-197.13298,113.815Z"/>
              </g>
              <g>
                <polygon class="cls-28" points="1387.58224 992.12133 1387.61636 1004.08998 1224.27474 1098.39527 1224.24116 1086.42662 1387.58224 992.12133"/>
                <polygon class="cls-28" points="1387.41734 933.80871 1387.45096 945.77687 1224.10988 1040.08216 1224.07576 1028.1135 1387.41734 933.80871"/>
                <polygon class="cls-28" points="1387.50004 962.96502 1387.53362 974.97277 1224.19254 1069.27806 1224.15846 1057.27031 1387.50004 962.96502"/>
                <polygon class="cls-28" points="1324.94176 940.75284 1324.97584 952.76109 1224.02715 1011.04363 1223.99307 999.03588 1324.94176 940.75284"/>
                <path class="cls-28" d="M1210.98846,1008.86291c1.77572-1.02495,3.21466-.20499,3.22068,1.83539.00551,2.04089-1.42391,4.51681-3.19966,5.54227-1.77575,1.02546-3.2147.20499-3.22071-1.83539-.00551-2.04039,1.42391-4.51681,3.19969-5.54227Z"/>
                <path class="cls-28" d="M1211.07113,1037.90194c1.77575-1.02546,3.2147-.1659,3.22024,1.87449.00598,2.00129-1.42341,4.51681-3.19969,5.54177-1.77575,1.02546-3.2147.1664-3.22021-1.83489-.00601-2.04089,1.42341-4.55641,3.19966-5.58136Z"/>
                <path class="cls-28" d="M1211.15386,1067.09734c1.77572-1.02495,3.21466-.20499,3.22018,1.83539.00601,2.04039-1.42391,4.51681-3.19966,5.54227-1.77575,1.02495-3.2147.20499-3.22021-1.83539-.00601-2.04089,1.42341-4.51681,3.19969-5.54227Z"/>
                <path class="cls-28" d="M1211.23602,1096.21455c1.77575-1.02546,3.2152-.1659,3.22074,1.87449.00598,2.00129-1.42394,4.51681-3.19969,5.54227-1.77575,1.02546-3.2147.1659-3.22068-1.83539-.00555-2.04039,1.42388-4.55591,3.19963-5.58136Z"/>
              </g>
            </g>
          </g>
          <g>
            <g class="cls-29">
              <path class="cls-28" d="M1890.66323,547.66669l48.28561-28.06068c-47.87913,27.82462-77.60826,86.9166-77.84638,170.81297-.4786,168.91493,118.72074,375.37625,265.69113,460.22991l-48.28561,28.06018c-146.97038-84.85366-266.16972-291.31498-265.69113-460.22941.23812-83.89687,29.96725-142.98885,77.84638-170.81297Z"/>
              <path class="cls-28" d="M2316.40104,1169.07299l-48.28561,28.06018c-48.50363,28.18749-115.63436,24.28464-189.60746-18.42411l48.28561-28.06018c73.97311,42.70825,141.10383,46.6111,189.60746,18.42411Z"/>
              <path class="cls-28" d="M1938.9328,519.61553c48.50062-28.19501,115.63085-24.30018,189.5975,18.40457l-48.28561,28.06068c-73.96665-42.70475-141.09687-46.59957-189.59749-18.40457,14.48568-8.41816,33.80043-19.64153,48.28561-28.06068Z"/>
              <path class="cls-28" d="M1888.94667,544.71412l48.28561-28.06068c48.93962-28.44009,116.67229-24.50417,191.30598,18.586l-48.28561,28.06018c-74.63369-43.08967-142.36636-47.02609-191.30598-18.5855Z"/>
              <path class="cls-28" d="M2394.25043,998.23296c-.23757,83.90389-29.96023,143.00038-77.83385,170.83051l-48.28561,28.06068c47.87362-27.83013,77.59628-86.92662,77.83385-170.83101.47915-168.88084-118.72024-375.34166-265.72014-460.21237l48.28561-28.06068c146.9999,84.8707,266.19929,291.33202,265.72014,460.21287Z"/>
              <path class="cls-28" d="M2080.25265,563.29962c148.34166,85.64506,268.61613,293.96884,268.13297,464.39087-.48316,170.45561-121.544,239.44429-269.88511,153.79923-148.31265-85.62802-268.58711-293.9518-268.10396-464.40791.4832-170.42153,121.544-239.41021,269.8561-153.78219ZM2078.50797,1178.70906c146.99995,84.8707,266.97821,16.4985,267.45735-152.41642.47865-168.88034-118.72074-375.34166-265.72019-460.21237-146.97088-84.85366-266.94914-16.48146-267.42828,152.39938-.4786,168.91442,118.72074,375.37574,265.69113,460.22941"/>
              <path class="cls-5" d="M2345.94327,1026.29314c-.45709,168.90039-120.4408,237.27359-267.4177,152.41191-34.98582-20.18733-68.41881-47.31729-99.02013-79.15151-97.92345-101.89747-167.07301-252.39079-166.70764-381.05334.5022-168.89989,120.48647-237.27259,267.46337-152.41191,29.55075,17.03629,57.95927,39.00539,84.49586,64.62824,105.55116,101.71453,181.59723,260.61197,181.18624,395.57661Z"/>
              <path class="cls-14" d="M2331.28217,1011.58643c-.50264,168.946-120.48647,237.3187-267.46337,152.41241-29.45953-16.99068-57.82244-38.91417-84.31337-64.4453-97.92345-101.89747-167.07301-252.39079-166.70764-381.05334.5022-168.89989,120.48647-237.27259,267.46337-152.41191,29.55075,17.03629,57.95927,39.00539,84.49586,64.62824,97.87779,101.89697,166.89052,252.29957,166.52514,380.8699Z"/>
              <path class="cls-28" d="M2318.11715,1172.02556l-48.28561,28.06018c48.31668-28.07823,78.314-87.71652,78.55408-172.39526.48316-170.42203-119.79131-378.74581-268.13297-464.39087l48.28561-28.06018c148.34166,85.64506,268.61613,293.96833,268.13297,464.39037-.24007,84.67924-30.2374,144.31703-78.55408,172.39576Z"/>
            </g>
            <g>
              <path class="cls-28" d="M2290.17976,994.1166c-.13683,45.9019-11.41834,82.44038-31.01169,107.88079-37.13296,48.55074-104.18099,56.68071-180.45561,12.65129-116.2388-67.13975-210.50901-230.37658-210.14313-363.97094.18244-60.24324,19.5483-104.27266,51.47374-128.34228,38.82245-29.3222,96.23391-29.04805,160.03917,7.8102,116.2388,67.13975,210.50901,230.42219,210.09752,363.97094Z"/>
              <path class="cls-14" d="M2290.17976,994.1166c-.13683,45.9019-11.41834,82.44038-31.01169,107.88079-38.82251,29.41342-96.23397,29.13927-160.08534-7.76459-116.2388-67.09414-210.50851-230.37658-210.09752-363.92533.13688-45.99312,11.464-82.5316,31.05786-107.97201,38.82245-29.3222,96.23391-29.04805,160.03917,7.8102,116.2388,67.13975,210.50901,230.42219,210.09752,363.97094Z"/>
            </g>
            <g>
              <path class="cls-28" d="M2089.11036,652.58339c2.13261,1.23095,3.85122,4.20757,3.8442,6.65844l-.09523,33.55033c-.00702,2.45037-1.73666,3.43623-3.86926,2.20478-2.13261-1.23095-3.85122-4.20757-3.8442-6.65844l.09523-33.55033c.00702-2.45037,1.73666-3.43623,3.86926-2.20478Z"/>
              <path class="cls-28" d="M1998.72295,628.26366c1.3382.77285,2.63286,2.31605,3.34401,4.14543l14.50528,37.4627c1.06049,2.75309.41745,5.09771-1.42341,5.2621-.61252.04962-1.27761-.14284-1.93268-.52125-1.33971-.77335-2.63681-2.32406-3.34902-4.17299l-14.50523-37.4627c-1.06004-2.72703-.4175-5.07164,1.42391-5.23604.61347-.04962,1.28057.14384,1.93714.52275Z"/>
              <path class="cls-28" d="M1932.39965,666.06065c.65356.3774,1.31465.95028,1.91859,1.70308l25.2254,31.35357c1.85695,2.29951,2.48445,5.37737,1.41188,6.89952-.71922,1.0034-2.01833,1.04901-3.35654.27666-.65657-.37941-1.32267-.95529-1.93413-1.7126l-25.2254-31.35357c-1.83389-2.28597-2.46139-5.36384-1.38933-6.88599.71927-1.0034,2.01883-1.04901,3.34952-.28067Z"/>
              <path class="cls-28" d="M1937.08838,772.712c2.13261,1.23145,3.85122,4.20808,3.8442,6.65844-.00702,2.45037-1.73666,3.43623-3.86926,2.20528l-29.19791-16.85736c-2.13261-1.23145-3.85122-4.20808-3.8442-6.65844.00702-2.45037,1.73666-3.43623,3.86926-2.20478l29.19791,16.85686Z"/>
              <path class="cls-28" d="M1957.12636,871.42034c1.33921.77385,2.63631,2.32457,3.34852,4.17349,1.06059,2.72703.4175,5.07164-1.44646,5.2225l-25.32062,2.19726c-.60445.05363-1.26503-.13583-1.91659-.51223-1.33319-.76934-2.6298-2.32005-3.342-4.16898-1.06004-2.72703-.4175-5.07164,1.42391-5.23604l25.32062-2.19676c.61197-.04962,1.27706.14284,1.93263.52075Z"/>
              <path class="cls-28" d="M2012.38165,967.13751c.65713.37941,1.32267.95529,1.93413,1.7126,1.83439,2.28597,2.46195,5.36434,1.38938,6.85992l-14.66968,20.61837c-.72022,1.02245-2.02184,1.07257-3.36155.29922-.65507-.3779-1.31916-.95328-1.92912-1.70859-1.83439-2.28597-2.46189-5.36384-1.38933-6.88599l14.66962-20.61837c.71922-1.0034,2.01889-1.04901,3.35654-.27716Z"/>
              <path class="cls-28" d="M2088.02877,1034.15146c2.1321,1.23095,3.85072,4.20757,3.8442,6.65794l-.09523,33.55083c-.00702,2.45037-1.73666,3.43623-3.86926,2.20478s-3.85122-4.20808-3.8442-6.65844l.09523-33.55033c.00652-2.45037,1.73666-3.43623,3.86926-2.20478Z"/>
              <path class="cls-28" d="M2163.81421,1054.56734c1.33119.76834,2.62579,2.31204,3.33699,4.14142l14.52828,37.47573c1.06004,2.75309.417,5.09771-1.44646,5.24907-.60495.05363-1.26503-.13583-1.91709-.51223-1.33269-.76934-2.6298-2.32005-3.342-4.16898l-14.52778-37.47573c-1.06004-2.72753-.417-5.07164,1.44646-5.22301.60645-.05413,1.26804.13633,1.9216.51373Z"/>
              <path class="cls-28" d="M2219.43989,1022.86744c.65206.3764,1.3112.94877,1.91358,1.69957l25.2254,31.37963c1.85695,2.29951,2.48445,5.37737,1.41244,6.87346-.72028,1.02195-2.0219,1.07257-3.36161.29922-.65507-.37841-1.31916-.95378-1.92912-1.70909l-25.2254-31.37963c-1.83439-2.28597-2.46189-5.36384-1.38933-6.85992.71972-1.02195,2.02134-1.07257,3.35403-.30323Z"/>
              <path class="cls-28" d="M2269.15342,964.43003c2.1321,1.23095,3.85072,4.20808,3.8437,6.65844-.00652,2.45037-1.73666,3.43623-3.86926,2.20478l-29.19741-16.85736c-2.13261-1.23095-3.85122-4.20757-3.8442-6.65844.00702-2.45037,1.73666-3.43623,3.86926-2.20478l29.19791,16.85736Z"/>
              <path class="cls-28" d="M2245.24819,846.68361c1.3377.77235,2.63286,2.31605,3.34401,4.14543,1.06004,2.75309.417,5.09771-1.44646,5.24857l-25.32062,2.1712c-.60595.05413-1.26804-.13633-1.9216-.51373-1.33119-.76834-2.62573-2.31204-3.33699-4.14142-1.06054-2.75309-.4175-5.09771,1.42391-5.2621l25.32012-2.1707c.61347-.04962,1.28107.14384,1.93764.52275Z"/>
              <path class="cls-28" d="M2179.35542,732.55185c.65356.3774,1.31415.95078,1.91859,1.70358,1.85644,2.299,2.48395,5.37687,1.41188,6.87296l-14.69268,20.60533c-.71972,1.02195-2.02184,1.07257-3.35403.30323-.65206-.3764-1.31114-.94877-1.91358-1.69957-1.85695-2.29951-2.48439-5.37737-1.41238-6.89952l14.69268-20.60533c.71922-1.0029,2.01883-1.04901,3.34952-.28067Z"/>
            </g>
            <g class="cls-29">
              <path class="cls-28" d="M2058.86193,855.61349l16.09509-9.35339c-3.16012,1.8364-5.11725,5.74526-5.13334,11.30557-.03158,11.19129,7.81621,24.78434,17.55553,30.4078l-16.09504,9.35339c-9.73926-5.62296-17.58761-19.21601-17.55553-30.4078.01554-5.55981,1.97322-9.46867,5.13329-11.30557Z"/>
              <path class="cls-28" d="M2099.91678,889.20893l-16.09509,9.35339c-3.20111,1.85995-7.63628,1.59432-12.53752-1.23546l16.09504-9.35339c4.90123,2.82978,9.33635,3.09541,12.53757,1.23546Z"/>
              <path class="cls-28" d="M2045.98009,833.44842l16.09504-9.35339c6.51209-3.78406,15.52918-3.25279,25.4785,2.49147l-16.09554,9.35339c-9.94882-5.74375-18.96591-6.27553-25.478-2.49147Z"/>
              <path class="cls-28" d="M2112.79456,911.36798l-16.09548,9.35339c6.41831-3.72993,10.39082-11.67245,10.4229-22.97551.06465-22.71889-15.86298-50.37411-35.66389-61.80598l16.09554-9.35339c19.80041,11.43187,35.72804,39.08708,35.66394,61.80598-.03213,11.30306-4.00514,19.24558-10.42301,22.97551Z"/>
              <path class="cls-14" d="M2071.45809,835.93989c19.80091,11.43187,35.72854,39.08708,35.66389,61.80598-.06415,22.75197-16.09648,31.88835-35.89695,20.45648-19.77084-11.41483-35.75756-39.03696-35.69296-61.78894.06415-22.71889,16.15518-31.88835,35.92602-20.47352ZM2071.28418,897.32686c9.73982,5.62346,17.63923,1.12169,17.67081-10.06961.03158-11.1918-7.81621-24.78484-17.55603-30.40831-9.73932-5.62346-17.63873-1.12169-17.67031,10.07011-.03208,11.1918,7.81627,24.78484,17.55553,30.4078"/>
            </g>
          </g>
          <g>
            <g class="cls-33">
              <path class="cls-24" d="M1687.15799,1527.06863c52.19747,30.13214,59.73702,107.14603,13.27733,188.27277-54.31809,94.87967-161.96934,159.49136-240.43671,144.29949-11.37574-2.20528-21.51601-5.96929-30.36921-11.08053-52.19497-30.13465-59.76108-107.14303-13.29834-188.27528,54.31805-94.90874,161.99485-159.5059,240.43716-144.29949,11.38426,2.20378,21.53205,5.96979,30.38976,11.08304Z"/>
              <path class="cls-24" d="M1757.11498,1640.49269c37.67069,21.74456,43.3538,76.86303,10.16684,134.84185-38.91517,67.95069-116.4653,114.09918-173.23526,103.10536-8.31942-1.61086-15.73618-4.36295-22.20366-8.09739-37.66668-21.74657-43.35426-76.86303-10.16684-134.84134,38.91521-67.95119,116.46534-114.09968,173.23526-103.10586,8.31942,1.61136,15.73517,4.36395,22.20366,8.09739Z"/>
            </g>
            <g>
              <g class="cls-29">
                <path class="cls-14" d="M1679.6656,1036.5898l32.19003-18.70679c-.64855.3769-1.26804.80844-1.85594,1.2951l-32.19057,18.70729c.58845-.48667,1.20789-.9187,1.85649-1.2956Z"/>
                <path class="cls-17" d="M1688.8746,1052.43674l32.19057-18.70729c-1.50661.8756-2.72402,2.28698-3.52444,4.23464-.14685.35134-.32327.71972-.44106,1.0876-2.56464,8.28634,2.21781,21.31754,10.66608,29.11521,1.54014,1.42441,3.09887,2.58118,4.62954,3.4648,1.82888,1.05603,3.61766,1.72262,5.28616,1.99177,2.28698.38342,4.37297.07167,6.09008-.92572l-32.19057,18.70679c-1.71711.99789-3.80306,1.30964-6.09008.92572-1.66849-.26914-3.45728-.93574-5.28566-1.99127-1.53117-.88412-3.0899-2.04089-4.62958-3.4648-8.44873-7.79767-13.23118-20.82937-10.66654-29.11521.11778-.36838.2942-.73676.44156-1.0876.80046-1.94766,2.01733-3.35904,3.52394-4.23464Z"/>
                <path class="cls-14" d="M1731.84553,1034.51633c-10.73024,6.23543-21.45993,12.47136-32.19012,18.70679-1.09663-.58941-2.17621-1.03999-3.22171-1.34873l32.18957-18.70679.001-.0005c1.045.30924,2.12459.75932,3.22126,1.34923Z"/>
                <path class="cls-14" d="M1731.84553,1034.51633c.02351.01253.04707.02506.07062.03759l-32.19057,18.70729c-.02356-.01303-.04707-.02556-.07017-.03809,10.73019-6.23543,21.45988-12.47136,32.19012-18.70679Z"/>
                <path class="cls-14" d="M1699.72558,1053.26121l32.19057-18.70729c.15993.08721.32031.17692.48115.26965l-32.19057,18.70729c-.16038-.09272-.32127-.18294-.48115-.26965Z"/>
                <path class="cls-14" d="M1711.59299,1091.38749c1.78126-1.05052,3.19715-2.83178,3.97356-5.34379,2.55758-8.22118-2.2379-21.23835-10.68763-29.04855-.68514-.63903-1.37028-1.23295-2.10103-1.73515-.86758-.63953-1.73566-1.23345-2.55762-1.73566-.18294-.09172-.31977-.18294-.5022-.27416-.09172-.04561-.18294-.09122-.27416-.13683-.36537-.22855-.77636-.36537-1.14173-.54831-.09172-.04561-.18294-.09122-.22855-.09122h-.04561c-.27411-.13733-.5027-.22855-.77636-.31977-.27416-.13733-.54831-.22855-.82247-.27416-.13683-.04561-.31977-.09122-.45659-.13683-.36537-.09172-.73075-.18294-1.05047-.22855-1.96375-.31977-3.83673-.13683-5.43506.59392-.2285.09122-.45659.22805-.68514.41098-.31977.13683-.63953.36537-.91369.59392-1.05047.86758-1.91809,2.05492-2.55762,3.56253-.13678.36537-.31977.73075-.41098,1.09612-2.55758,8.26679,2.19225,21.28346,10.64198,29.09366,1.55272,1.41589,3.10594,2.60323,4.65865,3.47131,1.82687,1.05052,3.60818,1.73566,5.25258,2.00981,1.05052.18244,2.05492.18244,2.96861.04561.27416,0,.59392-.04561.86758-.13733.13733,0,.22855-.04561.36588-.09122.31926-.04561.59342-.18294.91319-.31977.31977-.09122.59392-.22855.91373-.41098q.04556,0,.09117-.04561"/>
                <g>
                  <path class="cls-12" d="M1728.62928,1081.52187c-.54831-3.51692-1.55322-7.12506-2.87739-10.7332-2.23836-6.07454-5.48112-12.10348-9.50025-17.49288-1.55272-2.10103-3.33398-4.15645-5.16081-6.07454-.13737-.13733-.22859-.27416-.36588-.36537,0-.04561-.04565-.04561-.04565-.04561-.68464-.68514-1.37028-1.32467-2.05492-1.9642l-.04561-.04561c-.86808-.82197-1.78126-1.59833-2.64934-2.28347-1.87248-1.50711-3.74492-2.78617-5.57184-3.8823-1.55322-.86808-3.06033-1.59883-4.56744-2.19225-3.01472-1.18734-5.89211-1.78126-8.58651-1.78126-.68519,0-1.37033.04561-2.05547.13683-.45709.04561-.91369.13733-1.37028.22855-.13683,0-.27416.04561-.41098.09122-.36537.09122-.73075.18294-1.05052.31977-.22805.04561-.41098.13683-.63953.22805q-.04561-.04561-.04561,0c-.13683.04611-.22855.09172-.31977.09172-.5022.22805-1.00491.45659-1.4615.73075-.73071.41098-1.41589.86758-2.05542,1.41589-2.32903,1.91809-4.15595,4.74987-5.34379,8.35801-4.61254,14.98087,4.06523,38.64001,19.36587,52.7528,2.74006,2.55762,5.57184,4.65865,8.3124,6.21187,8.35801,4.84109,16.30504,5.25207,21.78616,1.27856.09122-.09122.18244-.13683.27416-.18244.59342-.45709,1.14173-.9593,1.68955-1.55322.04611-.04561.09172-.09122.13733-.13683.45664-.5027.86762-1.00491,1.27861-1.59883.09167-.13683.18289-.22805.2285-.36487.45659-.63953.86758-1.32517,1.23295-2.10153,0,0,.04611-.04561.04611-.09122.36537-.77636.68514-1.59833,1.0044-2.51201.04561-.13683.09172-.31977.13733-.45659.18248-.59392.31977-1.18734.45659-1.78126,1.05052-4.29328,1.05052-9.13487.22855-14.20451Z"/>
                  <path class="cls-17" d="M1711.50182,1091.4331c-.31981.18244-.59397.31977-.91373.41098-.31977.13683-.59342.27416-.91319.31977-.13733.04561-.22855.09122-.36588.09122-.27366.09172-.59342.13733-.86758.13733-.91369.13683-1.91809.13683-2.96861-.04561-1.64439-.27416-3.4257-.9593-5.25258-2.00981-1.55272-.86808-3.10594-2.05542-4.65865-3.47131-8.44973-7.8102-13.19956-20.82686-10.64198-29.09366.09122-.36588.2742-.73125.41098-1.09612.63953-1.50761,1.50761-2.69495,2.55762-3.56303.27416-.22805.59392-.45659.91369-.59342.22855-.18294.45664-.31977.68514-.41098,1.59833-.73125,3.47131-.91369,5.43506-.59392.31972.04561.6851.13683,1.05047.22855.13683.04561.31977.09122.45659.13683.27416.04561.54831.13683.82247.27416.27416.09122.50225.18244.77636.31926h.04561c.04561,0,.13683.04611.22855.09172.36537.18244.77636.31977,1.14173.54781.09122.04611.18244.09172.27416.13733.18244.09122.31977.18244.5022.27416.82197.5022,1.69005,1.09612,2.55762,1.73566.73125.5022,1.41589,1.09612,2.10103,1.73566,8.44973,7.8097,13.24521,20.82686,10.68763,29.04805-.7764,2.51201-2.19229,4.29328-3.97356,5.34379q-.04561.04561-.09117.04561Z"/>
                </g>
                <path class="cls-14" d="M1698.29019,1052.56204l-.00105-.0005c.47514.208.95378.43755,1.43644.69968-.48215-.26213-.9608-.49118-1.43539-.69917Z"/>
                <path class="cls-14" d="M1698.05964,1052.45779c.07614.03208.15332.07017.2295.10375l.00105.0005c-.07623-.03358-.15441-.07217-.23055-.10425Z"/>
                <path class="cls-14" d="M1698.05964,1052.45779c-.54936-.23105-1.09166-.42602-1.62544-.5839.53378.15788,1.07608.35234,1.62544.5839Z"/>
                <path class="cls-14" d="M1752.96755,1088.53166l-32.19057,18.70729c3.13751-1.82337,5.59289-4.91777,7.04236-9.26669l32.19057-18.70729c-1.44947,4.34941-3.90485,7.44382-7.04236,9.26669Z"/>
                <polygon class="cls-14" points="1727.93763 1097.50314 1760.12824 1078.79635 1760.00991 1079.26497 1727.81934 1097.97226 1727.93763 1097.50314"/>
                <polygon class="cls-2" points="1579.13636 720.6694 1611.32698 701.96261 1727.99631 1017.72062 1695.8062 1036.42791 1579.13636 720.6694"/>
                <path class="cls-2" d="M1679.6656,1036.5898l32.19003-18.70679c4.35748-2.53256,10.02049-2.58569,16.14069-.16239,1.49604.58741,3.01367,1.32066,4.54433,2.20428,2.73856,1.58129,5.51821,3.64372,8.28383,6.20887,2.76763,2.53808,5.35883,5.44353,7.62877,8.46577l-32.19057,18.70679c-2.26989-3.02173-4.86109-5.92769-7.62877-8.46527-2.76558-2.56564-5.54478-4.62808-8.28333-6.20887-1.53117-.88412-3.0483-1.61737-4.54438-2.20428-6.12065-2.4238-11.78321-2.37017-16.1406.16189Z"/>
                <path class="cls-14" d="M1716.26267,1053.30632l32.19057-18.70679c10.38787,13.91832,15.50663,31.94348,11.675,44.19682l-32.19062,18.70679c3.83167-12.25334-1.28708-30.27849-11.67495-44.19682Z"/>
                <path class="cls-6" d="M1527.51376,631.89485l69.18164,87.26594-17.55904,1.50861,116.66983,315.75851c-7.03133-2.78417-13.45872-2.29951-17.99659,1.45749l-126.80811-314.76513-18.52235,1.58981-4.96539-92.81522Z"/>
                <polygon class="cls-2" points="1527.51376 631.89485 1559.70434 613.18806 1628.88547 700.4535 1596.6954 719.16079 1527.51376 631.89485"/>
                <polygon class="cls-2" points="1716.26267 1053.30632 1748.45324 1034.59953 1907.75565 1055.65444 1875.56508 1074.36123 1716.26267 1053.30632"/>
                <polygon class="cls-2" points="1951.19415 1112.8569 1983.38422 1094.15011 1931.61277 1140.21239 1899.4227 1158.91968 1951.19415 1112.8569"/>
                <polygon class="cls-2" points="1868.5378 1049.46161 1900.72833 1030.75482 1983.38422 1094.15011 1951.19415 1112.8569 1868.5378 1049.46161"/>
                <path class="cls-6" d="M1868.5378,1049.46161l82.65635,63.39528-51.77145,46.06279-7.63478-26.99563-163.96858-33.95179c3.94996-12.72246-1.1688-30.74762-11.55667-44.66594l159.30241,21.05491-7.02728-24.89962Z"/>
              </g>
              <path class="cls-14" d="M1618.90057,893.11277c.19096-.625.3333-1.22844.43705-1.87349.56235-3.49988,2.39173-15.71412,1.81384-23.22711-.68013-8.84117-.45609-17.05584-3.62869-20.59932-3.17209-3.54399-4.70222,2.57717-5.21248,9.54786-.51022,6.97069-3.48134,9.55387-3.48134,9.55387l-13.76846-34.17583s-4.00258,14.42053-4.5128,20.54118c-.51022,6.12116-2.3802,18.87269,0,26.3536,2.38024,7.48091,2.72051,15.13173,2.72051,15.13173l-3.90134,10.55627,24.4736,4.74536,5.06012-16.55413Z"/>
              <path class="cls-14" d="M1589.36686,902.36242s1.56024-5.01952,2.1707-5.62998c.61046-.61046,6.78328-1.69556,15.46553,1.15326,8.68279,2.84882,10.98881,8.4788,10.98881,10.37835,0,1.89905-1.69556,9.15692-1.69556,9.15692l-26.92948-15.05855Z"/>
              <path class="cls-19" d="M1558.12355,959.31979s23.49776-53.88652,28.63907-56.73534c5.14131-2.84882,28.33985,1.22092,31.18867,14.24461,2.84882,13.02368-32.37902,123.56685-38.81493,132.63256-4.73484,6.66997-65.69729-18.20759-65.69729-18.20759,0,0,41.20114-65.23669,44.68448-71.93423Z"/>
              <path class="cls-14" d="M1771.14908,1123.47282s-2.54359-7.66585-3.66277-11.15872c-1.11918-3.49286-1.6279-16.65738,1.83138-20.80982,3.45928-4.15194,9.28373,16.98266,9.28373,16.98266h0l31.59169,6.54166s-4.21213,9.93629-8.75701,13.32791c-4.54483,3.39162-6.98673,5.08768-6.98673,5.08768l-1.83138,5.35833-22.31693-10.1067.84803-5.22301Z"/>
              <path class="cls-14" d="M1765.82433,1132.29093s1.56024-5.01952,2.1707-5.62998c.61046-.61046,6.78329-1.69606,15.46553,1.15276,8.68279,2.84932,10.98881,8.4793,10.98881,10.37835,0,1.89955-1.69556,9.15743-1.69556,9.15743l-26.92948-15.05855Z"/>
              <path class="cls-17" d="M1613.89207,1660.31816s5.20296,16.47645,12.42926,21.10102c7.2263,4.62507,30.35117,5.49215,42.49123-12.42926,12.14057-17.92141,12.42926-32.9524,25.4369-48.27258,13.00764-15.31968,17.34352-35.84282,10.9843-45.38166-6.35923-9.53884-26.01529-13.00764-51.45219,17.63272-25.4369,30.63986-39.8895,67.34975-39.8895,67.34975Z"/>
              <path class="cls-17" d="M1510.89151,1755.41785s27.7494,7.32253,45.09296,7.32253,28.28773,17.36407,18.71481,27.9404c-10.4255,11.51908-26.42326,15.9963-59.18274,19.4651-32.75993,3.4683-44.32212,9.63507-58.96768,5.78084-14.64506-3.85423,0-55.8843,0-55.8843l54.34265-4.62457Z"/>
              <path class="cls-5" d="M1489.88668,1290.23007s-13.09084,56.69123,11.41433,92.85582l54.68347,113.11984s38.54073,148.59979,54.72799,167.09958c0,0,30.83232,1.54169,44.70704-23.12487,13.87472-24.66606,10.14178-29.07261,0-59.35261-26.97859-80.55036-24.66601-119.47656-27.74944-140.28839-3.08288-20.81233-31.60317-150.30938-31.60317-150.30938h-106.18022Z"/>
              <path class="cls-14" d="M1525.15161,1307.95902s-5.33477,51.43365,14.70621,92.28696l-22.41416,150.91834s-60.12395,100.57881-66.29018,221.59656c0,0,15.00839,14.22055,44.70704,3.08338,18.49975-6.93711,21.37664-12.17415,33.14532-40.08247,26.97863-63.97768,64.74852-127.95536,84.79001-162.64191,20.04098-34.68705,47.01962-279.80643,47.01962-279.80643l-135.66385,14.64557Z"/>
              <polygon class="cls-14" points="1491.70603 1251.01919 1506.89791 1268.89199 1531.91981 1247.08728 1508.50626 1225.63943 1491.70603 1251.01919"/>
              <path class="cls-19" d="M1515.2058,1024.38758s-31.33703,6.86644-30.74758,66.47516c.3503,35.42281,32.45968,48.47005,50.05986,62.55978,17.6001,14.09024,98.05873,45.73951,103.12691,41.61313,5.06809-4.12588-.20854-32.17854-9.78096-37.5499-9.57192-5.37136-46.05477-64.02178-48.72767-64.23379-2.6724-.21201-32.43913-11.62834-32.43913-11.62834l-31.49144-57.23604Z"/>
              <path class="cls-14" d="M1513.43907,1332.52484s23.0557,23.41907,61.12535,21.81022c38.06915-1.60835-40.75057-85.08622-40.75057-85.08622l-20.37478,63.276Z"/>
              <path class="cls-16" d="M1677.74896,1148.38747l-4.97842,26.76508-1.41589,7.44482-4.52133,24.20646c-.04611.31977-.09172.59392-.18294.91369-2.51197,13.97596-4.20206,28.04314-4.97842,42.20204-.36533,5.29819-.54781,10.64198-.59392,15.98577-.09122,7.12506.09172,14.29573.41149,21.4664,1.18734,22.56252,2.32908,46.72387,2.05542,49.3271-.59392,5.48112-3.06028,16.94507-11.19029,27.17607-7.03384,8.8146-18.26924,16.71602-36.21872,18.99999-1.50761.18244-3.01468.36537-4.61304.45659-42.75035,3.01472-77.69051-23.29327-77.69051-23.29327l.36537-13.74792,1.09612-39.41587.41098-15.66601-5.20642,16.16821-4.24771,13.1996-5.75478,17.76704-2.74056,8.54095s-21.0098-17.35605-31.19469-30.09906c-2.64934-3.33398-4.56744-6.39381-5.16136-8.67778-2.78617-11.09857.09122-31.65128,12.74301-72.71159,10.36782-33.52477,10.82442-67.23147,6.80479-107.24126-.86758-9.08926-2.00927-18.45218-3.28787-28.22608-6.21187-46.58704,5.57184-69.46933,17.40116-75.49826.04615,0,.09126-.04561.13683-.04561,1.14228-.54781,2.23836-.9593,3.33448-1.23345.45659-.09122.86808-.18244,1.27856-.22805,13.15403-1.73566,40.74054,10.7332,40.74054,10.7332h.04611c.77636.22855,8.63217,2.37519,18.26924,5.48062,1.41589.5022,2.87739.9593,4.33889,1.4615,13.15399,4.47622,27.99803,10.36832,32.38253,15.48357,2.55762,2.96861,7.76409,8.17557,13.79302,14.06718,2.9235,2.78617,5.98333,5.75478,9.08926,8.67778,11.55517,11.05296,22.92789,21.51251,22.92789,21.51251l1.00491,3.01422,15.34624,45.03382Z"/>
              <path class="cls-14" d="M1672.40767,961.01084s-3.16357,39.67399-8.26579,60.43219c-5.10272,20.7577-29.24402,15.78128-29.24402,15.78128l-5.82244,34.70058s-39.59781-1.21792-51.45018-27.00215l5.14783-24.66255s-27.6081-35.40126-14.41501-68.69447c13.19309-33.29271,43.00045-39.84891,64.31047-37.41759,21.31002,2.43082,42.01459,17.32799,39.73914,46.8627Z"/>
              <path class="cls-17" d="M1672.44426,964.51623s-2.17471,10.93568-9.77436,12.69389c-7.59924,1.75821-7.40928,1.23897-7.40928,1.23897l-1.52114,14.39697-7.98311,1.81785s.49368-12.58363-4.99245-14.2416c-5.48614-1.65797-9.35886,15.86047-5.86655,21.08198,3.49236,5.2215,7.76559,4.32485,7.76559,4.32485,0,0-10.61491,28.17696-26.08997,31.75403-15.47455,3.57706-32.27227-6.71808-38.93923-13.71033-4.18402-4.3875-5.70065-9.07172-10.03503-21.16618-2.57216-7.17769-9.34036-19.19245-9.49373-29.21946-.41144-26.92146,10.92917-28.3198,10.92917-28.3198,0,0-3.51742-15.8279,15.57529-31.7831,19.09271-15.9552,49.19729-15.11118,65.22767-3.53296,16.02988,11.57822,19.24708,3.84019,35.81024,10.53322,5.78786,2.3386,12.64281,16.93856,8.17211,27.36201-1.74272,4.06323-6.98126,19.88511-21.37522,16.76965Z"/>
              <path class="cls-14" d="M1638.76312,1078.94069s-1.67551-18.75841-2.71951-21.5115c-1.0445-2.75309-5.98032-4.63861-28.84205-11.09356-22.86174-6.45495-28.34232-17.52145-32.4517-19.45107-4.10984-1.93012-14.19098,6.73513-14.19098,6.73513,0,0,7.35415,23.57645,37.97993,33.28168,30.62587,9.70574,40.22431,12.03933,40.22431,12.03933Z"/>
              <path class="cls-34" d="M1539.41626,1278.18874c-.03559-.00351-.06866-.00702-.1017-.01504-.61902-.1238-1.02245-.72223-.9007-1.34221.13131-.67211,13.29082-68.23838,15.06306-130.3135,1.77675-62.43749,14.38193-87.39976,14.91726-88.43323.29015-.56134.98582-.77736,1.53814-.48817.56134.2907.78037.97985.49017,1.53868-.12981.2511-12.90239,25.63287-14.66511,87.44887-1.77475,62.26758-14.97084,130.01379-15.10316,130.69041-.11528.5844-.65707.97584-1.23796.91419Z"/>
              <path class="cls-17" d="M1675.19134,1176.65966l-1.91859,24.52622c-.31926,3.92841-.54781,7.85631-.68464,11.78371-2.00981-1.73566-3.97351-3.47081-5.93772-5.25207-2.51197,13.97596-4.20206,28.04314-4.97842,42.20204-16.21382-16.57919-25.12014-36.85825-30.00734-55.08188-4.20206-15.66601-5.43501-29.82491-5.75478-38.82245-.04561-1.55322-.09122-2.923-.09122-4.15645,0,0,.04561-.04561,0-.04561,0-3.79058.13683-5.98333.13683-5.98333l46.81509,29.32271,2.4208,1.50711Z"/>
              <path class="cls-16" d="M1793.77125,1145.82884c-2.84882-13.02368-26.04736-17.09343-31.18867-14.24461-4.0923,2.26793-19.80642,36.85324-26.05083,50.87731,0-.0005-.00055-.001-.00105-.0015-11.64684-14.43256-47.08924-58.05099-62.34427-71.2962-3.69936-3.19715-7.67287-5.89211-11.78371-7.8102-16.39676-7.85581-34.34623-4.3845-38.86806,20.78126-1.68955,9.22609-.6851,18.5434,2.28397,27.67827.04561,0,0,.04561,0,.04561.63903,1.91859,1.36978,3.79108,2.19225,5.70917,2.51206,6.07454,5.89161,12.05787,9.91073,17.94948,7.71898,11.32712,17.81265,22.15204,28.72878,32.2001,1.9642,1.78126,3.9279,3.51642,5.93772,5.25207l.04565.04611c29.55075,25.62235,40.512,41.47129,60.2888,46.72337,14.58141,3.87327,26.33906-2.80522,32.28981-15.21844.02105-.02706.04912-.0421.06917-.07017,6.43591-9.06621,31.33853-85.59794,28.48971-98.62163Z"/>
            </g>
          </g>
        </g>
      </g>
    </g>
  </g>
</svg>