<?xml version="1.0" encoding="UTF-8"?>
<svg id="Layer_2" data-name="Layer 2" xmlns="http://www.w3.org/2000/svg" viewBox="0 0 114.3152 133.5725">
  <defs>
    <style>
      .cls-1 {
        fill: #fff;
      }

      .cls-2 {
        fill: #ff7a00;
      }
    </style>
  </defs>
  <g id="OBJECTS">
    <g>
      <path class="cls-1" d="M57.1572,133.5725c-15.4872-1.6761-29.757-8.8842-40.3101-20.3931C5.9835,101.3324,0,85.9554,0,69.8817V20.8247C20.34291,18.367,39.9875,11.2192,57.1572,0c17.1643,11.2182,36.8122,18.3666,57.158,20.8247v49.057c0,16.0737-5.98329,31.4507-16.8469,43.2977-10.5533,11.5089-24.8241,18.717-40.3111,20.3931Z"/>
      <path class="cls-2" d="M57.1566,125.5986c-13.0156-1.7244-25.0159-7.9679-33.9154-17.6734-9.5007-10.3607-14.7335-23.808-14.7335-37.8652V28.2499c17.079-3.3238,33.6205-9.532,48.6489-18.2691,15.02631,8.7375,31.5666,14.9453,48.6499,18.2691v41.8101c0,14.0572-5.23259,27.5045-14.7333,37.8652-8.8995,9.7055-20.9,15.949-33.9166,17.6734Z"/>
      <g>
        <path class="cls-1" d="M74.1206,63.2807h-32.1424v-16.0704c0-8.8614,7.2093-16.0707,16.0712-16.0707s16.0712,7.2093,16.0712,16.0707v16.0704ZM47.0952,58.1645h21.9084v-10.9542c0-6.0402-4.9135-10.9546-10.9542-10.9546s-10.9542,4.9144-10.9542,10.9546v10.9542Z"/>
        <path class="cls-1" d="M77.12,55.1419h-38.6465c-2.1982,0-3.9803,1.782-3.9803,3.9802v22.4428c0,5.8381,4.73271,10.5708,10.5712,10.5708h25.465c5.8381,0,10.5708-4.7327,10.5708-10.5708v-22.4428c0-2.1982-1.782-3.9802-3.9802-3.9802ZM60.3477,74.157v7.4361c0,1.2344-1.001,2.2351-2.2354,2.2351h-.6312c-1.2344,0-2.2353-1.0007-2.2353-2.2351v-7.4361c-2.00689-1.0145-3.3322-3.1817-3.08889-5.6351.25979-2.6233,2.37169-4.7644,4.99189-5.055,3.4209-.379,6.3166,2.2889,6.3166,5.6327,0,2.212-1.27,4.1233-3.1177,5.0574Z"/>
      </g>
    </g>
  </g>
</svg>