<svg id="Warstwa_2" data-name="Warstwa 2" xmlns="http://www.w3.org/2000/svg" viewBox="0 0 160 40"><defs><style>.cls-1{fill:#2d5992;}</style></defs><path class="cls-1" d="M106.36,26.5h-1.85V20.43a2.48,2.48,0,0,0,0-.39,1.64,1.64,0,0,0-1.57-1.51,5.25,5.25,0,0,0-1.81.14c-.34.09-.36.09-.36.45V26c0,.14,0,.3,0,.46H98.9c0-.11,0-.21,0-.32V18c0-.32,0-.34.28-.43a9.4,9.4,0,0,1,4.7-.44,3.67,3.67,0,0,1,.76.23,2.62,2.62,0,0,1,1.75,2.53c0,2.17,0,4.34,0,6.49a.15.15,0,0,1,0,.16"/><path class="cls-1" d="M113.92,17h1.83c0,.11,0,.23,0,.32v8.22c0,.32,0,.32-.29.45a7.66,7.66,0,0,1-1.85.44,8,8,0,0,1-2.45,0,5.08,5.08,0,0,1-1.12-.32,2.62,2.62,0,0,1-1.57-2.15,6.2,6.2,0,0,1-.07-1V17h1.87v6.07a4,4,0,0,0,.07.69,1.38,1.38,0,0,0,1,1.07,3.43,3.43,0,0,0,1.46.11c.3,0,.6-.11.92-.16.16,0,.22-.11.22-.29v-7a3.83,3.83,0,0,1,0-.48"/><path class="cls-1" d="M117.12,26.52l3.22-4.95c-1-1.51-1.94-3-3-4.59h.85c.32,0,.64,0,1,0a.47.47,0,0,1,.48.29c.52.92,1,1.81,1.59,2.72.07.12.14.21.23.37.09-.14.16-.21.21-.3q.82-1.36,1.62-2.76a.49.49,0,0,1,.5-.3c.46,0,.94,0,1.39,0a2.3,2.3,0,0,1,.35,0c-.09.14-.14.25-.21.35-.84,1.32-1.69,2.62-2.56,3.95a.47.47,0,0,0,0,.57c.92,1.37,1.81,2.76,2.7,4.13.09.16.2.3.32.5a.87.87,0,0,1-.25,0H124a.43.43,0,0,1-.41-.23l-1.85-3.09c-.07-.11-.14-.2-.23-.36a3.65,3.65,0,0,1-.27.41l-1.81,3a.49.49,0,0,1-.46.28c-.52-.05-1.11,0-1.8,0"/><path class="cls-1" d="M86.89,12.59h1.84a.66.66,0,0,1,.1.5V24.24c0,.2,0,.39,0,.62h4.29v1.59c-.25.07-5.75.1-6.25,0V15.33c0-.89,0-1.8,0-2.74"/><path class="cls-1" d="M140.21,19.6a12.31,12.31,0,0,1-.41,3.54,5.41,5.41,0,0,1-1.12,2.15,3.62,3.62,0,0,1-2.35,1.21,4.6,4.6,0,0,1-1.78-.11,3.82,3.82,0,0,1-2.43-2.17,9,9,0,0,1-.68-2.38,17.66,17.66,0,0,1-.14-3.08,9.52,9.52,0,0,1,.76-3.47,4.78,4.78,0,0,1,1.46-1.92,3.76,3.76,0,0,1,2.81-.71,3.62,3.62,0,0,1,2.42,1.28,6.09,6.09,0,0,1,.86,1.51,10.81,10.81,0,0,1,.62,3.19c0,.35,0,.64,0,1m-7.81,0c0,.55,0,1.07.11,1.62a6.77,6.77,0,0,0,.62,2.33,2.8,2.8,0,0,0,2.26,1.67,2.71,2.71,0,0,0,2.44-.89,4.28,4.28,0,0,0,.87-1.63,9.61,9.61,0,0,0,.37-2.28,13.66,13.66,0,0,0-.23-3.61,4.51,4.51,0,0,0-.94-2,2.77,2.77,0,0,0-3.86-.25,4.12,4.12,0,0,0-1.16,1.92,9.17,9.17,0,0,0-.48,3.15"/><path class="cls-1" d="M141.28,24.15a3.51,3.51,0,0,1,.34.18,6.77,6.77,0,0,0,3.29.82,2.74,2.74,0,0,0,1.26-.29,2.16,2.16,0,0,0,1.16-1.81,2.39,2.39,0,0,0-1.05-2.33,9.79,9.79,0,0,0-1.71-.93c-.57-.28-1.16-.55-1.71-.87a3,3,0,0,1-1.42-1.83,4.31,4.31,0,0,1,.23-2.83,2.82,2.82,0,0,1,2.17-1.69,5.41,5.41,0,0,1,3.77.62c.29.16.32.2.2.52s-.18.55-.27.87c-.11-.05-.23-.07-.3-.11a5.59,5.59,0,0,0-2.12-.62,3.06,3.06,0,0,0-1.28.11,2,2,0,0,0-1.37,2.2,1.94,1.94,0,0,0,.89,1.57,13.48,13.48,0,0,0,1.3.71c.57.3,1.14.55,1.69.82a4,4,0,0,1,2.13,3.91,4.16,4.16,0,0,1-.28,1.18,3.07,3.07,0,0,1-2.37,2,6.73,6.73,0,0,1-4.71-.8c-.32-.18-.32-.22-.2-.54s.16-.42.22-.62.1-.16.14-.25"/><path class="cls-1" d="M83.82,17c0-.16,0-.32,0-.45V13c0-.14,0-.28,0-.41h.91a1.27,1.27,0,0,1,0,.34V25.43a.41.41,0,0,1-.25.43,4.82,4.82,0,0,1-1.74.57,6.4,6.4,0,0,1-2.14,0,2.66,2.66,0,0,1-2.24-1.8,7.34,7.34,0,0,1-.44-2.1,11.27,11.27,0,0,1,.23-3.33c.07-.23.14-.46.23-.69a2.68,2.68,0,0,1,2.31-1.71,7.92,7.92,0,0,1,2.78.18l.25,0m0,4.64V18.37c0-.34,0-.37-.32-.43a6.61,6.61,0,0,0-2.29-.28,1.91,1.91,0,0,0-1.75,1.12A5.65,5.65,0,0,0,79.12,20a10.73,10.73,0,0,0-.05,3.15,10.2,10.2,0,0,0,.32,1.35,1.68,1.68,0,0,0,1.35,1.14,5.93,5.93,0,0,0,2.74-.18c.34-.09.34-.12.34-.48,0-1.12,0-2.22,0-3.29"/><path class="cls-1" d="M60.37,21.66a8.4,8.4,0,0,1,.28-2.54l.13-.43a2.68,2.68,0,0,1,2.13-1.83,5.25,5.25,0,0,1,2.33.09,2.55,2.55,0,0,1,1.62,1.37,4.94,4.94,0,0,1,.5,1.76c.07.83.07,1.67.07,2.49a6,6,0,0,1-.37,1.9,2.66,2.66,0,0,1-2.37,2,6.22,6.22,0,0,1-1.83,0,2.67,2.67,0,0,1-2.08-1.81,6.37,6.37,0,0,1-.41-2.16v-.78m6.12,0c0-.52,0-1.07-.11-1.59a4,4,0,0,0-.48-1.51,1.73,1.73,0,0,0-1.05-.85,3.94,3.94,0,0,0-1.53-.09A1.86,1.86,0,0,0,61.7,19a5.26,5.26,0,0,0-.3,1.23,21.72,21.72,0,0,0,0,2.42,5.24,5.24,0,0,0,.35,1.74A1.86,1.86,0,0,0,63,25.56a3.85,3.85,0,0,0,1.62.05,1.9,1.9,0,0,0,1.53-1.37,2.14,2.14,0,0,0,.09-.34,8.9,8.9,0,0,0,.27-2.2"/><path class="cls-1" d="M54.94,25c.11.28.22.53.34.8a.75.75,0,0,1-.14.12A5.21,5.21,0,0,1,50.6,26a4.57,4.57,0,0,1-2.17-2.19,7.9,7.9,0,0,1-.78-2.72,12,12,0,0,1,0-2.81,6.81,6.81,0,0,1,1.42-3.65A4.35,4.35,0,0,1,52.68,13a5.14,5.14,0,0,1,2.26.48,4,4,0,0,1,.36.18c-.11.3-.23.57-.34.87a1.9,1.9,0,0,1-.32-.16A4.21,4.21,0,0,0,52.1,14a3.33,3.33,0,0,0-2.3,1.46,5.89,5.89,0,0,0-1,2.47,10.79,10.79,0,0,0,.11,4.2,4.66,4.66,0,0,0,1.42,2.51,3.23,3.23,0,0,0,2.15.85A4.43,4.43,0,0,0,54.8,25s.07,0,.14-.05"/><path class="cls-1" d="M75.24,17h.91c.09.25.12,8.4,0,8.9a4.76,4.76,0,0,1-1.41.46,7.44,7.44,0,0,1-2.74.11,5.07,5.07,0,0,1-1-.29A2.62,2.62,0,0,1,69.53,24a5.08,5.08,0,0,1,0-.87V17.46c0-.14,0-.3,0-.46h.93c0,.16,0,.3,0,.43v5.74a4.46,4.46,0,0,0,.09,1A1.86,1.86,0,0,0,72,25.59a5.09,5.09,0,0,0,1.74,0,9.61,9.61,0,0,0,1.16-.25.31.31,0,0,0,.28-.36c0-.55,0-1.12,0-1.67V17.46c0-.16,0-.32,0-.48"/><path class="cls-1" d="M95,17c.11,0,.18,0,.25,0h1.53c.09.28.11,9.14,0,9.53H95V17Z"/><path class="cls-1" d="M58.29,26.5l-.18,0h-.68c-.1-.25-.12-13.43,0-13.9h.89c.07.27.07,13.56,0,13.88"/><path class="cls-1" d="M97.05,14.12a1.08,1.08,0,0,1-1.14,1.08,1.12,1.12,0,0,1-1.1-1.1,1.12,1.12,0,0,1,2.24,0"/><path class="cls-1" d="M127.17,15.68a.23.23,0,0,1,.34.18c0,.18.12.36.18.59a1.87,1.87,0,0,0,.26-.59c0-.18.13-.25.36-.18a9,9,0,0,1,.16,1.23c-.3,0-.2-.23-.23-.37s0-.29-.07-.43h-.06c-.07.2-.14.43-.23.64l-.12.14c0-.05-.11-.1-.13-.16-.1-.21-.14-.44-.23-.67-.23.25,0,.6-.25.8h-.07a1.8,1.8,0,0,1,.09-1.18"/><path class="cls-1" d="M126.87,15.77c-.09,0-.2.11-.32.18v1l-.23,0V16l-.34-.16c.16-.16.44-.18.85-.09,0,0,0,0,0,.07"/><path class="cls-1" d="M24,4.71a.48.48,0,0,0,.14-.06A11.18,11.18,0,0,1,28,4.07a10.51,10.51,0,0,1,8.18,4.39,10.23,10.23,0,0,1,1.85,4.29,3.17,3.17,0,0,1-.07,1.3,10.07,10.07,0,0,1-2.94,5.67,1.1,1.1,0,0,1-.14.11.1.1,0,0,0-.07,0c0-.13.07-.25.11-.38a11.56,11.56,0,0,0-.2-7.24,6.77,6.77,0,0,0-1-1.76l-.94-1.23a11.29,11.29,0,0,0-7.42-4.39c-.46,0-.89-.07-1.37-.14"/><path class="cls-1" d="M32.67,14.88a11.71,11.71,0,0,0-8.45-6.19,11.67,11.67,0,0,0-10,2.83c.05-.09.07-.18.12-.25A10.18,10.18,0,0,1,21.21,6a10.81,10.81,0,0,1,8.56,1.57,3,3,0,0,1,.62.57,10.12,10.12,0,0,1,2.26,6.42.5.5,0,0,1,0,.3"/><path class="cls-1" d="M22.21,15A11.59,11.59,0,0,0,19,33.26a.81.81,0,0,1-.23-.11,10.36,10.36,0,0,1-5.48-7.52A10.33,10.33,0,0,1,15,17.73a1.52,1.52,0,0,1,.39-.41A10,10,0,0,1,21,15c.41,0,.82,0,1.25-.07Z"/><path class="cls-1" d="M40.55,28.56a10,10,0,0,1-1.76,2.53A10.62,10.62,0,0,1,25,32.46a1.74,1.74,0,0,1-.34-.32,9.89,9.89,0,0,1-2.31-5.21c0-.43-.06-.84-.09-1.27a1.21,1.21,0,0,1,.05-.42,11.63,11.63,0,0,0,18.2,3.32"/><path class="cls-1" d="M27.33,12.84A11.6,11.6,0,0,0,12.07,23.39a1.59,1.59,0,0,1-.09-.2A10.62,10.62,0,0,1,19.24,9.85l.69-.18a3.74,3.74,0,0,1,1.82.07,10,10,0,0,1,5.37,2.88c.07.06.12.13.21.22"/><path class="cls-1" d="M30.68,35.43c-.43.11-.86.23-1.32.32a10.51,10.51,0,0,1-11.3-5.44A9.83,9.83,0,0,1,17,27.12a3.3,3.3,0,0,1,0-.94,9.94,9.94,0,0,1,3-5.91,1.54,1.54,0,0,1,.18-.16A11.56,11.56,0,0,0,30.64,35.36s0,0,0,.07"/><path class="cls-1" d="M32.76,25.18a11.44,11.44,0,0,0,6.17-8.27A11.6,11.6,0,0,0,36.1,7c.16.07.32.16.45.23a10.38,10.38,0,0,1,5.19,7.44A10.28,10.28,0,0,1,40,22.44a1.89,1.89,0,0,1-.37.38,9.89,9.89,0,0,1-5.36,2.31c-.51.05-1,.07-1.49.09,0,0,0,0,0,0"/><path class="cls-1" d="M43,16.7a8,8,0,0,1,.46,1.78,10.61,10.61,0,0,1-8.59,11.9,3.45,3.45,0,0,1-1.28,0,10.1,10.1,0,0,1-5.8-3.06.33.33,0,0,1-.06-.12A11.6,11.6,0,0,0,43,16.7"/><path class="cls-1" d="M31.73,15.26l-.13-.13a11.68,11.68,0,0,0-1.85-1.35.92.92,0,0,1-.32-.3,11.09,11.09,0,0,0-3.5-3.35L25.8,10s0,0-.07-.09a10.31,10.31,0,0,1,6,5.32"/><path class="cls-1" d="M17.42,21.93c.43-2.12,3.35-5.43,5.27-6,0,.07-.09.11-.11.16A12,12,0,0,0,21.21,18a1.09,1.09,0,0,1-.25.27,11.57,11.57,0,0,0-3.43,3.57c-.05,0-.07,0-.11.13"/><path class="cls-1" d="M19,14.31c1.69-1.17,6.28-1.44,7.88-.53-.53.07-1.05.14-1.6.23a6,6,0,0,0-.71.16,1.42,1.42,0,0,1-.71,0,11,11,0,0,0-4.63.09.79.79,0,0,0-.23,0"/><path class="cls-1" d="M21.66,28.42a10.22,10.22,0,0,1-.52-7.93c0,.35.07.71.11,1.05s.19.94.28,1.4a1.4,1.4,0,0,1,0,.41,11.26,11.26,0,0,0,.11,5v.07"/><path class="cls-1" d="M29.27,30.06a10.51,10.51,0,0,1-6-5.27.65.65,0,0,1,.16.13,12.91,12.91,0,0,0,1.83,1.33.63.63,0,0,1,.28.25A11.14,11.14,0,0,0,29.13,30s.07,0,.09.07,0,0,.05,0"/><path class="cls-1" d="M32.37,24.06c.12-.14.26-.28.35-.41.36-.53.73-1.06,1.12-1.58a.82.82,0,0,1,.25-.27,11.25,11.25,0,0,0,3.35-3.45.29.29,0,0,1,.1-.12s0,0,.09,0a10.73,10.73,0,0,1-5.21,5.94c0-.05,0-.07-.05-.07"/><path class="cls-1" d="M33.9,19.51A13.17,13.17,0,0,0,33.47,17a1,1,0,0,1,0-.25,10.23,10.23,0,0,0,.18-3.17c0-.57-.18-1.14-.27-1.71a.61.61,0,0,1,0-.19,9.53,9.53,0,0,1,1,3.89,9.46,9.46,0,0,1-.51,4"/><path class="cls-1" d="M36,25.7a10.47,10.47,0,0,1-7.86.57V26.2l.83-.07c.54-.09,1.07-.18,1.59-.29a1.43,1.43,0,0,1,.46,0,11.28,11.28,0,0,0,4.87-.09.26.26,0,0,1,.11,0"/></svg>