<svg id="Warstwa_2" data-name="Warstwa 2" xmlns="http://www.w3.org/2000/svg" viewBox="0 0 160 40"><defs><style>.cls-1{fill:#467c45;}.cls-2{fill:#3ba763;}</style></defs><path class="cls-1" d="M23.32,4.33c.46-1.23.84-2.44,1.34-3.65.8,1.72,1.31,3.58,2.11,5.26,2,.78,4.1,1.11,6.12,1.84-4.28,2.14-8.66,4.2-13,6.24,1.08-3.27,2.29-6.46,3.44-9.69"/><path class="cls-1" d="M16,8c2-1.06,3.9-2.22,5.86-3.27-1.58,4.83-3.37,9.61-5,14.44-1.76-3.32-3.3-6.77-5-10.11-.52-1.14-1.13-2.22-1.58-3.38C12.25,6.35,14,7.43,16,8"/><path class="cls-1" d="M24.66,13.09Q31.23,9.88,37.82,6.7c-.7,1.84-1.53,3.6-2.31,5.41,1,1.91,2.26,3.72,3.22,5.69q-7.09-2.24-14.07-4.71"/><path class="cls-1" d="M11.45,10.78c1.3,2.46,2.44,5.05,3.65,7.55.83,1.73,1.71,3.44,2.46,5.21C13.21,22,8.83,20.47,4.5,18.83c1.71-.78,3.52-1.31,5.23-2,.58-2,1.16-4,1.72-6"/><path class="cls-1" d="M28.79,15.58c3.64,1.19,7.27,2.52,10.92,3.75,1.16.43,2.39.76,3.52,1.31-1.91.76-3.82,1.49-5.71,2.22-.71,2.16-1.18,4.43-1.91,6.59-1.49-2.74-2.77-5.59-4.16-8.36-.9-1.81-1.86-3.64-2.66-5.51"/><path class="cls-1" d="M28.63,25c.48-1.38.89-2.77,1.46-4.13.66,1.16,1.21,2.37,1.82,3.55,1.51,3.2,3.14,6.29,4.6,9.49-1.81-.73-3.6-1.56-5.43-2.32-1.92,1-3.73,2.24-5.69,3.23,1-3.33,2.19-6.55,3.24-9.82"/><path class="cls-1" d="M8.63,21.9c4.12,1.28,8.15,2.82,12.23,4.18a11.59,11.59,0,0,1,1.79.73c-4.41,2-8.76,4.25-13.22,6.21.73-1.78,1.61-3.52,2.32-5.33-.86-2-2.17-3.83-3.12-5.79"/><path class="cls-1" d="M17.36,30.41c3.35-1.61,6.64-3.33,10-4.86-.91,3-2.07,6-3.05,9-.58,1.58-1.06,3.25-1.71,4.81-.83-1.74-1.41-3.6-2.19-5.37-2.09-.78-4.25-1.2-6.37-1.78a24.8,24.8,0,0,1,3.3-1.76"/><path class="cls-2" d="M53.42,14.5H52V11.93h1.46Zm0,12.28H52v-11h1.46Z"/><path class="cls-2" d="M70.79,26.78H69.28V20a3.37,3.37,0,0,0-.73-2.17,2.34,2.34,0,0,0-1.91-.9,3,3,0,0,0-2.09.78,2.55,2.55,0,0,0-.88,2v7.07H62.13V19.71a2.55,2.55,0,0,0-.88-2A3,3,0,0,0,59.16,17a2.32,2.32,0,0,0-1.91.9,3.43,3.43,0,0,0-.71,2.19v6.75H55V20.24a4.68,4.68,0,0,1,1.19-3.32,4.28,4.28,0,0,1,2.89-1.34,3.92,3.92,0,0,1,3.8,2,4,4,0,0,1,3.8-2,4.37,4.37,0,0,1,2.9,1.34,4.56,4.56,0,0,1,1.18,3.32Z"/><path class="cls-2" d="M82.06,22.05a4.79,4.79,0,0,1-1.38,3.55,4.94,4.94,0,0,1-7,0,5,5,0,0,1-1.38-3.55V15.78h1.46v6.45a3.24,3.24,0,0,0,1,2.39,3.34,3.34,0,0,0,4.73,0,3.2,3.2,0,0,0,1-2.39V15.78H82v6.27Z"/><path class="cls-2" d="M93.39,26.78H91.93V20.36a3.24,3.24,0,0,0-1-2.39,3.33,3.33,0,0,0-2.36-1,3.43,3.43,0,0,0-3.4,3.39v6.42H83.7V20.52A4.79,4.79,0,0,1,85.08,17a5,5,0,0,1,7,0,4.87,4.87,0,0,1,1.38,3.55v6.26Z"/><path class="cls-2" d="M96.38,14.5H94.92V11.93h1.46Zm0,12.28H94.92v-11h1.46Z"/><path class="cls-2" d="M102.22,17.14H99.45v9.62H98V15.58a3.38,3.38,0,0,1,1.09-2.69,4,4,0,0,1,2.76-1h.38v1.31h-.38a2.38,2.38,0,0,0-1.63.56,2.32,2.32,0,0,0-.73,1.56v.45h2.77v1.33Z"/><polygon class="cls-2" points="113.3 15.81 107.08 30.61 105.49 30.61 107.16 26.43 102.95 15.81 104.54 15.81 108.06 24.54 111.76 15.81 113.3 15.81"/><path class="cls-1" d="M123.61,20.14a3.69,3.69,0,0,0,1.26-2.77,3.65,3.65,0,0,0-1.13-2.87,4,4,0,0,0-2.87-1.23A3.8,3.8,0,0,0,118,14.48a4,4,0,0,0-1.23,3V18h2.21v-.61a1.87,1.87,0,0,1,.61-1.38,1.91,1.91,0,0,1,1.41-.53,1.68,1.68,0,0,1,1.2.56,1.85,1.85,0,0,1,.53,1.25,1.69,1.69,0,0,1-.63,1.51,2.19,2.19,0,0,1-1.66.51h-.93v2h1a3.24,3.24,0,0,1,2.21.73,2.8,2.8,0,0,1,1,2.14,2.66,2.66,0,0,1-.81,2.06,2.61,2.61,0,0,1-2,.88,2.65,2.65,0,0,1-2-.83,2.61,2.61,0,0,1-.83-2v-.65h-2.22v.55a4.92,4.92,0,0,0,1.46,3.55,4.85,4.85,0,0,0,3.52,1.53h0a4.92,4.92,0,0,0,3.6-1.48,4.77,4.77,0,0,0,1.49-3.68A4.63,4.63,0,0,0,123.61,20.14Z"/><path class="cls-1" d="M136.65,18.7a5.73,5.73,0,0,0-3.55-1.56l3.65-3.65h-3.07l-5.39,5.39a6.15,6.15,0,0,0-1.83,4.4,5.8,5.8,0,0,0,1.83,4.33,5.71,5.71,0,0,0,4.08,1.61,5.78,5.78,0,0,0,4.33-1.83A5.93,5.93,0,0,0,138.51,23,5.7,5.7,0,0,0,136.65,18.7ZM136.3,23a3.74,3.74,0,0,1-1.11,2.75,3.81,3.81,0,0,1-2.87,1.2A3.57,3.57,0,0,1,129.8,26a3.52,3.52,0,0,1-1.15-2.72,4,4,0,0,1,4-4,3.41,3.41,0,0,1,2.54,1.06A3.53,3.53,0,0,1,136.3,23Z"/><path class="cls-1" d="M153,15.53a8.14,8.14,0,0,0-5.76-2.26,7.76,7.76,0,0,0-5.71,2.39,7.94,7.94,0,0,0-2.37,5.74A7.48,7.48,0,0,0,141.63,27a8.07,8.07,0,0,0,5.74,2.32,8.16,8.16,0,0,0,8.13-8.15A7.46,7.46,0,0,0,153,15.53Zm.26,5.74a5.53,5.53,0,0,1-1.74,4.18,5.79,5.79,0,0,1-4.23,1.71,5.61,5.61,0,0,1-4.15-1.74,5.53,5.53,0,0,1-1.74-4.1,5.62,5.62,0,0,1,1.74-4.13,5.52,5.52,0,0,1,4.13-1.73,5.71,5.71,0,0,1,4.2,1.71A5.45,5.45,0,0,1,153.29,21.27Z"/></svg>