<svg id="Warstwa_2" data-name="Warstwa 2" xmlns="http://www.w3.org/2000/svg" viewBox="0 0 160 40"><defs><style>.cls-1{fill:#5e8cda;}.cls-2,.cls-5{fill:#093071;}.cls-3{fill:#f5cd21;}.cls-4{fill:#fddd75;}.cls-5{stroke:#093071;stroke-miterlimit:10;stroke-width:0.1px;}</style></defs><path class="cls-1" d="M25.17,19.56l-7-7-3,3.77,3.21,3.2a.78.78,0,0,1,0,1.08l-.93.92s.63.94.65,1a1.12,1.12,0,0,1-.23,1.27l-7.28,5.6c0,1.88,0,5.74,0,5.74L25.17,20.64A.76.76,0,0,0,25.17,19.56Z"/><path class="cls-2" d="M9,20.44a.75.75,0,0,1,0-1.07l.92-.93-.63-.91a1,1,0,0,1,.21-1.36l7.29-5.59V4.84h0L2.22,19.37a.77.77,0,0,0,0,1.07l7,7,3-3.77Z"/><path class="cls-1" d="M20.43,8.24a.35.35,0,0,1,.32.2.5.5,0,0,1-.13.54l-6.39,8.1a.36.36,0,0,0,0,.36l3.57,5.17a1,1,0,0,1-.18,1.1L7.34,31.59a.62.62,0,0,1-.4.17.36.36,0,0,1-.3-.2c-.11-.22.05-.42.13-.54l6.39-8.1a.34.34,0,0,0,0-.35L9.61,17.44a.84.84,0,0,1,.18-1.15L20.06,8.41a.6.6,0,0,1,.37-.17m0,0a.63.63,0,0,0-.4.18L9.76,16.26a.88.88,0,0,0-.18,1.2l3.56,5.13a.31.31,0,0,1,0,.31L6.74,31a.56.56,0,0,0-.13.58.41.41,0,0,0,.33.22.66.66,0,0,0,.42-.18l10.27-7.88a1,1,0,0,0,.19-1.15l-3.57-5.17a.31.31,0,0,1,0-.31L20.65,9c.08-.11.26-.33.14-.57a.41.41,0,0,0-.36-.23Z"/><path class="cls-3" d="M17.45,22.68c.08.13.16.6-.05.76L7.13,31.32c-.09.07-.14.1-.17.1s0-.06.09-.18l6.38-8.11a.68.68,0,0,0,0-.76L9.89,17.24S17.37,22.56,17.45,22.68Z"/><path class="cls-4" d="M17.45,22.68l-3.51-5.05a.68.68,0,0,1,0-.76l6.39-8.1c.09-.12.12-.18.08-.18a.44.44,0,0,0-.16.09L10,16.57a.5.5,0,0,0-.1.67Z"/><path class="cls-1" d="M31.26,25V14h.61V24.32H35V25Z"/><path class="cls-1" d="M36.06,17.49a.6.6,0,0,1-.35-.14.51.51,0,0,1-.16-.37c0-.27.17-.44.51-.5s.42.17.5.5A.44.44,0,0,1,36.06,17.49ZM35.74,25V18.62h.62V25Z"/><path class="cls-1" d="M39.4,19.25V25h-.63v-5.7h-.86v-.63h.86V15.85h.63v2.77h1.47v.63Z"/><path class="cls-1" d="M42.4,21.66a2.93,2.93,0,0,0,.69,2,2.58,2.58,0,0,0,2,.76,3,3,0,0,0,1.16-.21,2.66,2.66,0,0,0,1.18-1.12l.57.26a3.05,3.05,0,0,1-1.84,1.53,3.5,3.5,0,0,1-1.07.15,3.28,3.28,0,1,1,0-6.55,3.25,3.25,0,0,1,2.33.87,3,3,0,0,1,.93,2.27Zm4.32-2a2.72,2.72,0,0,0-1.65-.52,2.5,2.5,0,0,0-2.58,1.93h5.14A2.11,2.11,0,0,0,46.72,19.65Z"/><path class="cls-1" d="M53.67,24.86a4.27,4.27,0,0,1-1.41.21A3.08,3.08,0,0,1,49,22.7l.63-.22a2.46,2.46,0,0,0,2.61,2,2.74,2.74,0,0,0,1.85-.59,2.17,2.17,0,0,0,.69-1.74A2.31,2.31,0,0,0,54,20.31a3.66,3.66,0,0,0-.66-.45c-.3-.16-.67-.34-1.13-.55a7.13,7.13,0,0,1-1.78-1,2.47,2.47,0,0,1,0-3.65,3.22,3.22,0,0,1,4.69.74l-.59.26a2,2,0,0,0-.74-.75,2.53,2.53,0,0,0-1.39-.34,2.24,2.24,0,0,0-1.51.51,1.72,1.72,0,0,0-.64,1.41,1.75,1.75,0,0,0,.67,1.36,8.2,8.2,0,0,0,1.54.83,12.86,12.86,0,0,1,1.24.63,4.37,4.37,0,0,1,.84.64,2.94,2.94,0,0,1,.89,2.18A2.64,2.64,0,0,1,53.67,24.86Z"/><path class="cls-1" d="M62.59,24.11a3.31,3.31,0,0,1-4.94-.34v4.16H57V18.62h.63v1.2a3.3,3.3,0,0,1,4.92-.35,3.33,3.33,0,0,1,0,4.64Zm-.46-4.18a2.63,2.63,0,0,0-3.74,0,2.64,2.64,0,0,0,0,3.75,2.52,2.52,0,0,0,1.87.79,2.64,2.64,0,0,0,1.87-4.52Z"/><path class="cls-1" d="M65,21.66a2.93,2.93,0,0,0,.69,2,2.58,2.58,0,0,0,2,.76,3.11,3.11,0,0,0,1.16-.21,2.71,2.71,0,0,0,1.18-1.12l.57.26a3.05,3.05,0,0,1-1.84,1.53,3.59,3.59,0,0,1-1.07.15,3.18,3.18,0,0,1-3.28-3.27,3.14,3.14,0,0,1,.92-2.35A3.49,3.49,0,0,1,70,19.39,2.94,2.94,0,0,1,71,21.66Zm4.32-2a2.72,2.72,0,0,0-1.65-.52,2.5,2.5,0,0,0-2.58,1.93h5.13A2.13,2.13,0,0,0,69.36,19.65Z"/><path class="cls-1" d="M73.15,21.66a2.93,2.93,0,0,0,.69,2,2.56,2.56,0,0,0,2,.76A3.13,3.13,0,0,0,77,24.25a2.71,2.71,0,0,0,1.18-1.12l.56.26a3,3,0,0,1-1.83,1.53,3.61,3.61,0,0,1-1.08.15,3.2,3.2,0,0,1-3.28-3.27,3.18,3.18,0,0,1,.92-2.35,3.51,3.51,0,0,1,4.69-.06,2.94,2.94,0,0,1,.94,2.27Zm4.32-2a2.73,2.73,0,0,0-1.66-.52,2.48,2.48,0,0,0-2.57,1.93h5.13A2.13,2.13,0,0,0,77.47,19.65Z"/><path class="cls-1" d="M86,25V23.82a3.18,3.18,0,0,1-2.58,1.24,3.12,3.12,0,0,1-2.31-.94,3.18,3.18,0,0,1-.95-2.33,3.12,3.12,0,0,1,.94-2.31,3.17,3.17,0,0,1,2.32-.95A3.26,3.26,0,0,1,86,19.77V13.61h.63V25Zm-.71-5a2.52,2.52,0,0,0-1.87-.79,2.65,2.65,0,0,0-2.65,2.65,2.66,2.66,0,1,0,5.31,0A2.51,2.51,0,0,0,85.31,19.93Z"/><path class="cls-5" d="M100,25.11l-2.73-9.18-2.74,9.18L91,14h.61l2.87,9,2.77-9.15L100,23l2.87-9h.64Z"/><path class="cls-5" d="M103.79,21.66a2.93,2.93,0,0,0,.69,2,2.58,2.58,0,0,0,2,.76,3.13,3.13,0,0,0,1.17-.21,2.71,2.71,0,0,0,1.18-1.12l.56.26a3.05,3.05,0,0,1-1.84,1.53,3.5,3.5,0,0,1-1.07.15,3.2,3.2,0,0,1-3.28-3.27,3.17,3.17,0,0,1,3.28-3.28,3.25,3.25,0,0,1,2.33.87,3,3,0,0,1,.94,2.27Zm4.33-2a2.75,2.75,0,0,0-1.66-.52,2.48,2.48,0,0,0-2.57,1.93H109A2.13,2.13,0,0,0,108.12,19.65Z"/><path class="cls-5" d="M116.56,24.11a3.3,3.3,0,0,1-4.92-.32V25H111V13.61h.63V19.8a3.3,3.3,0,0,1,4.91-.33,3.32,3.32,0,0,1,0,4.64Zm-.46-4.18a2.52,2.52,0,0,0-1.87-.79,2.64,2.64,0,0,0-1.87,4.52,2.63,2.63,0,0,0,3.74,0,2.57,2.57,0,0,0,.78-1.89A2.54,2.54,0,0,0,116.1,19.93Z"/><path class="cls-5" d="M124.85,24.86a4.27,4.27,0,0,1-1.41.21,3.08,3.08,0,0,1-3.23-2.37l.63-.22a2.44,2.44,0,0,0,2.6,2,2.75,2.75,0,0,0,1.86-.59,2.17,2.17,0,0,0,.69-1.74,2.32,2.32,0,0,0-.82-1.81,3.66,3.66,0,0,0-.66-.45c-.29-.16-.67-.34-1.13-.55a7.32,7.32,0,0,1-1.78-1,2.46,2.46,0,0,1,0-3.65,3.22,3.22,0,0,1,4.69.74l-.6.26a2,2,0,0,0-.74-.75,2.51,2.51,0,0,0-1.39-.34,2.24,2.24,0,0,0-1.5.51,1.73,1.73,0,0,0-.65,1.41,1.76,1.76,0,0,0,.68,1.36,7.7,7.7,0,0,0,1.53.83,12.86,12.86,0,0,1,1.24.63,4.37,4.37,0,0,1,.84.64,2.9,2.9,0,0,1,.89,2.18A2.63,2.63,0,0,1,124.85,24.86Z"/><path class="cls-5" d="M128.36,21.66a2.93,2.93,0,0,0,.69,2,2.58,2.58,0,0,0,2,.76,3.07,3.07,0,0,0,1.16-.21,2.71,2.71,0,0,0,1.18-1.12l.57.26a3.05,3.05,0,0,1-1.84,1.53,3.55,3.55,0,0,1-1.07.15,3.18,3.18,0,0,1-3.28-3.27,3.14,3.14,0,0,1,.92-2.35,3.2,3.2,0,0,1,2.36-.93,3.27,3.27,0,0,1,2.33.87,3,3,0,0,1,.93,2.27Zm4.32-2a2.72,2.72,0,0,0-1.65-.52,2.5,2.5,0,0,0-2.58,1.93h5.14A2.18,2.18,0,0,0,132.68,19.65Z"/><path class="cls-5" d="M138.74,19.56a2,2,0,0,0-.53-.29,1.4,1.4,0,0,0-.58-.11.84.84,0,0,0-.49.16,1.9,1.9,0,0,0-.4.4,1.87,1.87,0,0,0-.26.53,1.54,1.54,0,0,0-.1.53V25h-.63V18.62h.63v.86a2.4,2.4,0,0,1,.52-.64,1,1,0,0,1,.7-.29,2.42,2.42,0,0,1,.78.1,2.47,2.47,0,0,1,.69.39Z"/><path class="cls-5" d="M142.89,25.23l-3-6.61h.67l2.3,5,2.32-5h.7Z"/><path class="cls-5" d="M147.29,21.66a2.93,2.93,0,0,0,.69,2,2.58,2.58,0,0,0,2,.76,3.13,3.13,0,0,0,1.17-.21,2.71,2.71,0,0,0,1.18-1.12l.57.26A3.08,3.08,0,0,1,151,24.92a3.61,3.61,0,0,1-1.08.15,3.14,3.14,0,0,1-2.34-.93,3.42,3.42,0,0,1,0-4.69,3.51,3.51,0,0,1,4.69-.06,2.94,2.94,0,0,1,.94,2.27Zm4.32-2a2.73,2.73,0,0,0-1.66-.52,2.49,2.49,0,0,0-2.57,1.93h5.13A2.13,2.13,0,0,0,151.61,19.65Z"/><path class="cls-5" d="M157.66,19.56a1.78,1.78,0,0,0-.52-.29,1.43,1.43,0,0,0-.58-.11.82.82,0,0,0-.49.16,1.69,1.69,0,0,0-.4.4,2.2,2.2,0,0,0-.27.53,1.82,1.82,0,0,0-.1.53V25h-.63V18.62h.63v.86a2.86,2.86,0,0,1,.52-.64,1,1,0,0,1,.71-.29,2.42,2.42,0,0,1,.78.1A2.78,2.78,0,0,1,158,19Z"/></svg>