<svg id="Warstwa_2" data-name="Warstwa 2" xmlns="http://www.w3.org/2000/svg" viewBox="0 0 160 40"><defs><style>.cls-1{fill:#00749a;}.cls-2{fill:#464342;}</style></defs><g id="Layer_2" data-name="Layer 2"><path class="cls-1" d="M90.72,16.77H85.44v.56c1.65,0,1.92.35,1.92,2.44v3.77c0,2.1-.27,2.48-1.92,2.48-1.26-.18-2.12-.86-3.3-2.15l-1.35-1.48c1.82-.32,2.8-1.47,2.8-2.77,0-1.62-1.39-2.85-4-2.85H74.42v.56c1.65,0,1.92.35,1.92,2.44v3.77c0,2.1-.27,2.48-1.92,2.48v.56h5.87V26c-1.65,0-1.92-.38-1.92-2.48V22.48h.5l3.27,4.1h8.58c4.21,0,6-2.24,6-4.92S94.93,16.77,90.72,16.77Zm-12.35,4.8V17.65h1.21a1.8,1.8,0,0,1,1.91,2,1.8,1.8,0,0,1-1.91,1.95Zm12.44,4.09H90.6c-1.06,0-1.21-.26-1.21-1.62V17.65h1.42c3.06,0,3.62,2.24,3.62,4S93.87,25.66,90.81,25.66Z"/><path class="cls-1" d="M58,22.66l2-6c.59-1.74.33-2.24-1.56-2.24v-.59H64v.59c-1.86,0-2.3.44-3,2.59L57.63,27.08h-.39l-3-9.22-3.07,9.22h-.38L47.52,17c-.71-2.15-1.18-2.59-2.89-2.59v-.59h6.54v.59c-1.74,0-2.21.41-1.59,2.24l2,6,3-8.84h.56Z"/><path class="cls-1" d="M68,27c-3.24,0-5.9-2.39-5.9-5.3s2.66-5.28,5.9-5.28,5.89,2.39,5.89,5.28S71.27,27,68,27Zm0-9.66c-2.71,0-3.66,2.44-3.66,4.36S65.32,26,68,26s3.68-2.42,3.68-4.36S70.77,17.3,68,17.3Z"/><path class="cls-2" d="M104,26v.59H97.29V26c2,0,2.33-.5,2.33-3.45V17.83c0-2.95-.36-3.42-2.33-3.42v-.59h6.1c3,0,4.71,1.56,4.71,3.65s-1.68,3.63-4.71,3.63h-1.68v1.44C101.71,25.49,102.06,26,104,26Zm-.65-11.11h-1.68V20h1.68a2.3,2.3,0,0,0,2.41-2.54A2.33,2.33,0,0,0,103.39,14.88Z"/><path class="cls-2" d="M128.35,23.81l-.15.53c-.26,1-.59,1.32-2.68,1.32h-.41c-1.54,0-1.8-.35-1.8-2.44V21.86c2.3,0,2.47.21,2.47,1.74h.56V19.21h-.56c0,1.53-.17,1.74-2.47,1.74v-3.3h1.62c2.09,0,2.42.35,2.68,1.33l.15.56h.47L128,16.77h-8.66v.56c1.65,0,1.91.35,1.91,2.44v3.77c0,1.92-.22,2.4-1.52,2.47-1.24-.19-2.09-.87-3.25-2.14l-1.35-1.48c1.82-.32,2.8-1.47,2.8-2.77,0-1.62-1.39-2.85-4-2.85h-5.19v.56c1.65,0,1.92.35,1.92,2.44v3.77c0,2.1-.27,2.48-1.92,2.48v.56h5.87V26c-1.65,0-1.92-.38-1.92-2.48V22.48h.5l3.27,4.1h12.11l.18-2.77Zm-15.62-2.24V17.65h1.21a1.8,1.8,0,0,1,1.91,2,1.8,1.8,0,0,1-1.91,1.95Z"/><path class="cls-2" d="M134.33,27a4.36,4.36,0,0,1-2.65-1,2,2,0,0,0-.47,1h-.56V22.9h.59A3.27,3.27,0,0,0,134.57,26a1.51,1.51,0,0,0,1.7-1.42c0-.76-.67-1.35-1.88-1.91l-1.68-.8A3.2,3.2,0,0,1,130.65,19a2.89,2.89,0,0,1,3.15-2.62,3.71,3.71,0,0,1,2.3.77,1.75,1.75,0,0,0,.38-.8H137v3.48h-.62c-.2-1.39-1-2.53-2.53-2.53-.83,0-1.59.47-1.59,1.2s.61,1.18,2,1.83l1.62.8a3.06,3.06,0,0,1,2,2.65A3.33,3.33,0,0,1,134.33,27Z"/><path class="cls-2" d="M143.41,27a4.39,4.39,0,0,1-2.66-1,2.22,2.22,0,0,0-.47,1h-.56V22.9h.59A3.27,3.27,0,0,0,143.64,26a1.52,1.52,0,0,0,1.71-1.42c0-.76-.68-1.35-1.89-1.91l-1.68-.8A3.21,3.21,0,0,1,139.72,19a2.9,2.9,0,0,1,3.15-2.62,3.69,3.69,0,0,1,2.3.77,1.65,1.65,0,0,0,.39-.8h.56v3.48h-.62c-.21-1.39-1-2.53-2.54-2.53-.82,0-1.59.47-1.59,1.2s.62,1.18,2,1.83l1.62.8a3.06,3.06,0,0,1,2,2.65A3.33,3.33,0,0,1,143.41,27Z"/><path class="cls-2" d="M15.16,20a13.06,13.06,0,0,0,7.35,11.74l-6.22-17A13.06,13.06,0,0,0,15.16,20Z"/><path class="cls-2" d="M37,19.34a6.86,6.86,0,0,0-1.08-3.6,6.09,6.09,0,0,1-1.28-3.05,2.26,2.26,0,0,1,2.19-2.32H37a13,13,0,0,0-19.7,2.46h.84c1.36,0,3.47-.16,3.47-.16a.54.54,0,0,1,.08,1.07s-.7.08-1.49.13L25,28l2.85-8.56-2-5.56c-.7-.05-1.36-.13-1.36-.13a.54.54,0,0,1,.08-1.07s2.15.16,3.43.16,3.48-.16,3.48-.16a.54.54,0,0,1,.08,1.07s-.71.08-1.49.13l4.71,14L36,23.56A15.62,15.62,0,0,0,37,19.34Z"/><path class="cls-2" d="M28.43,21.14,24.52,32.51A13.15,13.15,0,0,0,28.2,33a12.91,12.91,0,0,0,4.33-.74,1.5,1.5,0,0,1-.09-.18Z"/><path class="cls-2" d="M39.65,13.74a11.23,11.23,0,0,1,.08,1.34,12.16,12.16,0,0,1-1,4.67l-4,11.52a13.06,13.06,0,0,0,4.89-17.53Z"/><path class="cls-2" d="M28.2,4.8A15.2,15.2,0,1,0,43.4,20,15.22,15.22,0,0,0,28.2,4.8Zm0,29.71A14.51,14.51,0,1,1,42.71,20,14.52,14.52,0,0,1,28.2,34.51Z"/></g></svg>